<?xml version="1.0" encoding="utf-8"?>
<!-- Generator: Adobe Illustrator 19.2.1, SVG Export Plug-In . SVG Version: 6.00 Build 0)  -->
<svg version="1.1" id="Capa_1" xmlns="http://www.w3.org/2000/svg" xmlns:xlink="http://www.w3.org/1999/xlink" x="0px" y="0px"
	 width="263px" height="176.7px" viewBox="0 0 263 176.7" style="enable-background:new 0 0 263 176.7;" xml:space="preserve">
<style type="text/css">
	.st0{fill:#1D1D1B;}
	.st1{fill:#FFB547;}
	.st2{fill:#65CBC9;}
	.st3{fill:#007573;}
	.st4{fill:#222944;}
	.st5{fill:none;stroke:#1D1D1B;stroke-width:4.4983;stroke-miterlimit:10;}
	.st6{fill:#FFFFFF;}
	.st7{fill:#3C3C3B;}
	.st8{fill:none;stroke:#1D1D1B;stroke-miterlimit:10;}
	.st9{fill:#6F6F6E;}
	.st10{fill:#79A5B1;}
	.st11{fill:#74C1C2;}
	.st12{fill:#169595;}
	.st13{fill:#95CECD;}
	.st14{fill:#6DC2C2;}
	.st15{fill:#83C3C2;}
	.st16{fill:#076F6E;}
	.st17{fill:#B1DBD9;}
	.st18{fill:#049192;}
	.st19{fill:#C5E2E4;}
	.st20{fill:#F5EBD9;}
	.st21{fill:#EAD3AF;}
	.st22{fill:#F9E5CD;}
	.st23{fill:#E9D2AD;}
	.st24{fill:#F5E6CC;}
	.st25{fill:#F8F0E6;}
	.st26{fill:#FAEFDB;}
	.st27{fill:#F6E8D9;}
	.st28{fill:#EAD2AD;}
	.st29{fill:#DAB989;}
	.st30{fill:#F7E9DA;}
	.st31{fill:#F8EADA;}
	.st32{fill:#FAE9DA;}
	.st33{fill:#FBF8EB;}
	.st34{fill:#EDD4AF;}
	.st35{fill:#F2E4C6;}
	.st36{fill:#FCFBF3;}
	.st37{fill:#F5ECE0;}
	.st38{fill:#F6E9DC;}
	.st39{fill:#EDD3AD;}
	.st40{fill:#FFFFFD;}
	.st41{fill:#FFFFFF;stroke:#222944;stroke-width:0.25;stroke-miterlimit:10;}
	.st42{fill:#65AEAB;}
	.st43{fill:#82BCB9;}
	.st44{fill:#008C89;}
	.st45{fill:#9CCAC7;}
	.st46{fill:#7EBBB7;}
	.st47{fill:#89C0BD;}
	.st48{fill:#B9D9D6;}
	.st49{fill:#008885;}
	.st50{fill:#C9E1DF;}
	.st51{fill:#FFEACC;}
	.st52{fill:#FFD290;}
	.st53{fill:#FFE6C2;}
	.st54{fill:#FFD08C;}
	.st55{fill:#FFE5C0;}
	.st56{fill:#FFF0DA;}
	.st57{fill:#FFEED6;}
	.st58{fill:#FFE9C8;}
	.st59{fill:#FFD18E;}
	.st60{fill:#FFF6E8;}
	.st61{fill:#FFD394;}
	.st62{fill:#FFE2B9;}
	.st63{fill:#FFFBF5;}
	.st64{fill:#FFEBCD;}
	.st65{fill:#FFE9C9;}
	.st66{fill:#FFD292;}
	.st67{fill:#74768A;}
	.st68{fill:#8C8E9E;}
	.st69{fill:#333953;}
	.st70{fill:#A4A4B1;}
	.st71{fill:#8A8B9C;}
	.st72{fill:#9395A4;}
	.st73{fill:#BDBDC7;}
	.st74{fill:#313751;}
	.st75{fill:#CBCBD2;}
	.st76{fill:#D9F1EF;}
	.st77{fill:#A7E0DD;}
	.st78{fill:#CFEEEC;}
	.st79{fill:#A4DFDC;}
	.st80{fill:#CEEDEB;}
	.st81{fill:#E4F5F3;}
	.st82{fill:#DFF3F2;}
	.st83{fill:#D6F0EE;}
	.st84{fill:#A6DFDD;}
	.st85{fill:#EFF9F7;}
	.st86{fill:#ABE1DF;}
	.st87{fill:#C9EBE9;}
	.st88{fill:#F9FCFB;}
	.st89{fill:#DAF1EF;}
	.st90{fill:#A9E0DE;}
	.st91{fill:#FFD08B;}
	.st92{fill:#FFD8A0;}
	.st93{fill:#FFBB57;}
	.st94{fill:#FFE0B2;}
	.st95{fill:#FFD79D;}
	.st96{fill:#FFDAA6;}
	.st97{fill:#FFBA55;}
	.st98{fill:#FFEDD3;}
	.st99{fill:#BCDBD8;}
	.st100{fill:#ACD2CF;}
	.st101{fill:#5FABA8;}
	.st102{fill:#AAD1CE;}
	.st103{fill:#CFE4E2;}
	.st104{fill:#C7E0DE;}
	.st105{fill:#B7D8D5;}
	.st106{fill:#E4EFEE;}
	.st107{fill:#6AB1AE;}
	.st108{fill:#9FCBC8;}
	.st109{fill:#F3F8F6;}
	.st110{fill:none;stroke:#6F6F6E;stroke-width:0.25;stroke-miterlimit:10;}
	.st111{clip-path:url(#XMLID_5369_);}
	.st112{fill:none;stroke:#FFB547;stroke-miterlimit:10;}
	.st113{fill:#FFFCF3;}
	.st114{fill-rule:evenodd;clip-rule:evenodd;fill:#1D1D1B;}
	.st115{fill-rule:evenodd;clip-rule:evenodd;fill:#FFB547;}
</style>
<g id="XMLID_4975_">
	<path id="XMLID_5075_" class="st46" d="M172.2,51.5c0,0,23.7,9.8,29.1,14.4c5.4,4.6,16.4,17.7,21.2,17.1c0,0-20.5,7.1-30.8-0.6
		C181.4,74.5,172.2,51.5,172.2,51.5"/>
	<path id="XMLID_5349_" class="st42" d="M18.8,152.5c2.1-1.7,4.6-3.4,6.8-4.9c1.2-0.8,3.5-1.8,6.6-2.7c-1.3,2.5-8.4,16.3-1.4,17.3
		c7.7,1.1,10.6-6.5,4.7-18.3c4-1.2,8.9-2.4,14-3.5c-1.8,3.7-7,15.8-3.3,19.1c4.4,3.9,8.3,0.6,9.5-3.2c2.6-8-1.5-14.8-2.7-16.6
		c5.2-1.2,10.4-2.3,15.2-3.3c-1.8,2.2-11.7,14.6-6.5,17.6c5.7,3.2,18,1.5,11.1-18.6c1.4-0.3,2.6-0.5,3.8-0.8c3.8-0.8,8.2-2.2,12.8-4
		c0,0-13.4,18.3-9.3,22.3c4.1,4,7.4,4.3,10-2.5c2.6-6.8,2.9-21.2,2.9-21.2c4.9-2,9.7-4.3,14.1-6.6c0,0.1-6.4,19.9,1.5,22.3
		c8,2.5,11.7-2.3,10.8-7.5c-0.8-5.2-8.1-17.1-8.1-17.1c5.1-2.7,9.1-5.2,10.9-6.5c0,0,0.3,14.2,5.9,14.4c5.5,0.2,8.9-2.6,6.6-6.7
		c-2.3-4.1-9.5-10.3-9.5-10.3c4.1-4.2,7.5-9.8,7.5-9.8c-0.9-3.1-3.4,2.5-10.1,8.3l0,0c0,0-2.7-9.1-7.4-13.3
		c-4.7-4.2-8.2,1.9-9.2,6.3c-0.8,3.9,10.9,8.2,13.8,9.2c-2.9,2.2-6.5,4.4-10.5,6.5c0-0.1-3.9-10.3-10.3-14.5
		c-6.4-4.2-10-3.4-10.6,3.6c-0.6,7,17.8,12.5,17.8,12.5c-4.9,2.4-10.2,4.7-15.5,6.7c-0.6-1.9-3.4-10.7-7.8-15
		c-5-4.9-11.1-4.6-9.8,4.8c1.2,8.3,12.6,10.8,15.1,11.2c-3.9,1.4-7.8,2.7-11.4,3.7c-0.5,0.1-1,0.3-1.7,0.4c0,0-4.3-9.2-9.3-14.9
		c-4.9-5.8-12-0.3-9.5,7.4c2.5,7.7,15.3,8.4,15.3,8.4c-5,1.3-12.3,3-19.4,4.7c0,0-1.4-10.4-5-14.9c-3.5-4.5-11-2.1-10.3,5.1
		c0.6,7.1,13.1,10.3,13.1,10.3c-6.7,1.6-13,3.2-17,4.2c0,0-4.4-10.6-8-14c-3.7-3.4-9.1-3.1-9.2,3.8c-0.1,6.9,15.8,10.5,15.9,10.5
		c-0.8,0.2-1.4,0.4-1.9,0.5c-3.7,1.2-7.4,3.5-11.2,5.5l0.1-0.1c0,0-4.5-18.4-13.7-9.8c-8.3,7.7,7.3,10.9,10.4,11.4
		c-0.9,0.4-1.8,0.7-2.8,1c-8.5,2.4-14.5,8-11.6,12.8c3,4.8,8.5,0.5,10.2-2.2c2.2-3.4,3.3-5.2,5.4-7c-0.8,3.1-4.5,18.1,4.3,16.4
		C30.3,169,29.4,159.2,18.8,152.5"/>
	<path id="XMLID_5348_" class="st42" d="M246.7,160.2c2,1.8,3.2,3.6,5.4,7c1.7,2.7,7.2,7,10.2,2.2c3-4.8-3.1-10.4-11.6-12.8
		c-1-0.3-1.9-0.6-2.8-1c3.1-0.5,18.6-3.6,10.4-11.4c-9.2-8.6-13.7,9.8-13.7,9.8l0.1,0.1c-3.9-2-7.5-4.3-11.2-5.5
		c-0.5-0.1-1.1-0.3-1.9-0.5c0.1,0,16-3.7,15.9-10.6c-0.1-6.9-5.5-7.2-9.2-3.8c-3.7,3.4-8,14-8,14c-4-1.1-10.4-2.6-17-4.2
		c0,0,12.5-3.2,13.1-10.3c0.6-7.1-6.8-9.5-10.4-5.1c-3.5,4.5-5,14.9-5,14.9c-7.1-1.7-14.4-3.5-19.4-4.7c0,0,12.8-0.7,15.3-8.5
		c2.4-7.7-4.6-13.2-9.5-7.4c-4.9,5.8-9.3,14.9-9.3,14.9c-0.7-0.2-1.2-0.3-1.7-0.4c-3.6-1-7.5-2.3-11.4-3.7
		c2.5-0.4,13.9-2.8,15.1-11.2c1.3-9.4-4.8-9.7-9.8-4.8c-4.4,4.3-7.2,13.1-7.8,15c-5.3-2-10.6-4.3-15.5-6.7c0,0,18.4-5.5,17.8-12.5
		c-0.6-7-4.2-7.8-10.6-3.6c-6.4,4.2-10.3,14.4-10.3,14.5c-4-2.1-7.6-4.3-10.5-6.5c3-1,14.7-5.3,13.8-9.2c-0.9-4.4-4.5-10.5-9.2-6.3
		c-4.7,4.2-7.4,13.3-7.4,13.3l0,0c-6.6-5.8-9.1-11.4-10.1-8.3c0,0,3.3,5.6,7.5,9.8c0,0-7.2,6.2-9.5,10.3c-2.3,4.1,1,6.8,6.6,6.7
		c5.5-0.2,5.9-14.4,5.9-14.4c1.8,1.3,5.8,3.8,10.9,6.5c0,0-7.2,11.8-8.1,17.1c-0.8,5.2,2.9,10,10.8,7.5c7.9-2.5,1.5-22.3,1.5-22.3
		c4.4,2.2,9.2,4.6,14.1,6.6c0,0,0.3,14.4,2.9,21.2c2.6,6.8,5.8,6.5,10,2.5c4.1-4-9.3-22.2-9.3-22.3c4.5,1.7,8.9,3.2,12.8,4
		c1.2,0.2,2.5,0.5,3.8,0.8c-6.8,20.1,5.5,21.8,11.1,18.6c5.2-3-4.7-15.5-6.5-17.6c4.8,1,10,2.1,15.2,3.3c-1.3,1.8-5.4,8.7-2.7,16.6
		c1.3,3.8,5.1,7.1,9.5,3.2c3.7-3.3-1.6-15.3-3.3-19.1c5.1,1.2,9.9,2.4,14,3.6c-5.9,11.8-3,19.3,4.7,18.3c7-1-0.1-14.8-1.4-17.3
		c3,1,5.4,1.9,6.6,2.7c2.3,1.6,4.7,3.3,6.8,4.9c-10.6,6.7-11.5,16.4-1.9,18.4C251.1,178.3,247.5,163.3,246.7,160.2"/>
	<path id="XMLID_5347_" class="st43" d="M109.2,90.8c0,0,10.8,0.2,14.6-13.2c3.8-13.4-1.5-12.9-0.2-17.7c1.3-4.8,4.8-11.6,3.2-14.2
		c-1.6-2.6-8.7-4.2-11.3-7c-2.6-2.8-5.7-8.4-13.4-9.4c-7.7-1-11.4,4.8-11.4,4.8L109.2,90.8z"/>
	<path id="XMLID_5346_" class="st44" d="M107.6,91c0,0,8.2-5.6,10.9-8.8c2.7-3.1,7.8-10.7,3.1-17c-4.7-6.3-10.4-2.8-14.7-10.9
		c-4.3-8,0.6-19.5-1-21.9c-1.6-2.4-14,2-14,2L107.6,91z"/>
	<path id="XMLID_5345_" class="st43" d="M63,120.4c0,0-9.8,11.7-12.9,11.7c-3.1-0.1-4-2.9-8-3.4c-4-0.5-15.9,2.7-21-1.9
		c-5.1-4.5-12.7-24.1-12.1-28.5c0.6-4.4,8.4-16.8,8.4-16.8S53.2,90.4,63,120.4"/>
	<path id="XMLID_5344_" class="st44" d="M61.7,117c0,0-4.9,6.9-13.1,5.6c-8.2-1.3-9.5-4.5-14.1-5.6c-4.6-1.1-15.1-1.4-17.4-6.1
		c-2.3-4.8-4.6-21.7,1.6-27.5C24.9,77.7,61.6,110,61.7,117"/>
	<path id="XMLID_5343_" class="st43" d="M49.1,132c0,0-1.2,6,1.8,9.3c3.1,3.3,10.5,0.8,13.1,1.7c2.6,1,6.4,6.6,13,4
		c6.6-2.7,7.3-2.9,9.8-5.5c2.5-2.6,3.2-9.9,7.3-12c4.1-2.1,11.9-8.7,14.4-15.6c2.5-6.9,1.7-21.3-1.5-27.2
		C107.2,86.7,48.9,125.8,49.1,132"/>
	<path id="XMLID_5342_" class="st44" d="M58,125.7c0,0,6,11.3,16.1,7.3c10.1-4,15-14.6,15-14.6l-6.8-13.3
		C82.4,105.1,57.9,115.2,58,125.7"/>
	<path id="XMLID_5341_" class="st43" d="M80,18.9C85,21.7,92,29.7,98,39.7c6.8,11.3,12.4,25.2,12.2,36.8
		c-0.3,21.7-11.6,21.3-14,27.4c0,0-3.6,8.4-7.6,14.9c-3.1,5.1-6.4,9.1-8.4,7.2c-4.6-4.4,8.1-21.9,8.4-25.5c0.4-3.6,3.4-6.5,2.1-15.1
		c-1.3-8.6-1-32-3.8-39.4c-2.7-7.3-9-27-21.9-25.7c-12.9,1.4-5.6,17.4-5.6,17.4l-1.9-0.5c0,0-3.9-8.6-1.3-13.8
		C58.8,18,69.4,12.8,80,18.9"/>
	<path id="XMLID_5340_" class="st45" d="M98,39.7c6.8,11.3,12.4,25.2,12.2,36.8c-0.3,21.7-11.6,21.3-14,27.4c0,0-3.6,8.4-7.6,14.9
		c-1.1-1.1-3.2-4-2.5-8.5c1-6.1,8.8-12.3,9-16.1C95.3,90.3,90,47.8,93,45C94.9,43.2,96.4,40.9,98,39.7"/>
	<path id="XMLID_5339_" class="st46" d="M88.5,97.1c0,0,0.2,10.6-9.3,17.5c-9.6,6.9-23.9,4.4-23.9,4.4L88.5,97.1z"/>
	<path id="XMLID_5338_" class="st47" d="M45.7,116.5c0,0-12,1.2-14.8-1.5c-2.8-2.7-5.7-5.7-1.9-7.6c3.8-1.9,12.7-3.6,12.7-3.6
		s-6.8,3.1-3.4,5.2c3.4,2.2,12.2,4,12.2,4L45.7,116.5z"/>
	<path id="XMLID_5337_" class="st44" d="M58.8,38c0,0-5.3-13.6,1-16.7c6.3-3.1,20.3-7.2,29.4,31.5c0,0,6.6,38.5-0.9,49
		C88.2,101.9,70.7,39.3,58.8,38"/>
	<path id="XMLID_5336_" class="st3" d="M67.4,40.4c0,0,1.6-7.3,6.2-5.7c4.6,1.6,3.6,13.1,3.6,13.1L67.4,40.4z"/>
	<path id="XMLID_5335_" class="st46" d="M60.1,38.4c0,0,13.6,2.5,17,9.4c3.4,6.9,3.9,21.5,3.9,21.5S58.9,45.7,60.1,38.4"/>
	<path id="XMLID_5334_" class="st48" d="M79.6,69.4c1.3,0.1-2.4-10.6-5.9-14.6c-3.5-4-8.6-5.6-9-7.4c-0.3-1.9,0.6-3.2-0.5-5.3
		c-1.1-2.1-6.2-6.7-7.5-6.2C55.4,36.4,70.7,69,79.6,69.4"/>
	<path id="XMLID_5333_" class="st49" d="M57.4,109.7l-1.9-2.2c0,0,28.8-3.7,25-35.3l1.5-0.1c0,0,4.1,19.9,4.2,22.8
		C86.3,97.9,69.7,108.4,57.4,109.7"/>
	<path id="XMLID_5332_" class="st49" d="M59.6,84.7c0,0,12.8-15.1,22.6-13.1c0,0-14.3-11.6-18.8-20.7c0,0,2.4,9.3,4.4,15.6
		C69.5,71.9,57.7,80.8,59.6,84.7"/>
	<path id="XMLID_5331_" class="st46" d="M59.6,84.7c0,0-0.6-15,0.4-18.8c1-3.9,4.8-12.4,3.4-15c0,0,7.9,10,6.5,17.1
		C68.5,75.2,59.6,84.7,59.6,84.7"/>
	<path id="XMLID_5312_" class="st49" d="M22.5,87c0,0,2.9,13.2,18.1,12.3C40.6,99.3,27.5,89.1,22.5,87"/>
	<path id="XMLID_5311_" class="st46" d="M29.2,91.1c0,0,8.5,9.1,13.3,8.3c4.7-0.8,15.6-5.2,15.4-8.5c-0.2-3.3-0.7-7.6-0.7-7.6
		S32.7,93.5,29.2,91.1"/>
	<path id="XMLID_5310_" class="st43" d="M57.6,38.6c0,0-16.6-7.2-28.2,2.2c0,0,1.1-7.4,5.5-11.1c4.3-3.7,20.3,0.5,20.6,1.4
		L57.6,38.6z"/>
	<path id="XMLID_5309_" class="st44" d="M29.4,40.8c0,0,4.8-4.6,9.1-5.1c5.4-0.6,14.8-0.6,19.2,3l4.9,10.5l0.1,1.4
		C62.8,50.5,47.1,41.8,29.4,40.8"/>
	<path id="XMLID_5308_" class="st3" d="M57.7,83.8c0,0-24.1,9.1-37.3-1c-13.2-10.1-5.3-27.4-2.3-31.2c3.1-3.9,12.2-21.9,44.6-1
		C62.8,50.5,51.7,71.5,57.7,83.8"/>
	<path id="XMLID_5307_" class="st43" d="M21.9,84.2c-0.4,1.2-13.1-8.5-12.9-17c0.3-8.4,4.8-10.9,5.6-13.7c0.8-2.8,1.7-9.3,4.6-11.5
		c2.9-2.3,13.5-2.3,14.8-1.4c1.3,1,0.1,0.8,0.1,0.8s-8.4,0.5-12.9,6.2c-5,6.2-6.4,10.6-6.1,18.2C15.5,78.2,21.9,84.2,21.9,84.2"/>
	<path id="XMLID_5306_" class="st50" d="M42.1,85.2c1.5,0.1-10.5,2.2-14.5-2.1c-4-4.3-6.4-16.5-4.8-18
		C24.3,63.6,24.7,83.8,42.1,85.2"/>
	<path id="XMLID_5305_" class="st50" d="M34.7,77.6c0,0-4.9-4.3-4.9-7.6c0-3.3,1.8-6.2,3.9-7.2C33.7,62.8,29.7,66.6,34.7,77.6"/>
	<path id="XMLID_5304_" class="st50" d="M32.5,77.9c0,0-0.5,5.5,6.7,5.6c7.2,0,16.5-2.5,16.4-3.9c-0.1-1.4-11.5,0.9-13.9,0.7
		c-2.4-0.2,8.7-2.1,10.6-6.7C52.3,73.4,36.9,81.8,32.5,77.9"/>
	<path id="XMLID_5303_" class="st50" d="M51,72c1,0-9.3,4.3-13.3,2.7c-4-1.6-5.2-4.4-4.8-6.7c0.8-4.8,8.1-5.9,8.3-3.5
		c0.2,1.7-4.8,1.3-4.6,3.9C36.9,72.5,43.6,72.4,51,72"/>
	<path id="XMLID_5302_" class="st44" d="M26,55.5c0,0-1-7.5,4.3-8.9c5.3-1.3,23.4-1.4,31.1,6.6L55,70.5c-5.3-2.7-6.4-10.8-11.7-13.5
		C38.9,54.7,30.4,57.7,26,55.5"/>
	<path id="XMLID_5301_" class="st50" d="M25.4,52.3c0.2,1.2,4.1-3.6,7.3-4c3.2-0.5,12.2-2.6,12.1-3.8C44.8,43.4,24.1,42.6,25.4,52.3
		"/>
	<path id="XMLID_5300_" class="st48" d="M41.6,52c0,0,2.8-3.6,7.4-2.5c4.6,1.1,12.4,2.7,12.4,2.7l1.4-1.7c0,0-14.8-8.8-23.6,0.9
		L41.6,52z"/>
	<path id="XMLID_5299_" class="st50" d="M28.9,77c0,0-1.7-16.2,5.1-18.3c6.8-2.2,15.5-1.2,21.3,18.2c0,0-0.3-16-9-22.4
		C37.6,48,20.4,49.6,28.9,77"/>
	<path id="XMLID_5298_" class="st50" d="M21.8,79.9c0,0-7-8.8-3.8-15.6c3.2-6.8,8-10.5,11.7-10.7C33.5,53.4,16.3,59.6,21.8,79.9"/>
	<path id="XMLID_5297_" class="st46" d="M41.6,103c0,0,6.1,4,9.4,4.9c3.4,1,11.9-1.8,17.6-4.5c5.8-2.7,18.2-9.7,11.8-31.1
		C80.4,72.3,60.3,79.1,41.6,103"/>
	<path id="XMLID_5296_" class="st48" d="M82.2,71.6c0,0-20.4,9.9-25.6,26.6c0,0,1.9-15.3,8.4-21C71.6,71.4,77.3,66.7,82.2,71.6"/>
	<path id="XMLID_5295_" class="st48" d="M22.5,87c0,0-4.6,11.3,5.6,15.7c14.1,6,29.7-5.5,28.2-9.6c0,0-16.1,8.5-22.5,5.3
		C28.9,96,24.3,94.2,22.5,87"/>
	<path id="XMLID_5294_" class="st48" d="M43.2,119.8c-0.5,1.5,9.3,0.7,13.5-1.2c4.1-1.9,4.2-3.5,6.5-3.8c2.3-0.2,8.5-1.1,12.6-4.5
		c4.2-3.5,16.5-13.5,13.3-17.5c-3.1-4-14.8,13-20.2,13.5C63.5,106.8,45.5,113.3,43.2,119.8"/>
	<path id="XMLID_5275_" class="st48" d="M58.6,89c0,0,3.1-6.7,2.7-10c-0.4-3.2-2.4-9.1-1.7-11.7c0.7-2.5,2.8-4.7,3.8-7.8
		c1-3,0.4-8.8-0.1-10.5c0,0-8,12.1-8.4,18.7C54.5,74.3,56.6,88.1,58.6,89"/>
	<path id="XMLID_5274_" class="st45" d="M82.5,96.5c-0.1,0.9,11.9-12.6,10.4-29.1c-0.3-3.9-11-23.1-12.1-25.2
		c-5.1-9.4-8.8-6.9-9.9-7.2C69.6,34.8,85.1,77,82.5,96.5"/>
	<path id="XMLID_5273_" class="st48" d="M57.2,83.1c0,0,0.7,0.3-0.1,0.8c-3.7,2.4-16.3,9.4-26.1,7.6c-11.9-2.3-9.5-7.8-9.5-7.8
		S38.3,92,57.2,83.1"/>
	<path id="XMLID_5272_" class="st43" d="M151.1,113.6c0,0-4.9,11.6,8,21.5c12.9,9.9,14.6,3.9,19.2,7.4c4.6,3.4,10.5,10.2,14,9.6
		c3.5-0.6,8.3-7.6,12.5-9.2c4.2-1.6,11.6-2.5,16-10.4c4.4-7.8-0.3-14.4-0.3-14.4L151.1,113.6z"/>
	<path id="XMLID_5271_" class="st44" d="M151.7,111.6c0,0,2.6,11.3,4.8,15.6c2.1,4.2,8.2,13,17,10.7c8.8-2.4,7.6-10,18.1-11.2
		c10.6-1.2,20.8,9,24.1,8.4c3.3-0.7,3.9-16,3.9-16L151.7,111.6z"/>
	<path id="XMLID_5270_" class="st43" d="M139.1,50.7c0,0-8.5-15.6-7-18.9c1.4-3.3,4.9-3.1,7.1-7.2c2.3-4.1,4-18.4,11.1-21.9
		c7.1-3.5,31.6-3.3,36-0.7c4.4,2.6,14.6,16.3,14.6,16.3S175.8,53.1,139.1,50.7"/>
	<path id="XMLID_5269_" class="st44" d="M143.3,50.8c0,0-5.4-8.3-0.4-16.6c5-8.3,8.9-8.4,12.1-12.8c3.2-4.5,8-15.7,14.2-16.2
		c6.2-0.4,25.5,4.4,29,13.6C201.8,28,150.9,53.8,143.3,50.8"/>
	<path id="XMLID_5268_" class="st43" d="M132.6,30.7c0,0-6-3.9-10.9-2c-4.9,1.9-5.4,11.1-7.5,13.4c-2.2,2.4-9.9,4-9.9,12.3
		c0,8.3,0,9.1,1.7,13c1.8,3.9,9.3,7.8,9.8,13.1c0.5,5.3,4.2,16.6,10.6,22.3c6.4,5.7,22.3,11,30,10.2
		C156.5,113.1,139.3,33.2,132.6,30.7"/>
	<path id="XMLID_5267_" class="st44" d="M135.5,43c0,0-14.8,1.6-14.9,14.3c0,12.7,9.3,22.6,9.3,22.6l17.3-1.6
		C147.3,78.3,146.9,47.4,135.5,43"/>
	<path id="XMLID_5266_" class="st43" d="M241.5,113.1c-5.2,4.1-16.9,8.2-30.3,10.4c-15.2,2.5-32.6,2.5-45-2.7
		c-23.3-9.7-18-21.8-23.6-27c0,0-7.5-7.5-12.9-14.6c-4.2-5.5-7.1-10.8-4.1-12.2c6.7-3.1,20.2,18.2,23.9,20.2c3.8,2,5.6,6.4,15.5,8.8
		c9.9,2.3,35.1,12.7,44.2,13c9.1,0.2,33.1,2,37.2-12.6c4.1-14.6-16.3-13.6-16.3-13.6l1.4-1.9c0,0,11-0.5,15.5,4.6
		C251.6,90.4,252.7,104.2,241.5,113.1"/>
	<path id="XMLID_5265_" class="st45" d="M211.3,123.5c-15.2,2.5-32.6,2.5-45-2.7c-23.3-9.7-18-21.8-23.6-27c0,0-7.5-7.5-12.8-14.6
		c1.7-0.7,5.7-1.8,10.3,1c6.1,3.7,9.5,14.9,13.5,16.7c4,1.8,52.3,14.5,54,19C208.7,118.6,210.6,121.2,211.3,123.5"/>
	<path id="XMLID_5264_" class="st46" d="M153.2,88.4c0,0-11.6-4.4-14.9-17.7C135,57.4,143.9,43,143.9,43L153.2,88.4z"/>
	<path id="XMLID_5263_" class="st47" d="M150.9,33.7c0,0,3.9-13.4,8-15.3c4.1-1.9,8.6-3.7,9,1.2c0.4,4.9-1.7,15.3-1.7,15.3
		s-0.4-8.6-4.2-5.9c-3.8,2.7-9.6,11.5-9.6,11.5L150.9,33.7z"/>
	<path id="XMLID_5262_" class="st44" d="M230,81.8c0,0,17,0.2,17.6,8.3c0.6,8.1-0.9,25.1-46.8,18.1c0,0-44.5-9.5-52.5-22.2
		C148.2,86,223.4,94.1,230,81.8"/>
	<path id="XMLID_5261_" class="st3" d="M223.7,90c0,0,7.2,4.9,3.4,9.1c-3.8,4.3-15.7-1.8-15.7-1.8L223.7,90z"/>
	<path id="XMLID_5260_" class="st46" d="M229,83.1c0,0-8.6,13.7-17.6,14.3c-8.9,0.7-24.9-5.1-24.9-5.1S221.6,78.6,229,83.1"/>
	<path id="XMLID_5259_" class="st48" d="M187,90.7c-0.6,1.4,12.5,2,18.3,0c5.8-2.1,9.8-6.9,11.9-6.5c2.2,0.4,3.2,2,5.9,1.8
		c2.8-0.2,9.9-3.8,10-5.4C233.2,78.9,191.3,81.3,187,90.7"/>
	<path id="XMLID_5258_" class="st49" d="M153.1,49.2l3.2-1.1c0,0-8.4,32.7,27.3,42.3l-0.5,1.7c0,0-23.3-4.2-26.5-5.3
		C153.4,85.6,149.2,63.1,153.1,49.2"/>
	<path id="XMLID_5257_" class="st49" d="M179.2,62.5c0,0,10.8,20.4,4.4,30.1c0,0,18.7-10.5,30.5-11.4c0,0-11.1-1.5-18.8-2
		C188.7,78.7,184.2,62.1,179.2,62.5"/>
	<path id="XMLID_5074_" class="st49" d="M194.1,21.3c0,0-15.6-2.5-21.2,14.3C172.9,35.6,189.7,25.9,194.1,21.3"/>
	<path id="XMLID_5072_" class="st46" d="M185.4,26.9c0,0-13.5,5.3-14.8,10.8c-1.2,5.5-1.1,19.1,2.5,20.3c3.6,1.2,8.5,2.5,8.5,2.5
		S181.3,29.7,185.4,26.9"/>
	<path id="XMLID_5071_" class="st43" d="M229.9,80.3c0,0,14.9-14.8,9.9-31.4c0,0,7.5,4.4,9.6,10.7c2.1,6.3-9.3,21.8-10.4,21.7
		L229.9,80.3z"/>
	<path id="XMLID_5069_" class="st44" d="M239.7,48.9c0,0,3,7.2,1.6,12.1c-1.7,6.1-5.8,16.3-11.5,19.5l-13.5,0.7l-1.5-0.5
		C214.8,80.7,231,67.6,239.7,48.9"/>
	<path id="XMLID_5068_" class="st3" d="M181,60.9c0,0,0.6-29.9,17.3-39.9c16.7-9.9,31.9,6.1,34.8,11.1c2.9,5,18.4,22.7-18.2,48.6
		C214.8,80.7,196.9,59.7,181,60.9"/>
	<path id="XMLID_5066_" class="st43" d="M196,21.9c-1.2-1,14.9-10.5,23.9-6.6c9,3.9,9.7,10,12.4,12c2.7,2.1,9.3,5.9,10.4,10
		c1.2,4.1-3.3,15.6-5,16.6c-1.6,1-0.8-0.3-0.8-0.3s3.1-9.3-1.1-16.7c-4.5-8.1-8.6-11.5-17.1-14.5C205.3,17.6,196,21.9,196,21.9"/>
	<path id="XMLID_5065_" class="st50" d="M186.2,43.3c-0.8,1.6,2.2-12.2,8.5-14.7c6.4-2.5,20.6,0.3,21.5,2.5
		C217.2,33.4,195.2,25.1,186.2,43.3"/>
	<path id="XMLID_5061_" class="st50" d="M197.6,38.7c0,0,6.8-3.5,10.3-2c3.5,1.5,5.9,4.6,6.2,7.3C214.1,44,211.7,38,197.6,38.7"/>
	<path id="XMLID_5060_" class="st50" d="M198.3,36.1c0,0-5.8-3-8.9,4.8c-3.1,7.8-4.4,19-2.9,19.5c1.5,0.5,4-12.8,5.3-15.3
		c1.3-2.5-1.4,10.3,2.7,14.4C194.5,59.5,192.1,39.2,198.3,36.1"/>
	<path id="XMLID_5054_" class="st50" d="M196.6,58.7c-0.4,1.1-0.6-12,2.9-15.6c3.5-3.6,7-3.7,9.3-2.3c4.9,2.9,2.9,11.3,0.2,10.5
		c-1.9-0.6,0.7-5.8-2.2-6.6C202.2,43.3,199.4,50.6,196.6,58.7"/>
	<path id="XMLID_5053_" class="st44" d="M225.3,38.8c0,0,8.6,2.2,7.7,8.4c-0.8,6.3-8.6,25.9-20.6,30.8l-16-14.4
		c5.2-4.5,14.4-2.3,19.6-6.8C220.6,53.1,221,42.6,225.3,38.8"/>
	<path id="XMLID_5052_" class="st50" d="M229,39.6c-1.3-0.3,2.1,6,1.2,9.6c-0.9,3.6-2.4,14.4-1.2,14.7C230.3,64.3,240,42.4,229,39.6
		"/>
	<path id="XMLID_5051_" class="st48" d="M222.3,57.1c0,0,2.7,4.6-0.5,9c-3.2,4.5-8.3,12.3-8.3,12.3l1.3,2.2c0,0,15.9-12.2,9.2-25.9
		L222.3,57.1z"/>
	<path id="XMLID_5050_" class="st50" d="M200.8,32.7c0,0,18.2,5.1,17.6,13.4c-0.6,8.3-5.3,17.2-28.8,15.1c0,0,17.4,6.5,28.1,0
		C228.4,54.6,234.1,35.3,200.8,32.7"/>
	<path id="XMLID_5046_" class="st50" d="M200.8,23.7c0,0,12.6-3.7,18.6,2.6c6,6.4,7.9,13.2,6.5,17.3
		C224.4,47.8,225.1,26.6,200.8,23.7"/>
	<path id="XMLID_5045_" class="st46" d="M167.2,35.1c0,0-6.9,4.8-9.4,8.1c-2.5,3.2-3.2,13.6-2.8,21c0.5,7.4,2.6,23.9,28.6,26.2
		C183.6,90.4,184.9,65.7,167.2,35.1"/>
	<path id="XMLID_5043_" class="st48" d="M183.6,92.6c0,0-1.9-26.3-17.7-39.1c0,0,15.7,8.6,19.1,18.2
		C188.4,81.2,190.9,89.4,183.6,92.6"/>
	<path id="XMLID_5042_" class="st48" d="M192.7,21.3c0,0-10.2-9.9-19.3-0.8c-12.6,12.6-6.9,34.5-1.8,34.6c0,0-2.3-21.1,4-26.7
		C180.2,24.4,184.2,20.2,192.7,21.3"/>
	<path id="XMLID_5040_" class="st48" d="M148.3,29.5c-1.4-1.2-4.8,9.8-4.5,15.1c0.3,5.3,2,6.1,1.2,8.7c-0.8,2.6-2.5,9.6-0.6,15.6
		c2,6,7.5,23.7,13.2,22c5.7-1.6-7.7-21.6-5.9-27.8C153.6,57.1,154.4,34.9,148.3,29.5"/>
	<path id="XMLID_5039_" class="st45" d="M156.5,82.1c-0.9-0.5,8.5,18.3,27,23.9c4.4,1.3,29.8-1.9,32.5-2.2c12.4-1.4,11.3-6.5,12-7.6
		C228.8,95,176.4,93.4,156.5,82.1"/>
	<path id="XMLID_5037_" class="st48" d="M181.9,60.5c0,0-0.6,0.6-0.8-0.5c-1-5-3.2-21.7,3.1-31.5c7.6-11.9,12.6-6.9,12.6-6.9
		S180.5,36.4,181.9,60.5"/>
	<path id="XMLID_5036_" class="st51" d="M123.2,135.8c0,0,3.1,6.1,11.8,4.2c8.6-1.9,6.8-4.7,9.8-5.4c3.1-0.7,7.9-0.8,8.9-2.5
		c1-1.7-0.3-6.1,0.6-8.5c0.8-2.3,3-5.7,1.3-10.3c-1.7-4.6-6.1-5-6.1-5L123.2,135.8z"/>
	<path id="XMLID_5034_" class="st52" d="M122.6,134.9c0,0,5.6,2.9,8.2,3.5c2.5,0.6,8.3,1.2,10.4-3.3s-1.5-6.7,1.7-11.5
		c3.2-4.8,11.1-5.5,12-7.1c0.9-1.6-5.3-7.3-5.3-7.3L122.6,134.9z"/>
	<path id="XMLID_5033_" class="st53" d="M92.7,118.7c0,0-9.5-2-10.4-3.7c-0.9-1.8,0.4-3.1-0.5-5.5c-0.9-2.4-6.3-8.1-5.2-12.3
		c1-4.2,9.7-14.3,12.4-15.3c2.6-0.9,11.9-0.4,11.9-0.4S106.7,104.3,92.7,118.7"/>
	<path id="XMLID_5031_" class="st54" d="M94.3,117c0,0-5.4-0.7-7.1-5.7c-1.7-5-0.3-6.7-1.1-9.6c-0.7-2.9-3.7-8.9-1.8-11.6
		c2-2.7,10.8-9.1,15.9-7.3C105.3,84.6,98.2,114.9,94.3,117"/>
	<path id="XMLID_5030_" class="st53" d="M82.1,114.4c0,0-3.7,1.1-4.7,3.8c-1,2.7,2.7,6.1,3,7.9c0.2,1.7-1.8,5.6,1.7,8.5
		c3.5,2.9,3.8,3.2,6,3.8c2.2,0.6,6.5-1.2,8.9,0.5c2.4,1.7,8.4,4.1,13,3.4c4.6-0.7,12.4-5.4,14.8-8.9
		C124.9,133.4,85.5,112.5,82.1,114.4"/>
	<path id="XMLID_5026_" class="st54" d="M88.3,117.5c0,0-4.5,6.8,0.7,11.2c5.3,4.5,12.7,4.1,12.7,4.1l5.4-7.8
		C107.1,125,94.1,114.3,88.3,117.5"/>
	<path id="XMLID_5025_" class="st55" d="M154.8,97.9c-0.1,3.6-2.5,9.9-6.3,16.3c-4.3,7.2-10.4,14.5-17,17.8
		c-12.3,6.3-15.4-0.1-19.6,0.3c0,0-5.8,0.5-10.6,0.2c-3.8-0.2-7-0.9-6.5-2.6c1.1-3.9,14.7-2,16.8-2.9c2.1-0.9,4.6-0.1,9.1-3.4
		c4.5-3.3,17.7-10.2,20.9-13.9c3.3-3.7,12.5-13.1,7.8-20c-4.6-6.9-11.4,2-11.4,2l-0.3-1.2c0,0,3.7-4.7,7.4-4.8
		C148.9,85.8,155,90.1,154.8,97.9"/>
	<path id="XMLID_5024_" class="st56" d="M148.5,114.2c-4.3,7.2-10.4,14.5-17,17.8c-12.3,6.3-15.4-0.1-19.6,0.4c0,0-5.8,0.5-10.6,0.2
		c0.3-1,1.2-3,4-3.9c3.7-1.3,9.6,1.3,11.7,0.2c2.2-1,24.4-16.7,26.9-15.9C145.6,113.5,147.3,113.7,148.5,114.2"/>
	<path id="XMLID_5023_" class="st57" d="M114.9,126.9c0,0-7.3,2.5-14.1-0.8c-6.7-3.3-9.6-12.1-9.6-12.1L114.9,126.9z"/>
	<path id="XMLID_5022_" class="st58" d="M89.8,107.8c0,0-4.2-6.4-3.6-8.7c0.7-2.4,1.5-4.9,3.7-3.3c2.2,1.6,5.8,6.1,5.8,6.1
		s-3.7-2.9-3.9-0.3c-0.2,2.5,1.4,8,1.4,8L89.8,107.8z"/>
	<path id="XMLID_5020_" class="st59" d="M137.7,91.7c0,0,6.1-7.1,9.6-4.4c3.6,2.6,10.1,9.2-8.9,25.9c0,0-19.6,15.2-27.8,14.1
		C110.7,127.3,140.5,98.8,137.7,91.7"/>
	<path id="XMLID_5019_" class="st1" d="M138.9,97.3c0,0,4.6-1.3,5,1.8c0.5,3.1-6.3,5.9-6.3,5.9L138.9,97.3z"/>
	<path id="XMLID_5017_" class="st51" d="M137.9,92.6c0,0,2.7,8.4-0.2,12.4c-2.9,4-10.9,8.6-10.9,8.6S133.4,94.1,137.9,92.6"/>
	<path id="XMLID_5016_" class="st6" d="M126.3,112.8c0.4,0.8,5.2-4.5,6.4-7.7c1.2-3.2,0.5-6.5,1.5-7.3c0.9-0.7,1.9-0.6,2.8-1.9
		c0.9-1.2,1.9-5.5,1.2-6.1C137.6,89.3,123.9,107.7,126.3,112.8"/>
	<path id="XMLID_5012_" class="st51" d="M97.1,112.4l0.6-1.7c0,0,10.7,15,27.3,3.5l0.5,0.8c0,0-9.9,8.3-11.5,9.2
		C112.3,125.1,101.5,118.9,97.1,112.4"/>
	<path id="XMLID_5011_" class="st51" d="M111.8,106.2c0,0,12.3,2.6,14.1,8.8c0,0,2.2-11.5,6-16.7c0,0-4.5,4.1-7.5,7.1
		C121.9,107.9,113.3,103.9,111.8,106.2"/>
	<path id="XMLID_5010_" class="st51" d="M111.8,106.2c0,0,8.2-4.8,10.7-5.4c2.5-0.6,8.4-1,9.4-2.6c0,0-3.2,7.4-7.7,8.8
		C119.7,108.3,111.8,106.2,111.8,106.2"/>
	<path id="XMLID_5009_" class="st51" d="M99.4,86c0,0-6.5,5.6-1.5,13.9C97.9,99.9,99.7,89.5,99.4,86"/>
	<path id="XMLID_5008_" class="st60" d="M99.1,91c0,0-2.6,7.5-0.7,9.9c1.9,2.4,7.6,7.2,9.3,6.1c1.8-1.1,4.1-2.7,4.1-2.7
		S98.8,93.7,99.1,91"/>
	<path id="XMLID_5004_" class="st53" d="M137,91.3c0,0-0.9-11.5-9.6-15.2c0,0,4.5-1.6,7.8-0.2c3.3,1.3,5.8,11.6,5.4,12L137,91.3z"/>
	<path id="XMLID_5003_" class="st61" d="M127.4,76.1c0,0,4,1.3,5.6,3.6c2,2.9,4.7,8.2,4.1,11.7l-4.4,5.9l-0.7,0.5
		C131.9,97.7,132.1,86.3,127.4,76.1"/>
	<path id="XMLID_5002_" class="st1" d="M111.7,104.8c0,0-12.3-10.8-10.6-21.2c1.7-10.5,13.8-11.2,16.9-10.6
		c3.1,0.6,16,0.3,13.9,24.7C131.9,97.7,116.8,97.8,111.7,104.8"/>
	<path id="XMLID_5001_" class="st62" d="M100.7,84.8c-0.8,0.1,0.8-9.9,5.7-12.3c4.8-2.4,7.6-0.6,9.4-1c1.8-0.4,5.7-1.8,7.8-0.8
		c2.1,0.9,5.4,6.9,5.2,7.9c-0.2,1-0.4,0.3-0.4,0.3s-2.8-4.5-7.3-5.4c-5-1-7.8-0.4-12.1,2C102.2,79.5,100.7,84.8,100.7,84.8"/>
	<path id="XMLID_5000_" class="st63" d="M106.2,96.5c0.4,0.9-4.3-5.2-3.1-8.7c1.2-3.5,7.4-8.5,8.6-8.1C113,80,101.8,86.3,106.2,96.5
		"/>
	<path id="XMLID_4998_" class="st6" d="M108.3,90.1c0,0,0.9-4.1,2.8-5c1.9-1,4-0.9,5.2,0C116.3,85.1,113,83.9,108.3,90.1"/>
	<path id="XMLID_4997_" class="st64" d="M107.5,88.9c0,0-3.3,1.4-1.1,5.4c2.1,4.1,6.4,8.5,7.1,8.1c0.7-0.5-3.9-6.2-4.5-7.6
		c-0.6-1.4,3.8,4.2,6.9,3.9C115.9,98.7,106.6,92.5,107.5,88.9"/>
	<path id="XMLID_4993_" class="st65" d="M116.3,97.5c0.3,0.6-5.2-4-5.5-6.7c-0.3-2.7,0.9-4.2,2.3-4.7c2.9-1,5.7,2.8,4.5,3.6
		c-0.9,0.6-2.2-2.3-3.6-1.4C111.8,89.8,113.9,93.5,116.3,97.5"/>
	<path id="XMLID_4992_" class="st66" d="M118.1,78.5c0,0,3.9-2.8,6.2-0.3c2.3,2.6,7.8,12.7,5.6,19.4l-11.6,1.6
		c0-3.8,4.1-6.8,4.1-10.6C122.4,85.6,118.1,81.7,118.1,78.5"/>
	<path id="XMLID_4991_" class="st6" d="M119.7,77.3c-0.6,0.4,3.2,1.3,4.4,2.9c1.2,1.6,5.1,6.1,5.7,5.7
		C130.5,85.5,124.8,73.7,119.7,77.3"/>
	<path id="XMLID_4990_" class="st6" d="M124.7,86.3c0,0,2.9,0.5,3.6,3.4c0.7,2.9,2.2,7.8,2.2,7.8l1.4,0.3c0,0,0.5-10.9-7.6-12.9
		L124.7,86.3z"/>
	<path id="XMLID_4989_" class="st6" d="M106.9,86.6c0,0,8.6-5.8,11.8-2.6c3.2,3.2,5.3,8.3-3.8,17.4c0,0,8.9-5,9.9-11.7
		C125.8,82.8,119.7,73.7,106.9,86.6"/>
	<path id="XMLID_4987_" class="st63" d="M103.2,83.5c0,0,2.9-6.6,7.6-6.8c4.8-0.3,8.3,1.3,9.5,3.4C121.5,82.1,112.9,74.4,103.2,83.5
		"/>
	<path id="XMLID_4986_" class="st51" d="M96.1,101.5c0,0-0.4,4.6,0.1,6.8c0.5,2.2,4.5,6.1,7.8,8.5c3.3,2.4,10.9,7.3,21-2.7
		C125,114.1,115.1,104.9,96.1,101.5"/>
	<path id="XMLID_4984_" class="st6" d="M125.9,114.9c0,0-11.7-8.5-22.6-6.4c0,0,9.1-3.5,14.3-1.6
		C122.8,108.9,127.1,110.7,125.9,114.9"/>
	<path id="XMLID_4983_" class="st40" d="M99.4,86c0,0-7.7,0.8-7.1,7.8c0.8,9.7,12,15,13.8,12.9c0,0-9.6-6.5-9.7-11.1
		C96.2,92.3,95.9,89.2,99.4,86"/>
	<path id="XMLID_4979_" class="st6" d="M87.1,107.4c-1,0.2,2.4,5.5,4.7,7.2c2.3,1.7,3.2,1.3,4.1,2.5c0.8,1.2,3.1,4.4,6.3,5.7
		c3.2,1.3,12.5,5.2,13.8,2.2c1.3-2.9-11.7-4.4-13.6-7.3C100.5,114.9,91.5,106.8,87.1,107.4"/>
	<path id="XMLID_4978_" class="st6" d="M109.1,106.9c0,0,4.7-0.3,6.4-1.5c1.7-1.2,4.4-4.1,6-4.5c1.6-0.4,3.5,0.2,5.5-0.2
		c2-0.4,5.1-2.4,5.9-3.2c0,0-9.2-0.9-13,0.9C116.1,100.2,108.9,105.5,109.1,106.9"/>
	<path id="XMLID_4977_" class="st6" d="M112,122.5c-0.5,0.2,10.6,2.9,19.5-2.9c2.1-1.4,9.7-13.1,10.5-14.3c3.8-5.7,1.3-7,1.1-7.7
		C142.8,96.8,123.7,118.2,112,122.5"/>
	<path id="XMLID_4976_" class="st6" d="M111.9,104.3c0,0,0,0.5-0.5,0.2c-2.4-1.3-10.2-6.3-12.1-12.4c-2.3-7.4,1.6-7.7,1.6-7.7
		S101.3,96.4,111.9,104.3"/>
</g>
</svg>
