<?xml version="1.0" encoding="utf-8"?>
<!-- Generator: Adobe Illustrator 19.2.1, SVG Export Plug-In . SVG Version: 6.00 Build 0)  -->
<svg version="1.1" id="Capa_1" xmlns="http://www.w3.org/2000/svg" xmlns:xlink="http://www.w3.org/1999/xlink" x="0px" y="0px"
	 width="765px" height="126.4px" viewBox="0 0 765 126.4" style="enable-background:new 0 0 765 126.4;" xml:space="preserve">
<style type="text/css">
	.st0{fill:#1D1D1B;}
	.st1{fill:#FFB547;}
	.st2{fill:#65CBC9;}
	.st3{fill:#007573;}
	.st4{fill:#222944;}
	.st5{fill:none;stroke:#1D1D1B;stroke-width:4.4983;stroke-miterlimit:10;}
	.st6{fill:#FFFFFF;}
	.st7{fill:#3C3C3B;}
	.st8{fill:none;stroke:#1D1D1B;stroke-miterlimit:10;}
	.st9{fill:#6F6F6E;}
	.st10{fill:#79A5B1;}
	.st11{fill:#74C1C2;}
	.st12{fill:#169595;}
	.st13{fill:#95CECD;}
	.st14{fill:#6DC2C2;}
	.st15{fill:#83C3C2;}
	.st16{fill:#076F6E;}
	.st17{fill:#B1DBD9;}
	.st18{fill:#049192;}
	.st19{fill:#C5E2E4;}
	.st20{fill:#F5EBD9;}
	.st21{fill:#EAD3AF;}
	.st22{fill:#F9E5CD;}
	.st23{fill:#E9D2AD;}
	.st24{fill:#F5E6CC;}
	.st25{fill:#F8F0E6;}
	.st26{fill:#FAEFDB;}
	.st27{fill:#F6E8D9;}
	.st28{fill:#EAD2AD;}
	.st29{fill:#DAB989;}
	.st30{fill:#F7E9DA;}
	.st31{fill:#F8EADA;}
	.st32{fill:#FAE9DA;}
	.st33{fill:#FBF8EB;}
	.st34{fill:#EDD4AF;}
	.st35{fill:#F2E4C6;}
	.st36{fill:#FCFBF3;}
	.st37{fill:#F5ECE0;}
	.st38{fill:#F6E9DC;}
	.st39{fill:#EDD3AD;}
	.st40{fill:#FFFFFD;}
	.st41{fill:#FFFFFF;stroke:#222944;stroke-width:0.25;stroke-miterlimit:10;}
	.st42{fill:#65AEAB;}
	.st43{fill:#82BCB9;}
	.st44{fill:#008C89;}
	.st45{fill:#9CCAC7;}
	.st46{fill:#7EBBB7;}
	.st47{fill:#89C0BD;}
	.st48{fill:#B9D9D6;}
	.st49{fill:#008885;}
	.st50{fill:#C9E1DF;}
	.st51{fill:#FFEACC;}
	.st52{fill:#FFD290;}
	.st53{fill:#FFE6C2;}
	.st54{fill:#FFD08C;}
	.st55{fill:#FFE5C0;}
	.st56{fill:#FFF0DA;}
	.st57{fill:#FFEED6;}
	.st58{fill:#FFE9C8;}
	.st59{fill:#FFD18E;}
	.st60{fill:#FFF6E8;}
	.st61{fill:#FFD394;}
	.st62{fill:#FFE2B9;}
	.st63{fill:#FFFBF5;}
	.st64{fill:#FFEBCD;}
	.st65{fill:#FFE9C9;}
	.st66{fill:#FFD292;}
	.st67{fill:#74768A;}
	.st68{fill:#8C8E9E;}
	.st69{fill:#333953;}
	.st70{fill:#A4A4B1;}
	.st71{fill:#8A8B9C;}
	.st72{fill:#9395A4;}
	.st73{fill:#BDBDC7;}
	.st74{fill:#313751;}
	.st75{fill:#CBCBD2;}
	.st76{fill:#D9F1EF;}
	.st77{fill:#A7E0DD;}
	.st78{fill:#CFEEEC;}
	.st79{fill:#A4DFDC;}
	.st80{fill:#CEEDEB;}
	.st81{fill:#E4F5F3;}
	.st82{fill:#DFF3F2;}
	.st83{fill:#D6F0EE;}
	.st84{fill:#A6DFDD;}
	.st85{fill:#EFF9F7;}
	.st86{fill:#ABE1DF;}
	.st87{fill:#C9EBE9;}
	.st88{fill:#F9FCFB;}
	.st89{fill:#DAF1EF;}
	.st90{fill:#A9E0DE;}
	.st91{fill:#FFD08B;}
	.st92{fill:#FFD8A0;}
	.st93{fill:#FFBB57;}
	.st94{fill:#FFE0B2;}
	.st95{fill:#FFD79D;}
	.st96{fill:#FFDAA6;}
	.st97{fill:#FFBA55;}
	.st98{fill:#FFEDD3;}
	.st99{fill:#BCDBD8;}
	.st100{fill:#ACD2CF;}
	.st101{fill:#5FABA8;}
	.st102{fill:#AAD1CE;}
	.st103{fill:#CFE4E2;}
	.st104{fill:#C7E0DE;}
	.st105{fill:#B7D8D5;}
	.st106{fill:#E4EFEE;}
	.st107{fill:#6AB1AE;}
	.st108{fill:#9FCBC8;}
	.st109{fill:#F3F8F6;}
	.st110{fill:none;stroke:#6F6F6E;stroke-width:0.25;stroke-miterlimit:10;}
	.st111{clip-path:url(#XMLID_4213_);}
	.st112{fill:none;stroke:#FFB547;stroke-miterlimit:10;}
	.st113{fill:#FFFCF3;}
	.st114{fill-rule:evenodd;clip-rule:evenodd;fill:#1D1D1B;}
</style>
<g id="XMLID_5368_">
	<path id="XMLID_5373_" class="st1" d="M207.5,54.5c6.4,8.2,13.9,15,22.5,20.6c8.6,5.6,17.7,9.8,27.2,12.8c9.5,3,18.2,4.6,26,4.7
		c1.4,0.4,2.4,0.4,3.1-0.2c0.7-0.6-0.3-1.3-3-2.2c-7.3-0.9-15.5-3.9-24.7-9.1c-9.2-5.2-18-11.2-26.3-18.1
		c-8.3-6.9-15.4-13.8-21.3-20.5c-5.9-6.8-9.1-12.4-9.8-16.9c-0.4-2.5-0.2-5.8,0.5-9.8c0.7-4,3.9-6.4,9.7-7.3
		c5.4-0.8,11.1,0,17.2,2.4c6,2.4,9.4,5.6,10,9.8c1.3,8.6,0.9,14.8-0.9,18.7c-1.9,3.8-2.3,5.7-1.4,5.6c2.2-0.3,4.1-3.4,5.7-9.4
		c1.6-5.9,2-11.3,1.3-16c-1.2-8.3-5-13.8-11.4-16.6c-6.4-2.8-13.6-3.6-21.6-2.5c-4.8,0.7-8.7,3-11.9,6.9c-3.2,3.9-4.2,9.9-2.9,18.2
		C197.1,36.7,201.1,46.4,207.5,54.5z"/>
	<path id="XMLID_5372_" class="st1" d="M288.5,122.2c-6.4,0.6-13.6-0.4-21.6-2.9c-8-2.6-16.5-5.9-25.6-9.9c-9-4-18.5-8.4-28.2-13.2
		c-9.8-4.7-19.5-9-29.2-12.8c-9.7-3.8-19.2-6.8-28.6-9c-9.4-2.2-18.4-2.7-27-1.4c-3.2,0.5-6.8,1.5-10.8,3c-4,1.6-8,3.6-12,6.1
		c-4,2.5-7.8,5.5-11.4,9c-3.6,3.4-6.3,7.3-8.3,11.5c-0.4,1.7-0.1,2.6,0.9,2.8c1,0.2,2.2-0.3,3.7-1.5c8.4-13.9,21.5-22.1,39.3-24.8
		c8-1.2,18.1,0.9,30.4,6.3c12.3,5.3,25.8,11.3,40.4,18c14.6,6.6,29.8,12.5,45.5,17.5c15.7,5,30.7,6.6,45.1,4.9
		c1.1-1.1,1.4-2.1,0.8-2.8C291.2,122.2,290.1,121.9,288.5,122.2z"/>
	<path id="XMLID_5371_" class="st1" d="M481.8,92.7c7.8-0.2,16.5-1.7,26-4.7c9.5-3,18.6-7.3,27.2-12.8c8.6-5.6,16.1-12.4,22.5-20.6
		c6.4-8.2,10.4-17.8,12-29c1.2-8.3,0.2-14.3-2.9-18.2c-3.2-3.9-7.1-6.2-11.9-6.9c-8-1.2-15.1-0.3-21.6,2.5
		c-6.4,2.8-10.2,8.3-11.4,16.6c-0.7,4.8-0.3,10.1,1.3,16c1.6,5.9,3.5,9,5.7,9.4c1,0.1,0.5-1.7-1.4-5.6c-1.9-3.8-2.2-10.1-0.9-18.7
		c0.6-4.1,3.9-7.4,10-9.8c6-2.4,11.8-3.2,17.2-2.4c5.7,0.8,8.9,3.3,9.7,7.3c0.7,4,0.9,7.3,0.5,9.8c-0.7,4.5-3.9,10.1-9.8,16.9
		c-5.9,6.8-13,13.6-21.3,20.5c-8.3,6.9-17.1,12.9-26.3,18.1c-9.2,5.2-17.4,8.2-24.7,9.1c-2.7,0.9-3.7,1.6-3,2.2
		C479.4,93.1,480.4,93.2,481.8,92.7z"/>
	<path id="XMLID_5370_" class="st1" d="M753.2,48.3c-9.5-9.7-25.2-16.1-47.1-19.3c-17.2-2.5-33.9-2-50.2,1.4
		c-16.3,3.5-32.2,8.5-47.8,15c-15.6,6.5-31,13.9-46.4,22.2c-15.4,8.3-30.7,16.1-46.1,23.3c-18.5,8.7-36.9,15.3-55.1,20
		c-18.2,4.6-36.9,5.6-56,2.8c-4-0.6-8.5-1.7-13.7-3.3c1.3-0.5,2.6-1.1,3.8-1.7c10-4.7,18.1-9.8,24.1-15.2c6-5.4,10.2-10.8,12.5-16.2
		c2.3-5.4,3.2-9.8,2.7-13.3c-0.7-2.8-1.7-4.8-2.8-5.9c-1.1-1.1-3.6-1.4-7.4-0.9c-2.5,0.4-4.4,1.8-5.5,4.2c-1.1,2.4-1.8,5-2.1,7.6
		c-0.3,2.6-0.4,5.1-0.4,7.4c0,2.3,0,3.6,0.1,3.9c0.5,3.5-1.2,7.1-5.3,10.8c-4,3.7-9,7.1-14.8,10.2c-4.3,2.3-8.7,4.3-13.4,6.1
		c-4.6-1.8-9.1-3.9-13.4-6.1c-5.9-3.1-10.8-6.5-14.8-10.2c-4-3.7-5.8-7.3-5.3-10.8c0-0.3,0.1-1.6,0.1-3.9c0-2.3-0.1-4.7-0.4-7.4
		c-0.3-2.6-1-5.2-2.1-7.6c-1.1-2.4-2.9-3.8-5.5-4.2c-3.8-0.6-6.3-0.3-7.4,0.9c-1.1,1.1-2.1,3.1-2.8,5.9c-0.5,3.5,0.4,7.9,2.7,13.3
		c2.3,5.4,6.5,10.8,12.5,16.2c6,5.4,14.1,10.5,24.1,15.2c1.2,0.6,2.5,1.1,3.8,1.7c-5.1,1.6-9.7,2.8-13.7,3.3
		c-19.1,2.8-37.8,1.9-56-2.8c-18.2-4.6-36.6-11.3-55.1-20c-15.3-7.2-30.7-14.9-46.1-23.3c-15.4-8.3-30.8-15.7-46.4-22.2
		c-15.6-6.5-31.5-11.5-47.8-15c-16.3-3.5-33-4-50.2-1.4c-22,3.2-37.7,9.6-47.1,19.3C2.4,58-1.4,69.3,0.5,82.4
		c1,6.7,3.3,12.3,6.8,16.8c3.6,4.5,7.7,8.1,12.3,10.9c4.6,2.7,9.5,4.6,14.7,5.6c5.2,1,9.7,1.3,13.5,0.7c1.9-0.3,1.3-0.8-1.9-1.7
		c-3.2-0.8-7.3-2.5-12.2-5c-4.9-2.5-9.8-6-14.7-10.3c-4.9-4.3-7.8-10.2-8.9-17.5c-0.6-3.8-0.4-8.2,0.5-13.2c0.9-5,2.7-9.7,5.5-14.2
		c2.8-4.5,6.7-8.5,11.9-12.2c5.1-3.7,11.5-6.1,19.2-7.2c16.9-2.5,33.4-1.9,49.5,1.8c16.1,3.7,32.3,8.9,48.4,15.8
		c16.1,6.9,32.3,14.7,48.5,23.4c16.2,8.7,33,16.5,50.2,23.4c17.7,7.5,35.8,13.4,54.3,17.7c18.5,4.3,38.3,4.9,59.3,1.8
		c9.4-1.4,17.8-3.2,25.2-5.6c7.4,2.4,15.8,4.2,25.2,5.6c21,3.1,40.8,2.5,59.3-1.8c18.5-4.3,36.6-10.2,54.3-17.7
		c17.3-6.9,34-14.7,50.2-23.4c16.2-8.7,32.4-16.5,48.5-23.4c16.1-6.9,32.2-12.2,48.4-15.8c16.1-3.7,32.6-4.3,49.5-1.8
		c7.6,1.1,14,3.5,19.2,7.2c5.1,3.7,9.1,7.7,11.9,12.2c2.8,4.5,4.6,9.2,5.5,14.2c0.9,5,1.1,9.4,0.5,13.2c-1.1,7.3-4,13.1-8.9,17.5
		c-4.9,4.3-9.7,7.8-14.7,10.3c-4.9,2.5-9,4.2-12.2,5c-3.2,0.8-3.9,1.4-1.9,1.7c3.8,0.6,8.3,0.3,13.5-0.7c5.2-1,10.1-2.9,14.7-5.6
		c4.6-2.7,8.7-6.4,12.3-10.9c3.6-4.5,5.9-10.1,6.8-16.8C766.5,69.3,762.7,58,753.2,48.3z"/>
	<path id="XMLID_5369_" class="st1" d="M670.9,91.1c-3.6-3.4-7.3-6.4-11.4-9c-4-2.5-8-4.6-12-6.1c-4-1.6-7.6-2.6-10.8-3
		c-8.6-1.3-17.6-0.8-27,1.4c-9.4,2.2-19,5.2-28.6,9c-9.7,3.8-19.4,8.1-29.2,12.8c-9.8,4.7-19.2,9.1-28.2,13.2
		c-9,4-17.6,7.3-25.6,9.9c-8,2.6-15.2,3.5-21.6,2.9c-1.6-0.2-2.7,0-3.3,0.7c-0.6,0.7-0.3,1.7,0.8,2.8c14.4,1.8,29.4,0.2,45.1-4.9
		c15.7-5,30.8-10.9,45.5-17.5c14.6-6.6,28.1-12.6,40.4-18c12.3-5.3,22.5-7.4,30.4-6.3c17.8,2.6,30.9,10.9,39.3,24.8
		c1.5,1.2,2.7,1.7,3.7,1.5c1-0.2,1.3-1.1,0.9-2.8C677.2,98.4,674.5,94.5,670.9,91.1z"/>
</g>
</svg>
