<?xml version="1.0" encoding="utf-8"?>
<!-- Generator: Adobe Illustrator 19.2.1, SVG Export Plug-In . SVG Version: 6.00 Build 0)  -->
<svg version="1.1" id="Capa_1" xmlns="http://www.w3.org/2000/svg" xmlns:xlink="http://www.w3.org/1999/xlink" x="0px" y="0px"
	 width="221.2px" height="154.6px" viewBox="0 0 221.2 154.6" style="enable-background:new 0 0 221.2 154.6;" xml:space="preserve"
	>
<style type="text/css">
	.st0{fill:#65CBC9;}
	.st1{fill:#FFFFFF;}
	.st2{fill:#FFD79D;}
	.st3{fill:#FFD08B;}
	.st4{fill:#FFD8A0;}
	.st5{fill:#FFBB57;}
	.st6{fill:#FFE0B2;}
	.st7{fill:#FFDAA6;}
	.st8{fill:#FFB547;}
	.st9{fill:#FFE9C8;}
	.st10{fill:#FFBA55;}
	.st11{fill:#FFEDD3;}
	.st12{fill:#BCDBD8;}
	.st13{fill:#65AEAB;}
	.st14{fill:#ACD2CF;}
	.st15{fill:#5FABA8;}
	.st16{fill:#AAD1CE;}
	.st17{fill:#CFE4E2;}
	.st18{fill:#C7E0DE;}
	.st19{fill:#B7D8D5;}
	.st20{fill:#007573;}
	.st21{fill:#E4EFEE;}
	.st22{fill:#6AB1AE;}
	.st23{fill:#9FCBC8;}
	.st24{fill:#F3F8F6;}
	.st25{fill:#FFFFFD;}
</style>
<g>
	<g>
		<path id="XMLID_940_" class="st0" d="M109.9,0L32.6,77.3l77.3,77.3l77.3-77.3L109.9,0z M142.4,97.5c0.4,0,0.7,0.3,0.7,0.7v0.5
			c0,0.4-0.3,0.7-0.7,0.7h-25.9c-0.4,0-0.7-0.3-0.7-0.7v-0.5c0-0.4,0.3-0.7,0.7-0.7h5.4V61.6l-13.2,37.3c-0.1,0.3-0.4,0.5-0.7,0.5
			h-0.5c-1.1,0-2.1-0.8-3.3-2.3c-1-1.4-2.1-3.2-3.2-5.4c-1.1-2.2-2.3-4.7-3.5-7.4c-1.2-2.7-2.4-5.5-3.6-8.1
			c-1.2-2.7-2.4-5.3-3.6-7.7c-0.2-0.4-0.4-0.8-0.6-1.1c-0.5-0.9-0.9-1.7-1.3-2.5v30.5c0,0.6,0.2,1.5,0.6,1.9
			c0.3,0.3,0.9,0.3,1.4,0.3c0.1,0,0.3,0,0.4,0s0.2,0,0.3,0h3.3c0.4,0,0.7,0.3,0.7,0.7v0.5c0,0.4-0.3,0.7-0.7,0.7H79.8
			c-0.4,0-0.7-0.3-0.7-0.7v-0.5c0-0.4,0.3-0.7,0.7-0.7h3.5c0.6,0,1.1-0.2,1.6-0.6c0.4-0.4,0.6-0.9,0.6-1.6V61.6
			c-0.3-0.4-0.6-0.7-0.9-1S84,60,83.7,59.8c-0.4-0.3-0.7-0.6-1-0.8c-0.4-0.3-0.7-0.6-1.1-0.8c-0.8-0.4-1.6-0.6-2.2-0.8
			c-0.7-0.2-1.4-0.3-2-0.3c-0.4,0-0.7-0.3-0.7-0.7v-0.5c0-0.4,0.3-0.7,0.7-0.7h11.9c1.1,0,2.3,0.2,3.5,0.4c1,0.2,2.2,0.6,3.4,1.1
			c1.2,0.5,2.5,1.3,3.7,2.2c1.2,1.1,2.3,2.4,3.3,3.9s1.9,3.2,2.8,4.9c0.9,1.7,1.7,3.5,2.4,5.2c0.7,1.8,1.4,3.4,2,4.9
			c0.5,1.2,0.9,2.4,1.3,3.4c1.3-2.9,6.2-16.5,9.5-25.7c0.2-0.5,1.5-0.5,1.6-0.5h19.7c0.4,0,0.7,0.3,0.7,0.7v0.5
			c0,0.4-0.3,0.7-0.7,0.7H137v40.3h5.4V97.5z"/>
		<path id="XMLID_941_" class="st1" d="M142.4,97.5c0.4,0,0.7,0.3,0.7,0.7v0.5c0,0.4-0.3,0.7-0.7,0.7h-25.9c-0.4,0-0.7-0.3-0.7-0.7
			v-0.5c0-0.4,0.3-0.7,0.7-0.7h5.4V61.6l-13.2,37.3c-0.1,0.3-0.4,0.5-0.7,0.5h-0.5c-1.1,0-2.1-0.8-3.3-2.3c-1-1.4-2.1-3.2-3.2-5.4
			c-1.1-2.2-2.3-4.7-3.5-7.4c-1.2-2.7-2.4-5.5-3.6-8.1c-1.2-2.7-2.4-5.3-3.6-7.7c-0.2-0.4-0.4-0.8-0.6-1.1c-0.5-0.9-0.9-1.7-1.3-2.5
			v30.5c0,0.6,0.2,1.5,0.6,1.9c0.3,0.3,0.9,0.3,1.4,0.3c0.1,0,0.3,0,0.4,0c0.1,0,0.2,0,0.3,0h3.3c0.4,0,0.7,0.3,0.7,0.7v0.5
			c0,0.4-0.3,0.7-0.7,0.7H79.8c-0.4,0-0.7-0.3-0.7-0.7v-0.5c0-0.4,0.3-0.7,0.7-0.7h3.5c0.6,0,1.1-0.2,1.6-0.6
			c0.4-0.4,0.6-0.9,0.6-1.6V61.6c-0.3-0.4-0.6-0.7-0.9-1c-0.3-0.3-0.6-0.6-0.9-0.8c-0.4-0.3-0.7-0.6-1-0.8c-0.4-0.3-0.7-0.6-1.1-0.8
			c-0.8-0.4-1.6-0.6-2.2-0.8c-0.7-0.2-1.4-0.3-2-0.3c-0.4,0-0.7-0.3-0.7-0.7v-0.5c0-0.4,0.3-0.7,0.7-0.7h11.9c1.1,0,2.3,0.2,3.5,0.4
			c1,0.2,2.2,0.6,3.4,1.1c1.2,0.5,2.5,1.3,3.7,2.2c1.2,1.1,2.3,2.4,3.3,3.9c1,1.5,1.9,3.2,2.8,4.9c0.9,1.7,1.7,3.5,2.4,5.2
			c0.7,1.8,1.4,3.4,2,4.9c0.5,1.2,0.9,2.4,1.3,3.4c1.3-2.9,6.2-16.5,9.5-25.7c0.2-0.5,1.5-0.5,1.6-0.5h19.7c0.4,0,0.7,0.3,0.7,0.7
			v0.5c0,0.4-0.3,0.7-0.7,0.7H137v40.3H142.4z"/>
	</g>
	<g>
		<g id="XMLID_821_">
			<path id="XMLID_939_" class="st2" d="M198,93.4c0,0-3,8.5-4.3,10.5c-1.4,2-5.4,5.9-5.2,7.6c0,0-2.2-7.4,0.2-11.1
				C191.1,96.7,198,93.4,198,93.4"/>
			<path id="XMLID_938_" class="st3" d="M159.5,29.9c0.7,0.9,1.4,1.8,2,2.8c0.3,0.5,0.7,1.4,1.1,2.7c-1-0.5-6.6-3.4-7-0.6
				c-0.4,3.1,2.6,4.3,7.4,1.9c0.5,1.6,1,3.6,1.4,5.6c-1.5-0.7-6.4-2.8-7.7-1.4c-1.6,1.8-0.2,3.3,1.3,3.8c3.2,1.1,6-0.6,6.7-1.1
				c0.5,2.1,0.9,4.2,1.3,6.2c-0.9-0.7-5.9-4.7-7.1-2.6c-1.3,2.3-0.6,7.3,7.5,4.5c0.1,0.5,0.2,1.1,0.3,1.6c0.3,1.6,0.9,3.3,1.6,5.2
				c0,0-7.4-5.4-9-3.8c-1.6,1.7-1.7,3,1,4c2.8,1,8.6,1.2,8.6,1.2c0.8,2,1.8,3.9,2.7,5.7c0,0-8-2.6-9,0.6s0.9,4.7,3,4.4
				c2.1-0.3,6.9-3.3,6.9-3.3c1.1,2.1,2.1,3.7,2.6,4.4c0,0-5.7,0.1-5.8,2.4c-0.1,2.2,1.1,3.6,2.7,2.7c1.7-0.9,4.2-3.8,4.2-3.8
				c1.7,1.7,4,3,4,3c1.3-0.4-1-1.4-3.4-4.1l0,0c0,0,3.7-1.1,5.4-3s-0.8-3.3-2.6-3.7c-1.6-0.3-3.3,4.4-3.7,5.6
				c-0.9-1.2-1.8-2.6-2.6-4.3c0,0,4.1-1.6,5.9-4.2c1.7-2.6,1.4-4-1.5-4.3c-2.8-0.2-5.1,7.2-5.1,7.2c-1-2-1.9-4.1-2.7-6.3
				c0.8-0.2,4.3-1.4,6.1-3.2c2-2,1.9-4.5-1.9-4c-3.4,0.5-4.3,5.1-4.5,6.1c-0.6-1.6-1.1-3.2-1.5-4.6c-0.1-0.2-0.1-0.4-0.2-0.7
				c0,0,3.7-1.8,6-3.7c2.3-2,0.1-4.8-3-3.9c-3.1,1-3.4,6.2-3.4,6.2c-0.5-2-1.2-5-1.9-7.8c0,0,4.2-0.6,6-2s0.8-4.4-2-4.2
				c-2.9,0.2-4.2,5.3-4.2,5.3c-0.7-2.7-1.3-5.3-1.7-6.9c0,0,4.3-1.8,5.7-3.3s1.2-3.7-1.6-3.7c-2.8-0.1-4.3,6.4-4.3,6.4
				c-0.1-0.3-0.2-0.6-0.2-0.8c-0.5-1.5-1.4-3-2.2-4.5l0,0c0,0,7.4-1.8,4-5.5c-3.1-3.3-4.4,2.9-4.6,4.2c-0.1-0.4-0.3-0.7-0.4-1.1
				c-1-3.4-3.2-5.9-5.2-4.7c-1.9,1.2-0.2,3.5,0.9,4.1c1.4,0.9,2.1,1.4,2.8,2.2c-1.3-0.3-7.3-1.8-6.6,1.7
				C152.8,34.5,156.8,34.2,159.5,29.9"/>
			<path id="XMLID_937_" class="st3" d="M156.4,122.1c-0.7,0.8-1.4,1.3-2.8,2.2c-1.1,0.7-2.8,2.9-0.9,4.1c1.9,1.2,4.2-1.2,5.2-4.7
				c0.1-0.4,0.2-0.8,0.4-1.1c0.2,1.2,1.5,7.5,4.6,4.2c3.5-3.7-4-5.5-4-5.5l0,0c0.8-1.6,1.8-3,2.2-4.5c0.1-0.2,0.1-0.4,0.2-0.8
				c0,0,1.5,6.5,4.3,6.4s2.9-2.2,1.6-3.7c-1.4-1.5-5.7-3.3-5.7-3.3c0.4-1.6,1.1-4.2,1.7-6.9c0,0,1.3,5.1,4.2,5.3
				c2.9,0.2,3.8-2.8,2-4.2c-1.8-1.4-6-2-6-2c0.7-2.9,1.4-5.8,1.9-7.8c0,0,0.3,5.2,3.4,6.2c3.1,1,5.3-1.9,3-3.9s-6-3.7-6-3.7
				c0.1-0.3,0.1-0.5,0.2-0.7c0.4-1.5,0.9-3,1.5-4.6c0.2,1,1.2,5.6,4.5,6.1c3.8,0.5,3.9-1.9,1.9-4c-1.8-1.8-5.3-2.9-6.1-3.2
				c0.8-2.1,1.7-4.3,2.7-6.3c0,0,2.2,7.4,5.1,7.2c2.8-0.2,3.2-1.7,1.5-4.3c-1.7-2.6-5.8-4.2-5.9-4.2c0.9-1.6,1.7-3.1,2.6-4.3
				c0.4,1.2,2.2,5.9,3.7,5.6c1.8-0.4,4.2-1.8,2.6-3.7c-1.7-1.9-5.4-3-5.4-3l0,0c2.4-2.7,4.6-3.7,3.4-4.1c0,0-2.2,1.3-4,3
				c0,0-2.5-2.9-4.2-3.8s-2.8,0.4-2.7,2.7c0.1,2.2,5.8,2.4,5.8,2.4c-0.5,0.7-1.5,2.3-2.6,4.4c0,0-4.8-2.9-6.9-3.3
				c-2.1-0.3-4,1.2-3,4.4c1,3.2,9,0.6,9,0.6c-0.9,1.8-1.8,3.7-2.7,5.7c0,0-5.8,0.1-8.6,1.2c-2.8,1-2.6,2.4-1,4c1.6,1.7,9-3.7,9-3.8
				c-0.7,1.8-1.3,3.6-1.6,5.2c-0.1,0.5-0.2,1-0.3,1.6c-8.1-2.8-8.8,2.2-7.5,4.5c1.2,2.1,6.3-1.9,7.1-2.6c-0.4,1.9-0.9,4.1-1.3,6.2
				c-0.7-0.5-3.5-2.2-6.7-1.1c-1.5,0.5-2.9,2.1-1.3,3.8c1.3,1.5,6.2-0.6,7.7-1.3c-0.5,2.1-1,4-1.4,5.6c-4.8-2.4-7.8-1.2-7.4,1.9
				c0.4,2.8,6,0,7-0.6c-0.4,1.2-0.8,2.2-1.1,2.7c-0.6,0.9-1.3,1.9-2,2.8c-2.7-4.3-6.6-4.7-7.4-0.8
				C149,123.9,155.1,122.4,156.4,122.1"/>
			<path id="XMLID_936_" class="st4" d="M184.5,66.5c0,0-0.1,4.4,5.3,5.9c5.4,1.5,5.2-0.6,7.2-0.1c1.9,0.5,4.7,1.9,5.7,1.3
				c1.1-0.7,1.7-3.5,2.8-4.6c1.2-1.1,3.4-2.3,3.8-5.4c0.4-3.1-2-4.6-2-4.6L184.5,66.5z"/>
			<path id="XMLID_935_" class="st5" d="M184.4,65.8c0,0,2.3,3.3,3.5,4.4s4.3,3.1,6.9,1.3c2.5-1.9,1.1-4.2,4.4-6
				c3.2-1.8,7.9,0.2,8.9-0.4s-0.8-5.7-0.8-5.7L184.4,65.8z"/>
			<path id="XMLID_934_" class="st4" d="M172.5,47.8c0,0-4.7-3.9-4.7-5.2s1.2-1.6,1.4-3.3c0.2-1.6-1.1-6.4,0.8-8.5
				c1.8-2,9.8-5.1,11.5-4.9c1.8,0.3,6.8,3.4,6.8,3.4S184.6,43.8,172.5,47.8"/>
			<path id="XMLID_933_" class="st5" d="M173.9,47.2c0,0-2.8-2-2.3-5.3s1.8-3.8,2.3-5.7c0.5-1.8,0.6-6.1,2.5-7s8.8-1.9,11.1,0.6
				C189.7,32.3,176.7,47.2,173.9,47.2"/>
			<path id="XMLID_932_" class="st4" d="M167.8,42.2c0,0-2.4-0.5-3.8,0.7c-1.3,1.2-0.3,4.3-0.7,5.3c-0.4,1.1-2.7,2.6-1.6,5.3
				c1.1,2.7,1.2,3,2.2,4c1.1,1,4,1.3,4.9,3c0.8,1.7,3.5,4.8,6.3,5.8s8.6,0.7,11-0.6C186.1,65.6,170.3,42.1,167.8,42.2"/>
			<path id="XMLID_931_" class="st5" d="M170.3,45.7c0,0-4.6,2.4-2.9,6.5c1.6,4.1,5.9,6.1,5.9,6.1l5.4-2.7
				C178.7,55.6,174.6,45.7,170.3,45.7"/>
			<path id="XMLID_930_" class="st4" d="M213.5,54.7c-1.1,2-4.4,4.8-8.4,7.3c-4.6,2.8-10.2,5-14.9,4.9c-8.8-0.1-8.6-4.7-11.1-5.7
				c0,0-3.4-1.5-6-3.1c-2.1-1.2-3.7-2.6-2.9-3.4c1.8-1.9,8.9,3.3,10.3,3.4c1.5,0.1,2.6,1.4,6.1,0.8c3.5-0.5,13-0.4,15.9-1.5
				c3-1.1,10.9-3.6,10.4-8.9c-0.5-5.2-7-2.3-7-2.3l0.2-0.8c0,0,3.5-1.6,5.6-0.5C213.9,46.1,216,50.4,213.5,54.7"/>
			<path id="XMLID_929_" class="st6" d="M205.1,61.9c-4.6,2.8-10.2,5-14.9,4.9c-8.8-0.1-8.6-4.7-11.1-5.7c0,0-3.4-1.5-6-3.1
				c0.5-0.4,1.6-1.3,3.4-1c2.4,0.4,5,3.6,6.5,3.6c1.5,0.1,18.7-2.1,19.9-0.8C203.7,60.7,204.6,61.3,205.1,61.9"/>
			<path id="XMLID_928_" class="st2" d="M181.9,58.1c0,0-4.3,0.1-7.1-3.8s-1.8-9.7-1.8-9.7L181.9,58.1z"/>
			<path id="XMLID_927_" class="st7" d="M174.1,40.7c0,0-0.5-4.8,0.6-6c1.1-1.1,2.3-2.3,3.1-0.8s1.4,5.1,1.4,5.1s-1.2-2.7-2.1-1.4
				c-0.9,1.4-1.6,4.9-1.6,4.9L174.1,40.7z"/>
			<path id="XMLID_926_" class="st5" d="M205.8,46.1c0,0,5.5-2.1,6.7,0.4c1.2,2.6,2.9,8.2-12.8,11.9c0,0-15.6,2.7-19.8-0.4
				C180,58,205.3,50.9,205.8,46.1"/>
			<path id="XMLID_925_" class="st8" d="M204.8,49.5c0,0,3,0.6,2.3,2.5s-5.3,1.5-5.3,1.5L204.8,49.5z"/>
			<path id="XMLID_924_" class="st2" d="M205.7,46.6c0,0-1,5.5-3.8,6.9s-8.7,1.6-8.7,1.6S202.7,46.1,205.7,46.6"/>
			<path id="XMLID_923_" class="st9" d="M193.1,54.5c0,0.5,4.3-1,5.9-2.4c1.6-1.4,2.3-3.5,3-3.6c0.8-0.1,1.3,0.2,2.1-0.2
				c0.9-0.4,2.7-2.5,2.5-3C206.5,44.7,193.3,50.9,193.1,54.5"/>
			<path id="XMLID_922_" class="st10" d="M176.8,45.5l0.9-0.8c0,0,1.5,11.6,14.3,10.1l0.1,0.6c0,0-8.1,1.7-9.2,1.7
				C181.6,57.2,177.3,50.5,176.8,45.5"/>
			<path id="XMLID_921_" class="st10" d="M186.9,46.4c0,0,6.1,5.2,5.3,9.1c0,0,4.7-5.8,8.4-7.6c0,0-3.8,1-6.3,1.8
				C192.1,50.4,188.5,45.6,186.9,46.4"/>
			<path id="XMLID_920_" class="st2" d="M186.9,46.4c0,0,6-0.2,7.6,0.1c1.6,0.4,5,1.9,6.1,1.4c0,0-4,3.2-6.9,2.6
				C190.7,50,186.9,46.4,186.9,46.4"/>
			<path id="XMLID_919_" class="st10" d="M186,31.4c0,0-5.4,1.2-5,7.3C181,38.7,185.1,33.4,186,31.4"/>
			<path id="XMLID_918_" class="st2" d="M184.3,34.1c0,0-3.7,3.5-3.4,5.4s2.1,6.3,3.4,6.2c1.3-0.1,3.1-0.3,3.1-0.3
				S183.4,35.5,184.3,34.1"/>
			<path id="XMLID_917_" class="st4" d="M205.6,45.6c0,0,2.9-6.7-0.9-11.4c0,0,3,0.5,4.5,2.2c1.5,1.8-0.2,8.2-0.6,8.3L205.6,45.6z"
				/>
			<path id="XMLID_916_" class="st5" d="M204.7,34.2c0,0,1.9,1.9,2.1,3.7c0.2,2.2,0.2,6-1.2,7.8l-4.3,2h-0.6
				C200.7,47.7,204.3,41.3,204.7,34.2"/>
			<path id="XMLID_915_" class="st8" d="M187.3,45.6c0,0-3.7-9.7,0.4-15.1c4.1-5.4,11.1-2.1,12.6-0.9c1.6,1.2,8.9,5,0.4,18
				C200.7,47.7,192.3,43.2,187.3,45.6"/>
			<path id="XMLID_914_" class="st4" d="M187.1,31.1c-0.5-0.2,3.4-5.3,6.9-5.2c3.4,0.1,4.4,2,5.6,2.3c1.1,0.3,3.7,0.7,4.7,1.9
				c0.9,1.2,0.9,5.5,0.5,6s-0.3,0-0.3,0s-0.2-3.4-2.5-5.2c-2.5-2-4.3-2.6-7.4-2.5C189.5,28.5,187.1,31.1,187.1,31.1"/>
			<path id="XMLID_913_" class="st11" d="M186.7,39.3c-0.1,0.6-0.9-4.2,0.8-5.8c1.7-1.6,6.7-2.6,7.3-2
				C195.4,32.1,187.3,32.3,186.7,39.3"/>
			<path id="XMLID_912_" class="st11" d="M189.8,36.3c0,0,1.7-2,3.1-2c1.3,0,2.5,0.7,2.9,1.6C195.8,35.9,194.2,34.3,189.8,36.3"/>
			<path id="XMLID_911_" class="st11" d="M189.7,35.4c0,0-2.2-0.2-2.3,2.7c0,2.9,1,6.7,1.6,6.6c0.6,0-0.3-4.6-0.3-5.6
				c0.1-1,0.9,3.5,2.7,4.3C191.5,43.4,188.1,37.2,189.7,35.4"/>
			<path id="XMLID_910_" class="st11" d="M192,42.9c0,0.4-1.7-3.8-1.1-5.4c0.6-1.6,1.8-2.1,2.7-1.9c1.9,0.3,2.4,3.3,1.4,3.4
				c-0.7,0.1-0.5-2-1.6-1.9C191.9,37.2,191.9,39.9,192,42.9"/>
			<path id="XMLID_909_" class="st5" d="M198.7,32.8c0,0,3-0.4,3.6,1.7c0.5,2.1,0.6,9.5-2.7,12.6l-7-2.6c1.1-2.1,4.4-2.6,5.5-4.7
				C199,38,197.8,34.6,198.7,32.8"/>
			<path id="XMLID_908_" class="st11" d="M200,32.6c-0.5,0.1,1.4,1.7,1.6,3c0.2,1.3,1.1,4.9,1.5,4.9C203.6,40.4,203.9,32,200,32.6"
				/>
			<path id="XMLID_907_" class="st9" d="M200.1,39.1c0,0,1.5,1.1,1,3c-0.5,1.8-1.1,5-1.1,5l0.7,0.6c0,0,3.5-6-0.4-9.5L200.1,39.1z"
				/>
			<path id="XMLID_906_" class="st11" d="M190,34c0,0,6.5-0.7,7.4,2.1c0.9,2.7,0.5,6.3-7.3,8.6c0,0,6.5-0.1,9.1-3.6
				C201.8,37.5,201.1,30.5,190,34"/>
			<path id="XMLID_905_" class="st11" d="M188.9,31.1c0,0,3.6-2.8,6.3-1.6c2.8,1.3,4.3,3.2,4.3,4.7
				C199.6,35.8,197.1,28.9,188.9,31.1"/>
			<path id="XMLID_904_" class="st2" d="M179.5,39.1c0,0-1.6,2.5-2,3.8c-0.4,1.4,0.7,4.8,1.8,7.1s3.9,7.4,12.6,4.8
				C191.9,54.8,189.2,46.7,179.5,39.1"/>
			<path id="XMLID_903_" class="st9" d="M192.2,55.5c0,0-4-8.2-10.7-10.3c0,0,6.2,0.8,8.5,3.4C192.3,51.2,194.2,53.5,192.2,55.5"/>
			<path id="XMLID_902_" class="st9" d="M186,31.4c0,0-4.6-1.9-6.3,2.2c-2.4,5.7,2.2,12,3.9,11.4c0,0-3.4-6.5-2.2-9.1
				C182.3,34,183.1,32.1,186,31.4"/>
			<path id="XMLID_901_" class="st9" d="M172.7,39.7c-0.6-0.2-0.3,3.8,0.5,5.4c0.8,1.7,1.4,1.7,1.5,2.6c0.1,0.9,0.4,3.4,1.8,5.1
				c1.4,1.7,5.5,6.7,7.1,5.4s-5.3-6-5.5-8.2C178,47.9,175.4,40.7,172.7,39.7"/>
			<path id="XMLID_900_" class="st9" d="M185.2,46c0,0,2.7,1.2,4,1.1c1.3-0.2,3.7-1,4.7-0.7s1.9,1.1,3.1,1.5c1.2,0.4,3.6,0.2,4.2,0
				c0,0-4.9-3.2-7.6-3.4C191.1,44.3,185.5,45.2,185.2,46"/>
			<path id="XMLID_899_" class="st6" d="M182.1,55.6c-0.4,0,5.1,4.8,11.8,4.2c1.6-0.1,9.4-4.5,10.2-4.9c3.8-2.1,2.8-3.5,2.9-4
				C207.1,50.4,190,56.7,182.1,55.6"/>
			<path id="XMLID_898_" class="st9" d="M187.6,45.4c0,0-0.1,0.3-0.3,0c-1-1.5-3.8-6.6-3.1-10.6c0.9-4.8,3.2-3.8,3.2-3.8
				S184,37.8,187.6,45.4"/>
			<path id="XMLID_897_" class="st4" d="M175.2,83.4c0,0-4.7-2-8.7,3.2s-1.6,5.9-3,7.8s-4.1,4.2-3.9,5.7c0.2,1.4,3.1,3.4,3.7,5.1
				c0.7,1.7,1,4.7,4.2,6.5s5.8-0.1,5.8-0.1L175.2,83.4z"/>
			<path id="XMLID_896_" class="st5" d="M176,83.6c0,0-4.6,1-6.3,1.9s-5.3,3.3-4.3,6.9s4.1,3.1,4.5,7.3c0.5,4.3-3.7,8.4-3.4,9.8
				c0.3,1.3,6.5,1.6,6.5,1.6L176,83.6z"/>
			<path id="XMLID_895_" class="st4" d="M200.7,78.5c0,0,6.3-3.4,7.7-2.9c1.3,0.6,1.3,2,2.9,2.9c1.7,0.9,7.4,1.6,8.8,4.5
				c1.4,2.9,1.3,12.8,0.3,14.6c-1,1.8-6.6,5.9-6.6,5.9S199.7,93.4,200.7,78.5"/>
			<path id="XMLID_894_" class="st5" d="M200.6,80.3c0,0,3.4-2.2,6.7-0.2c3.4,2,3.4,3.6,5.2,4.9s6.4,3.2,6.5,5.7
				c0.2,2.5-1.8,10.3-5.5,11.7C209.9,103.9,199.4,83.3,200.6,80.3"/>
			<path id="XMLID_893_" class="st4" d="M208.8,75.9c0,0,1.6-2.4,0.8-4.4s-4.5-2.2-5.4-3c-1-0.9-1.6-4-5-4s-3.7,0-5.3,0.7
				s-3.1,3.8-5.3,4s-6.7,1.7-9,4.3c-2.3,2.6-4.5,9-4.1,12.2C175.4,85.6,207.8,78.6,208.8,75.9"/>
			<path id="XMLID_892_" class="st5" d="M203.8,77.1c0,0-0.7-6-5.8-6s-9.1,3.8-9.1,3.8l0.6,7C189.5,81.9,202,81.7,203.8,77.1"/>
			<path id="XMLID_891_" class="st4" d="M175.4,120c-1.7-2.1-3.3-6.8-4.2-12.2c-1-6.2-1-13.2,1.1-18.2c3.9-9.4,8.8-7.3,10.9-9.5
				c0,0,3-3,5.9-5.2c2.2-1.7,4.4-2.9,4.9-1.7c1.2,2.7-7.4,8.2-8.2,9.7s-2.6,2.3-3.5,6.3s-5.2,14.2-5.2,17.9
				c-0.1,3.7-0.8,13.4,5.1,15.1c5.9,1.7,5.5-6.6,5.5-6.6l0.8,0.6c0,0,0.2,4.4-1.9,6.3C184.6,124.1,179,124.5,175.4,120"/>
			<path id="XMLID_890_" class="st6" d="M171.2,107.7c-1-6.2-1-13.2,1.1-18.2c3.9-9.4,8.8-7.3,10.9-9.5c0,0,3-3,5.9-5.2
				c0.3,0.7,0.7,2.3-0.4,4.2c-1.5,2.5-6,3.8-6.8,5.5c-0.7,1.6-5.9,21.1-7.7,21.9C173.2,106.7,172.1,107.5,171.2,107.7"/>
			<path id="XMLID_889_" class="st2" d="M185.4,84.3c0,0,1.8-4.7,7.2-6s11.2,2.2,11.2,2.2L185.4,84.3z"/>
			<path id="XMLID_888_" class="st7" d="M207.6,83.3c0,0,5.4,1.6,6.2,3.2c0.8,1.7,1.5,3.5-0.5,3.6c-2,0.2-6.2-0.7-6.2-0.7
				s3.5-0.2,2.4-1.7s-4.7-3.9-4.7-3.9L207.6,83.3z"/>
			<path id="XMLID_887_" class="st5" d="M188.1,115.3c0,0-0.1,6.9-3.4,7.1c-3.3,0.2-10.1-0.4-7.3-18.9c0,0,3.9-18,9-21.3
				C186.4,82.2,183.1,112.7,188.1,115.3"/>
			<path id="XMLID_886_" class="st8" d="M184.7,112.8c0,0-2,2.9-3.7,1.4s0.7-6.3,0.7-6.3L184.7,112.8z"/>
			<path id="XMLID_885_" class="st2" d="M187.6,114.9c0,0-5.5-3.5-5.8-7.1s2-10.1,2-10.1S189.4,111.9,187.6,114.9"/>
			<path id="XMLID_884_" class="st9" d="M184.5,97.9c-0.6-0.3-0.8,5.1,0,7.4c0.8,2.4,2.8,3.9,2.6,4.8s-0.8,1.3-0.7,2.4s1.5,4,2.2,4
				C189.3,116.6,188.3,99.7,184.5,97.9"/>
			<path id="XMLID_883_" class="st10" d="M201.3,84.2l0.5,1.3c0,0-13.2-3.4-17.1,11.1l-0.7-0.2c0,0,1.7-9.4,2.2-10.7
				C186.5,84.3,195.6,82.6,201.3,84.2"/>
			<path id="XMLID_882_" class="st10" d="M195.9,94.8c0,0-8.2,4.4-12.2,1.8c0,0,4.3,7.6,4.6,12.3c0,0,0.6-4.5,0.8-7.6
				C189.3,98.6,196.1,96.8,195.9,94.8"/>
			<path id="XMLID_881_" class="st10" d="M212.5,100.8c0,0,1-6.3-5.8-8.6C206.8,92.2,210.7,99,212.5,100.8"/>
			<path id="XMLID_880_" class="st2" d="M210.3,97.3c0,0-2.1-5.5-4.3-6s-7.7-0.5-8.2,1s-1,3.4-1,3.4S209.2,95.6,210.3,97.3"/>
			<path id="XMLID_879_" class="st4" d="M188.7,115.3c0,0,6,6,12.7,4c0,0-1.8,3-4.3,3.9c-2.5,0.8-8.8-3.8-8.8-4.2L188.7,115.3z"/>
			<path id="XMLID_878_" class="st5" d="M201.4,119.3c0,0-2.9,1.2-4.9,0.6c-2.5-0.7-6.6-2.4-7.9-4.7l-0.3-5.5l0.2-0.6
				C188.5,109.2,193.8,115.7,201.4,119.3"/>
			<path id="XMLID_877_" class="st8" d="M196.5,95.5c0,0,12.1,0.2,16.1,7c4,6.7-2.5,12.9-4.5,14.1s-9.2,7.4-19.7-7.4
				C188.5,109.2,197,101.9,196.5,95.5"/>
			<path id="XMLID_876_" class="st4" d="M212.3,101.6c0.4-0.5,4.3,6,2.7,9.7c-1.6,3.6-4,3.9-4.9,5c-0.8,1.1-2.4,3.7-4,4.2
				c-1.7,0.5-6.3-1.3-6.7-2s0.1-0.3,0.1-0.3s3.8,1.2,6.7-0.4c3.3-1.8,4.6-3.5,5.9-6.9C214.1,105.3,212.3,101.6,212.3,101.6"/>
			<path id="XMLID_875_" class="st11" d="M203.7,97.6c-0.6-0.3,5,0.9,6,3.5s-0.1,8.3-1,8.7C207.7,110.1,211,101.2,203.7,97.6"/>
			<path id="XMLID_874_" class="st11" d="M205.5,102.2c0,0,1.4,2.8,0.8,4.2c-0.6,1.4-1.9,2.4-3,2.5
				C203.4,108.9,205.8,107.9,205.5,102.2"/>
			<path id="XMLID_873_" class="st11" d="M206.6,102.5c0,0,1.2-2.3-2-3.6c-3.1-1.3-7.7-1.8-7.9-1.2c-0.2,0.6,5.2,1.6,6.2,2.1
				s-4.2-0.6-5.8,1.1C197.1,101,205.3,100,206.6,102.5"/>
			<path id="XMLID_872_" class="st11" d="M197.4,101.8c-0.5-0.2,4.8-0.2,6.3,1.2c1.5,1.4,1.5,2.8,0.9,3.8c-1.2,2-4.6,1.2-4.2,0.1
				c0.2-0.8,2.3,0.3,2.7-0.9C203.7,104.1,200.7,102.9,197.4,101.8"/>
			<path id="XMLID_871_" class="st5" d="M205.5,113.4c0,0-0.9,3.5-3.4,3.1c-2.5-0.3-10.5-3.5-12.5-8.3l5.8-6.5
				c1.8,2.1,0.9,5.8,2.7,7.9C199.7,111.5,204,111.7,205.5,113.4"/>
			<path id="XMLID_870_" class="st11" d="M205.2,114.9c0.1-0.5-2.4,0.8-3.9,0.5c-1.5-0.4-5.8-1-6-0.5
				C195.2,115.4,204,119.4,205.2,114.9"/>
			<path id="XMLID_869_" class="st9" d="M198.1,112.2c0,0-1.9,1.1-3.7-0.2c-1.8-1.3-5-3.4-5-3.4l-0.9,0.5c0,0,4.9,6.4,10.5,3.7
				L198.1,112.2z"/>
			<path id="XMLID_868_" class="st11" d="M208,103.5c0,0-2.1,7.4-5.4,7.1c-3.4-0.2-7-2.2-6.1-11.7c0,0-2.6,7,0,11.4
				C199.1,114.7,206.9,117,208,103.5"/>
			<path id="XMLID_867_" class="st11" d="M211.6,103.5c0,0,1.5,5.1-1.1,7.5s-5.3,3.2-7,2.6S210.4,113.3,211.6,103.5"/>
			<path id="XMLID_866_" class="st2" d="M207,89.9c0,0-2-2.8-3.3-3.8s-5.5-1.3-8.5-1.1c-3,0.2-9.7,1.1-10.6,11.6
				C184.6,96.6,194.6,97.1,207,89.9"/>
			<path id="XMLID_865_" class="st9" d="M183.7,96.5c0,0,10.7-0.8,15.8-7.1c0,0-3.5,6.4-7.4,7.7C188.3,98.5,185,99.5,183.7,96.5"/>
			<path id="XMLID_864_" class="st9" d="M212.5,100.3c0,0,4-4.1,0.3-7.8c-5.1-5.1-14-2.8-14-0.7c0,0,8.5-0.9,10.8,1.6
				C211.3,95.2,213,96.8,212.5,100.3"/>
			<path id="XMLID_863_" class="st9" d="M209.2,82.3c0.5-0.6-4-1.9-6.1-1.8s-2.5,0.8-3.5,0.5c-1.1-0.3-3.9-1-6.3-0.2
				c-2.4,0.8-9.6,3-8.9,5.3c0.7,2.3,8.8-3.1,11.2-2.4C198.1,84.4,207.1,84.7,209.2,82.3"/>
			<path id="XMLID_862_" class="st6" d="M188,85.6c0.2-0.4-7.4,3.4-9.7,10.9c-0.5,1.8,0.8,12,0.9,13.1c0.6,5,2.6,4.6,3.1,4.9
				S183.4,93.7,188,85.6"/>
			<path id="XMLID_861_" class="st9" d="M196.7,95.9c0,0-0.2-0.3,0.2-0.3c2-0.4,8.8-1.3,12.7,1.3c4.8,3.1,2.8,5.1,2.8,5.1
				S206.5,95.3,196.7,95.9"/>
			<path id="XMLID_860_" class="st12" d="M166.2,72.1c0,0-2.5,1.3-1.7,4.8s1.9,2.7,2.2,4c0.3,1.2,0.3,3.2,1,3.6s2.5-0.1,3.4,0.2
				c0.9,0.3,2.3,1.2,4.2,0.5s2-2.5,2-2.5L166.2,72.1z"/>
			<path id="XMLID_859_" class="st13" d="M166.6,71.9c0,0-1.2,2.3-1.4,3.3s-0.5,3.4,1.4,4.2c1.8,0.9,2.7-0.6,4.7,0.7
				c2,1.3,2.2,4.5,2.9,4.8c0.7,0.4,2.9-2.1,2.9-2.1L166.6,71.9z"/>
			<path id="XMLID_858_" class="st14" d="M173.1,59.8c0,0,0.8-3.8,1.5-4.2s1.3,0.2,2.2-0.2c1-0.4,3.3-2.5,5-2.1s5.8,3.9,6.2,5
				s0.1,4.8,0.1,4.8S179,65.4,173.1,59.8"/>
			<path id="XMLID_857_" class="st15" d="M173.8,60.4c0,0,0.3-2.2,2.3-2.9s2.7-0.1,3.9-0.4c1.2-0.3,3.6-1.5,4.7-0.7
				c1.1,0.8,3.7,4.4,3,6.4C187,64.9,174.7,62,173.8,60.4"/>
			<path id="XMLID_856_" class="st14" d="M174.9,55.5c0,0-0.5-1.5-1.5-1.9c-1.1-0.4-2.5,1.1-3.2,1.2c-0.7,0.1-2.2-0.7-3.4,0.7
				s-1.3,1.5-1.6,2.4s0.5,2.6-0.2,3.6s-1.7,3.4-1.4,5.3s2.2,5,3.6,6C167.2,72.8,175.7,56.9,174.9,55.5"/>
			<path id="XMLID_855_" class="st15" d="M173.6,58c0,0-2.7-1.8-4.5,0.3s-1.6,5.1-1.6,5.1l3.1,2.2C170.6,65.6,174.9,60.4,173.6,58"
				/>
			<path id="XMLID_854_" class="st16" d="M181.6,84.9c-1.5,0-4-1-6.6-2.6c-2.9-1.7-5.9-4.2-7.2-6.9c-2.6-5,0.1-6.2-0.1-7.9
				c0,0-0.2-2.3-0.1-4.3c0.1-1.5,0.4-2.8,1-2.6c1.6,0.4,0.8,5.9,1.2,6.8s0,1.9,1.4,3.7c1.3,1.8,4.1,7.1,5.6,8.5
				c1.5,1.3,5.3,5,8.1,3.2c2.8-1.9-0.8-4.6-0.8-4.6l0.5-0.1c0,0,1.9,1.5,2,3C186.5,82.5,184.7,85,181.6,84.9"/>
			<path id="XMLID_853_" class="st17" d="M175,82.4c-2.9-1.7-5.9-4.2-7.2-6.9c-2.6-5,0.1-6.2-0.1-7.9c0,0-0.2-2.3-0.1-4.3
				c0.4,0.1,1.2,0.5,1.6,1.6c0.5,1.5-0.5,3.9-0.1,4.7c0.4,0.9,6.8,9.9,6.4,10.9C175.2,81.2,175.2,81.9,175,82.4"/>
			<path id="XMLID_852_" class="st18" d="M169.9,68.7c0,0-1-3,0.3-5.7s4.9-3.9,4.9-3.9L169.9,68.7z"/>
			<path id="XMLID_851_" class="st19" d="M177.6,58.6c0,0,2.6-1.7,3.5-1.4c1,0.3,2,0.6,1.3,1.5c-0.6,0.9-2.5,2.3-2.5,2.3
				s1.2-1.5,0.1-1.6c-1-0.1-3.3,0.6-3.3,0.6L177.6,58.6z"/>
			<path id="XMLID_850_" class="st15" d="M184.1,78c0,0,2.9,2.4,1.8,3.9c-1.1,1.5-3.7,4.1-10.5-3.6c0,0-6.2-7.9-5.7-11.2
				C169.7,67.1,181.2,79.1,184.1,78"/>
			<path id="XMLID_849_" class="st20" d="M181.8,78.5c0,0,0.5,1.8-0.7,2s-2.4-2.5-2.4-2.5L181.8,78.5z"/>
			<path id="XMLID_848_" class="st12" d="M183.7,78.1c0,0-3.4,1.1-5-0.1s-3.5-4.4-3.5-4.4S183.1,76.3,183.7,78.1"/>
			<path id="XMLID_847_" class="st1" d="M175.5,73.4c-0.3,0.1,1.8,2.1,3.1,2.6s2.6,0.2,2.9,0.6c0.3,0.4,0.3,0.8,0.8,1.1
				c0.5,0.4,2.2,0.8,2.5,0.5C185,77.9,177.6,72.4,175.5,73.4"/>
			<path id="XMLID_846_" class="st12" d="M175.7,61.5l0.7,0.3c0,0-6.1,4.3-1.4,11l-0.3,0.2c0,0-3.3-4-3.7-4.7
				C170.6,67.7,173.1,63.3,175.7,61.5"/>
			<path id="XMLID_845_" class="st12" d="M178.2,67.5c0,0-1.1,5-3.5,5.7c0,0,4.7,0.9,6.8,2.4c0,0-1.7-1.8-2.9-3
				C177.5,71.6,179.1,68.1,178.2,67.5"/>
			<path id="XMLID_844_" class="st12" d="M178.2,67.5c0,0,1.9,3.3,2.2,4.3s0.4,3.4,1,3.8c0,0-3-1.3-3.6-3.1
				C177.4,70.7,178.2,67.5,178.2,67.5"/>
			<path id="XMLID_843_" class="st12" d="M186.4,62.5c0,0-2.3-2.6-5.6-0.6C180.8,61.9,185,62.6,186.4,62.5"/>
			<path id="XMLID_842_" class="st21" d="M184.3,62.4c0,0-3-1-4-0.3c-1,0.8-2.9,3.1-2.5,3.8s1.1,1.6,1.1,1.6S183.3,62.3,184.3,62.4"
				/>
			<path id="XMLID_841_" class="st14" d="M184.3,77.7c0,0,4.6-0.4,6.1-3.9c0,0,0.6,1.8,0.1,3.2c-0.5,1.4-4.7,2.3-4.8,2.2L184.3,77.7
				z"/>
			<path id="XMLID_840_" class="st22" d="M190.4,73.8c0,0-0.5,1.6-1.5,2.3c-1.2,0.8-3.3,1.9-4.7,1.6l-2.4-1.8l-0.2-0.3
				C181.7,75.6,186.3,75.7,190.4,73.8"/>
			<path id="XMLID_839_" class="st20" d="M178.8,67.5c0,0,4.4-5,8.6-4.3c4.2,0.7,4.5,5.6,4.3,6.8c-0.2,1.3-0.1,6.5-10,5.6
				C181.7,75.6,181.6,69.5,178.8,67.5"/>
			<path id="XMLID_838_" class="st23" d="M186.9,63c-0.1-0.3,4,0.3,5,2.3c1,1.9,0.2,3.1,0.4,3.8c0.2,0.7,0.7,2.3,0.3,3.2
				c-0.4,0.9-2.8,2.2-3.2,2.1s-0.1-0.2-0.1-0.2s1.8-1.1,2.2-3c0.4-2,0.2-3.2-0.8-4.9C189,63.6,186.9,63,186.9,63"/>
			<path id="XMLID_837_" class="st24" d="M182.2,65.3c-0.4,0.2,2.1-1.8,3.5-1.3c1.4,0.5,3.4,3,3.3,3.5
				C188.8,68,186.3,63.5,182.2,65.3"/>
			<path id="XMLID_836_" class="st1" d="M184.7,66.1c0,0,1.6,0.4,2,1.1c0.4,0.8,0.3,1.6,0,2.1C186.8,69.3,187.2,68,184.7,66.1"/>
			<path id="XMLID_835_" class="st12" d="M185.2,65.8c0,0-0.6-1.3-2.2-0.5c-1.6,0.9-3.4,2.6-3.3,2.9c0.2,0.3,2.5-1.6,3.1-1.8
				c0.6-0.2-1.7,1.5-1.6,2.8C181.2,69.2,183.7,65.4,185.2,65.8"/>
			<path id="XMLID_834_" class="st19" d="M181.7,69.3c-0.2,0.1,1.6-2.1,2.7-2.2c1.1-0.1,1.7,0.4,1.9,0.9c0.4,1.2-1.1,2.3-1.5,1.8
				c-0.2-0.4,0.9-0.9,0.6-1.4C184.9,67.5,183.3,68.4,181.7,69.3"/>
			<path id="XMLID_833_" class="st13" d="M189.4,70.1c0,0,1.1,1.6,0.1,2.5s-5.1,3.2-7.9,2.3l-0.6-4.7c1.5,0,2.8,1.7,4.3,1.6
				C186.6,71.8,188.1,70.1,189.4,70.1"/>
			<path id="XMLID_832_" class="st1" d="M189.9,70.7c-0.2-0.2-0.5,1.3-1.2,1.8s-2.5,2.1-2.3,2.3C186.6,75.1,191.4,72.7,189.9,70.7"
				/>
			<path id="XMLID_831_" class="st1" d="M186.3,72.7c0,0-0.2,1.2-1.4,1.5s-3.1,0.9-3.1,0.9l-0.1,0.6c0,0,4.4,0.2,5.2-3.1L186.3,72.7
				z"/>
			<path id="XMLID_830_" class="st1" d="M186.1,65.5c0,0,2.3,3.5,1.1,4.8c-1.3,1.3-3.4,2.2-7-1.5c0,0,2,3.6,4.7,4
				C187.7,73.2,191.4,70.7,186.1,65.5"/>
			<path id="XMLID_829_" class="st24" d="M187.4,64c0,0,2.7,1.2,2.8,3.1s-0.5,3.4-1.4,3.8C188,71.4,191.1,68,187.4,64"/>
			<path id="XMLID_828_" class="st12" d="M180.1,61.2c0,0-1.9-0.2-2.7,0c-0.9,0.2-2.5,1.8-3.5,3.2c-1,1.3-3,4.4,1.1,8.5
				C175,72.8,178.7,68.9,180.1,61.2"/>
			<path id="XMLID_827_" class="st1" d="M174.7,73.2c0,0,3.4-4.7,2.6-9.1c0,0,1.4,3.7,0.6,5.8C177.1,72,176.4,73.7,174.7,73.2"/>
			<path id="XMLID_826_" class="st25" d="M186.4,62.5c0,0-0.3-3.1-3.2-2.9c-3.9,0.3-6.1,4.8-5.2,5.6c0,0,2.6-3.9,4.5-3.9
				C183.8,61.2,185.1,61.1,186.4,62.5"/>
			<path id="XMLID_825_" class="st1" d="M177.7,57.5c-0.1-0.4-2.2,1-2.9,1.9s-0.5,1.3-1,1.6s-1.8,1.3-2.3,2.6
				c-0.5,1.3-2.1,5.1-0.9,5.6c1.2,0.5,1.8-4.7,3-5.5C174.7,62.9,178,59.3,177.7,57.5"/>
			<path id="XMLID_824_" class="st1" d="M177.9,66.4c0,0,0.1,1.9,0.6,2.6s1.6,1.8,1.8,2.4c0.2,0.7-0.1,1.4,0.1,2.2
				c0.1,0.8,1,2.1,1.3,2.4c0,0,0.4-3.7-0.3-5.3C180.7,69.2,178.5,66.3,177.9,66.4"/>
			<path id="XMLID_823_" class="st1" d="M171.6,67.6c-0.1-0.2-1.2,4.3,1.2,7.9c0.6,0.8,5.3,3.9,5.8,4.2c2.3,1.5,2.8,0.5,3.1,0.4
				C182,80,173.4,72.3,171.6,67.6"/>
			<path id="XMLID_822_" class="st1" d="M179,67.6c0,0-0.2,0-0.1-0.2c0.5-1,2.5-4.1,5-4.9c3-0.9,3.1,0.6,3.1,0.6
				S182.2,63.3,179,67.6"/>
		</g>
		<g id="XMLID_3_">
			<path id="XMLID_820_" class="st2" d="M23.1,93.4c0,0,3,8.5,4.3,10.5c1.4,2,5.4,5.9,5.2,7.6c0,0,2.2-7.4-0.2-11.1
				C30.1,96.7,23.1,93.4,23.1,93.4"/>
			<path id="XMLID_819_" class="st3" d="M61.7,29.9c-0.7,0.9-1.4,1.8-2,2.8c-0.3,0.5-0.7,1.4-1.1,2.7c1-0.5,6.6-3.4,7-0.6
				c0.4,3.1-2.6,4.3-7.4,1.9c-0.5,1.6-1,3.6-1.4,5.6c1.5-0.7,6.4-2.8,7.7-1.4c1.6,1.8,0.2,3.3-1.3,3.8c-3.2,1.1-6-0.6-6.7-1.1
				c-0.5,2.1-0.9,4.2-1.3,6.2c0.9-0.7,5.9-4.7,7.1-2.6c1.3,2.3,0.6,7.3-7.5,4.5c-0.1,0.5-0.2,1.1-0.3,1.6c-0.3,1.6-0.9,3.3-1.6,5.2
				c0,0,7.4-5.4,9-3.8c1.6,1.7,1.7,3-1,4c-2.8,1-8.6,1.2-8.6,1.2c-0.8,2-1.8,3.9-2.7,5.7c0,0,8-2.6,9,0.6s-0.9,4.7-3,4.4
				c-2.1-0.3-6.9-3.3-6.9-3.3c-1.1,2.1-2.1,3.7-2.6,4.4c0,0,5.7,0.1,5.8,2.4c0.1,2.2-1.1,3.6-2.7,2.7C47.5,75.9,45,73,45,73
				c-1.7,1.7-4,3-4,3c-1.3-0.4,1-1.4,3.4-4.1l0,0c0,0-3.7-1.1-5.4-3s0.8-3.3,2.6-3.7c1.6-0.3,3.3,4.4,3.7,5.6
				c0.9-1.2,1.8-2.6,2.6-4.3c0,0-4.1-1.6-5.9-4.2c-1.7-2.6-1.4-4,1.5-4.3c2.8-0.2,5.1,7.2,5.1,7.2c1-2,1.9-4.1,2.7-6.3
				c-0.8-0.2-4.3-1.4-6.1-3.2c-2-2-1.9-4.5,1.9-4c3.4,0.5,4.3,5.1,4.5,6.1c0.6-1.6,1.1-3.2,1.5-4.6c0.1-0.2,0.1-0.4,0.2-0.7
				c0,0-3.7-1.8-6-3.7c-2.3-2-0.1-4.8,3-3.9c3.1,1,3.4,6.2,3.4,6.2c0.5-2,1.2-5,1.9-7.8c0,0-4.2-0.6-6-2s-0.8-4.4,2-4.2
				c2.9,0.2,4.2,5.3,4.2,5.3c0.7-2.7,1.3-5.3,1.7-6.9c0,0-4.3-1.8-5.7-3.3s-1.2-3.7,1.6-3.7c2.8-0.1,4.3,6.4,4.3,6.4
				c0.1-0.3,0.2-0.6,0.2-0.8c0.5-1.5,1.4-3,2.2-4.5l0,0c0,0-7.4-1.8-4-5.5c3.1-3.3,4.4,2.9,4.6,4.2c0.1-0.4,0.3-0.7,0.4-1.1
				c1-3.4,3.2-5.9,5.2-4.7c1.9,1.2,0.2,3.5-0.9,4.1c-1.4,0.9-2.1,1.4-2.8,2.2c1.3-0.3,7.3-1.8,6.6,1.7
				C68.4,34.5,64.4,34.2,61.7,29.9"/>
			<path id="XMLID_818_" class="st3" d="M64.8,122.1c0.7,0.8,1.4,1.3,2.8,2.2c1.1,0.7,2.8,2.9,0.9,4.1s-4.2-1.2-5.2-4.7
				c-0.1-0.4-0.2-0.8-0.4-1.1c-0.2,1.2-1.5,7.5-4.6,4.2c-3.5-3.7,4-5.5,4-5.5l0,0c-0.8-1.6-1.8-3-2.2-4.5c-0.1-0.2-0.1-0.4-0.2-0.8
				c0,0-1.5,6.5-4.3,6.4s-2.9-2.2-1.6-3.7c1.4-1.5,5.7-3.3,5.7-3.3c-0.4-1.6-1.1-4.2-1.7-6.9c0,0-1.3,5.1-4.2,5.3
				c-2.9,0.2-3.8-2.8-2-4.2c1.8-1.4,6-2,6-2c-0.7-2.9-1.4-5.8-1.9-7.8c0,0-0.3,5.2-3.4,6.2c-3.1,1-5.3-1.9-3-3.9s6-3.7,6-3.7
				c-0.1-0.3-0.1-0.5-0.2-0.7c-0.4-1.5-0.9-3-1.5-4.6c-0.2,1-1.2,5.6-4.5,6.1c-3.8,0.5-3.9-1.9-1.9-4c1.8-1.8,5.3-2.9,6.1-3.2
				c-0.8-2.1-1.7-4.3-2.7-6.3c0,0-2.2,7.4-5.1,7.2c-2.8-0.2-3.2-1.7-1.5-4.3c1.7-2.6,5.8-4.2,5.9-4.2c-0.9-1.6-1.7-3.1-2.6-4.3
				c-0.4,1.2-2.2,5.9-3.7,5.6c-1.8-0.4-4.2-1.8-2.6-3.7c1.7-1.9,5.4-3,5.4-3l0,0c-2.4-2.7-4.6-3.7-3.4-4.1c0,0,2.2,1.3,4,3
				c0,0,2.5-2.9,4.2-3.8s2.8,0.4,2.7,2.7c-0.1,2.2-5.8,2.4-5.8,2.4c0.5,0.7,1.5,2.3,2.6,4.4c0,0,4.8-2.9,6.9-3.3
				c2.1-0.3,4,1.2,3,4.4c-1,3.2-9,0.6-9,0.6c0.9,1.8,1.8,3.7,2.7,5.7c0,0,5.8,0.1,8.6,1.2c2.8,1,2.6,2.4,1,4c-1.6,1.7-9-3.7-9-3.8
				c0.7,1.8,1.3,3.6,1.6,5.2c0.1,0.5,0.2,1,0.3,1.6c8.1-2.8,8.8,2.2,7.5,4.5c-1.2,2.1-6.3-1.9-7.1-2.6c0.4,1.9,0.9,4.1,1.3,6.2
				c0.7-0.5,3.5-2.2,6.7-1.1c1.5,0.5,2.9,2.1,1.3,3.8c-1.3,1.5-6.2-0.6-7.7-1.3c0.5,2.1,1,4,1.4,5.6c4.8-2.4,7.8-1.2,7.4,1.9
				c-0.4,2.8-6,0-7-0.6c0.4,1.2,0.8,2.2,1.1,2.7c0.6,0.9,1.3,1.9,2,2.8c2.7-4.3,6.6-4.7,7.4-0.8C72.1,123.9,66.1,122.4,64.8,122.1"
				/>
			<path id="XMLID_817_" class="st4" d="M36.7,66.5c0,0,0.1,4.4-5.3,5.9s-5.2-0.6-7.2-0.1c-1.9,0.5-4.7,1.9-5.7,1.3
				c-1.1-0.7-1.7-3.5-2.8-4.6c-1.2-1.1-3.4-2.3-3.8-5.4s2-4.6,2-4.6L36.7,66.5z"/>
			<path id="XMLID_816_" class="st5" d="M36.8,65.8c0,0-2.3,3.3-3.5,4.4s-4.3,3.1-6.9,1.3c-2.5-1.9-1.1-4.2-4.4-6
				c-3.2-1.8-7.9,0.2-8.9-0.4s0.8-5.7,0.8-5.7L36.8,65.8z"/>
			<path id="XMLID_815_" class="st4" d="M48.7,47.8c0,0,4.7-3.9,4.7-5.2S52.2,41,52,39.3c-0.2-1.6,1.1-6.4-0.8-8.5
				c-1.8-2-9.8-5.1-11.5-4.9C38,26.2,33,29.3,33,29.3S36.6,43.8,48.7,47.8"/>
			<path id="XMLID_814_" class="st5" d="M47.3,47.2c0,0,2.8-2,2.3-5.3s-1.8-3.8-2.3-5.7c-0.5-1.8-0.6-6.1-2.5-7s-8.8-1.9-11.1,0.6
				C31.4,32.3,44.5,47.2,47.3,47.2"/>
			<path id="XMLID_813_" class="st4" d="M53.4,42.2c0,0,2.4-0.5,3.8,0.7c1.3,1.2,0.3,4.3,0.7,5.3c0.4,1.1,2.7,2.6,1.6,5.3
				c-1.1,2.7-1.2,3-2.2,4c-1.1,1-4,1.3-4.9,3c-0.8,1.7-3.5,4.8-6.3,5.8s-8.6,0.7-11-0.6C35.1,65.6,50.9,42.1,53.4,42.2"/>
			<path id="XMLID_812_" class="st5" d="M50.8,45.7c0,0,4.6,2.4,2.9,6.5c-1.6,4.1-5.9,6.1-5.9,6.1l-5.4-2.7
				C42.5,55.6,46.6,45.7,50.8,45.7"/>
			<path id="XMLID_811_" class="st4" d="M7.6,54.7c1.1,2,4.4,4.8,8.4,7.3c4.6,2.8,10.2,5,14.9,4.9c8.8-0.1,8.6-4.7,11.1-5.7
				c0,0,3.4-1.5,6-3.1c2.1-1.2,3.7-2.6,2.9-3.4c-1.8-1.9-8.9,3.3-10.3,3.4c-1.5,0.1-2.6,1.4-6.1,0.8c-3.5-0.5-13-0.4-15.9-1.5
				c-3-1.1-10.9-3.6-10.4-8.9c0.5-5.2,7-2.3,7-2.3L15,45.5c0,0-3.5-1.6-5.6-0.5S5.2,50.4,7.6,54.7"/>
			<path id="XMLID_810_" class="st6" d="M16,61.9c4.6,2.8,10.2,5,14.9,4.9c8.8-0.1,8.6-4.7,11.1-5.7c0,0,3.4-1.5,6-3.1
				c-0.5-0.4-1.6-1.3-3.4-1c-2.4,0.4-5,3.6-6.5,3.6c-1.5,0.1-18.7-2.1-19.9-0.8C17.5,60.7,16.5,61.3,16,61.9"/>
			<path id="XMLID_809_" class="st2" d="M39.3,58.1c0,0,4.3,0.1,7.1-3.8s1.8-9.7,1.8-9.7L39.3,58.1z"/>
			<path id="XMLID_808_" class="st7" d="M47.1,40.7c0,0,0.5-4.8-0.6-6c-1.1-1.1-2.3-2.3-3.1-0.8S42,39,42,39s1.2-2.7,2.1-1.4
				c0.9,1.4,1.6,4.9,1.6,4.9L47.1,40.7z"/>
			<path id="XMLID_807_" class="st5" d="M15.4,46.1c0,0-5.5-2.1-6.7,0.4c-1.3,2.5-3,8.2,12.7,11.8c0,0,15.6,2.7,19.8-0.4
				C41.2,58,15.9,50.9,15.4,46.1"/>
			<path id="XMLID_806_" class="st8" d="M16.3,49.5c0,0-3,0.6-2.3,2.5s5.3,1.5,5.3,1.5L16.3,49.5z"/>
			<path id="XMLID_805_" class="st2" d="M15.5,46.6c0,0,1,5.5,3.8,6.9s8.7,1.6,8.7,1.6S18.5,46.1,15.5,46.6"/>
			<path id="XMLID_804_" class="st9" d="M28.1,54.5c0,0.5-4.3-1-5.9-2.4c-1.6-1.4-2.3-3.5-3-3.6c-0.8-0.1-1.3,0.2-2.1-0.2
				c-0.9-0.4-2.7-2.5-2.5-3C14.7,44.7,27.9,50.9,28.1,54.5"/>
			<path id="XMLID_803_" class="st10" d="M44.4,45.5l-0.9-0.8c0,0-1.5,11.6-14.3,10.1l-0.1,0.6c0,0,8.1,1.7,9.2,1.7
				C39.6,57.2,43.8,50.5,44.4,45.5"/>
			<path id="XMLID_802_" class="st10" d="M34.3,46.4c0,0-6.1,5.2-5.3,9.1c0,0-4.7-5.8-8.4-7.6c0,0,3.8,1,6.3,1.8
				C29.1,50.4,32.7,45.6,34.3,46.4"/>
			<path id="XMLID_801_" class="st2" d="M34.3,46.4c0,0-6-0.2-7.6,0.1c-1.6,0.4-5,1.9-6.1,1.4c0,0,4,3.2,6.9,2.6
				C30.4,50,34.3,46.4,34.3,46.4"/>
			<path id="XMLID_800_" class="st10" d="M35.2,31.4c0,0,5.4,1.2,5,7.3C40.2,38.7,36,33.4,35.2,31.4"/>
			<path id="XMLID_799_" class="st2" d="M36.9,34.1c0,0,3.7,3.5,3.4,5.4s-2.1,6.3-3.4,6.2c-1.3-0.1-3.1-0.3-3.1-0.3
				S37.8,35.5,36.9,34.1"/>
			<path id="XMLID_798_" class="st4" d="M15.6,45.6c0,0-2.9-6.7,0.9-11.4c0,0-3,0.5-4.5,2.2c-1.5,1.8,0.2,8.2,0.6,8.3L15.6,45.6z"/>
			<path id="XMLID_797_" class="st5" d="M16.5,34.2c0,0-1.9,1.9-2.1,3.7c-0.2,2.2-0.2,6,1.2,7.8l4.3,2h0.6
				C20.4,47.7,16.9,41.3,16.5,34.2"/>
			<path id="XMLID_796_" class="st8" d="M33.9,45.6c0,0,3.7-9.7-0.4-15.1s-11.1-2.1-12.6-0.9c-1.6,1.2-8.9,5-0.4,18
				C20.4,47.7,28.9,43.2,33.9,45.6"/>
			<path id="XMLID_795_" class="st4" d="M34.1,31.1c0.5-0.2-3.4-5.3-6.9-5.2c-3.4,0.1-4.4,2-5.6,2.3c-1.1,0.3-3.7,0.7-4.7,1.9
				c-0.9,1.2-0.9,5.5-0.5,6s0.3,0,0.3,0s0.2-3.4,2.5-5.2c2.5-2,4.3-2.6,7.4-2.5C31.6,28.5,34.1,31.1,34.1,31.1"/>
			<path id="XMLID_794_" class="st11" d="M34.5,39.3c0.1,0.6,0.9-4.2-0.8-5.8c-1.7-1.6-6.7-2.6-7.3-2C25.7,32.1,33.9,32.3,34.5,39.3
				"/>
			<path id="XMLID_793_" class="st11" d="M31.4,36.3c0,0-1.7-2-3.1-2c-1.3,0-2.5,0.7-2.9,1.6C25.4,35.9,26.9,34.3,31.4,36.3"/>
			<path id="XMLID_792_" class="st11" d="M31.5,35.4c0,0,2.2-0.2,2.3,2.7c0,2.9-1,6.7-1.6,6.6c-0.6,0,0.3-4.6,0.3-5.6
				c-0.1-1-0.9,3.5-2.7,4.3C29.7,43.4,33.1,37.2,31.5,35.4"/>
			<path id="XMLID_791_" class="st11" d="M29.1,42.9c0,0.4,1.7-3.8,1.1-5.4c-0.6-1.6-1.8-2.1-2.7-1.9c-1.9,0.3-2.4,3.3-1.4,3.4
				c0.7,0.1,0.5-2,1.6-1.9C29.3,37.2,29.3,39.9,29.1,42.9"/>
			<path id="XMLID_790_" class="st5" d="M22.4,32.8c0,0-3-0.4-3.6,1.7c-0.5,2.1-0.6,9.5,2.7,12.6l7-2.6c-1.1-2.1-4.4-2.6-5.5-4.7
				C22.1,38,23.4,34.6,22.4,32.8"/>
			<path id="XMLID_789_" class="st11" d="M21.2,32.6c0.5,0.1-1.4,1.7-1.6,3s-1.1,4.9-1.5,4.9C17.6,40.4,17.2,32,21.2,32.6"/>
			<path id="XMLID_788_" class="st9" d="M21,39.1c0,0-1.5,1.1-1,3c0.5,1.8,1.1,5,1.1,5l-0.7,0.6c0,0-3.5-6,0.4-9.5L21,39.1z"/>
			<path id="XMLID_787_" class="st11" d="M31.1,34c0,0-6.5-0.7-7.4,2.1c-0.9,2.7-0.5,6.3,7.3,8.6c0,0-6.5-0.1-9.1-3.6
				C19.4,37.5,20.1,30.5,31.1,34"/>
			<path id="XMLID_786_" class="st11" d="M32.3,31.1c0,0-3.6-2.8-6.3-1.6c-2.8,1.3-4.3,3.2-4.3,4.7C21.6,35.8,24.1,28.9,32.3,31.1"
				/>
			<path id="XMLID_785_" class="st2" d="M41.7,39.1c0,0,1.6,2.5,2,3.8c0.4,1.4-0.7,4.8-1.8,7.1s-3.9,7.4-12.6,4.8
				C29.2,54.8,32,46.7,41.7,39.1"/>
			<path id="XMLID_784_" class="st9" d="M29,55.5c0,0,4-8.2,10.7-10.3c0,0-6.2,0.8-8.5,3.4C28.9,51.2,27,53.5,29,55.5"/>
			<path id="XMLID_783_" class="st9" d="M35.2,31.4c0,0,4.6-1.9,6.3,2.2c2.4,5.7-2.2,12-3.9,11.4c0,0,3.4-6.5,2.2-9.1
				C38.9,34,38.1,32.1,35.2,31.4"/>
			<path id="XMLID_782_" class="st9" d="M48.5,39.7c0.6-0.2,0.3,3.8-0.5,5.4c-0.8,1.7-1.4,1.7-1.5,2.6c-0.1,0.9-0.4,3.4-1.8,5.1
				c-1.4,1.7-5.5,6.7-7.1,5.4s5.3-6,5.5-8.2C43.2,47.9,45.8,40.7,48.5,39.7"/>
			<path id="XMLID_781_" class="st9" d="M36,46c0,0-2.7,1.2-4,1.1c-1.3-0.2-3.7-1-4.7-0.7s-1.9,1.1-3.1,1.5s-3.6,0.2-4.2,0
				c0,0,4.9-3.2,7.6-3.4C30.1,44.3,35.6,45.2,36,46"/>
			<path id="XMLID_780_" class="st6" d="M39,55.6c0.4,0-5.1,4.8-11.8,4.2c-1.6-0.1-9.4-4.5-10.2-4.9c-3.8-2.1-2.8-3.5-2.9-4
				C14.1,50.4,31.1,56.7,39,55.6"/>
			<path id="XMLID_779_" class="st9" d="M33.6,45.4c0,0,0.1,0.3,0.3,0c1-1.5,3.8-6.6,3.1-10.6C36.1,30,33.8,31,33.8,31
				S37.2,37.8,33.6,45.4"/>
			<path id="XMLID_778_" class="st4" d="M45.9,83.4c0,0,4.7-2,8.7,3.2s1.6,5.9,3,7.8s4.1,4.2,3.9,5.7c-0.2,1.4-3.1,3.4-3.7,5.1
				c-0.7,1.7-1,4.7-4.2,6.5s-5.8-0.1-5.8-0.1L45.9,83.4z"/>
			<path id="XMLID_777_" class="st5" d="M45.2,83.6c0,0,4.6,1,6.3,1.9s5.3,3.3,4.3,6.9s-4.1,3.1-4.5,7.3c-0.5,4.3,3.7,8.4,3.4,9.8
				c-0.3,1.3-6.5,1.6-6.5,1.6L45.2,83.6z"/>
			<path id="XMLID_776_" class="st4" d="M20.5,78.5c0,0-6.3-3.4-7.7-2.9c-1.3,0.6-1.3,2-2.9,2.9c-1.7,0.9-7.4,1.6-8.8,4.5
				s-1.3,12.8-0.3,14.6c1,1.8,6.6,5.9,6.6,5.9S21.5,93.4,20.5,78.5"/>
			<path id="XMLID_775_" class="st5" d="M20.5,80.3c0,0-3.4-2.2-6.7-0.2c-3.4,2-3.4,3.6-5.2,4.9s-6.4,3.2-6.5,5.7
				c-0.2,2.5,1.8,10.3,5.5,11.7C11.3,103.9,21.7,83.3,20.5,80.3"/>
			<path id="XMLID_774_" class="st4" d="M12.4,75.9c0,0-1.6-2.4-0.8-4.4s4.5-2.2,5.4-3c1-0.9,1.6-4,5-4s3.7,0,5.3,0.7
				c1.6,0.7,3.1,3.8,5.3,4s6.7,1.7,9,4.3c2.3,2.6,4.5,9,4.1,12.2C45.7,85.6,13.4,78.6,12.4,75.9"/>
			<path id="XMLID_773_" class="st5" d="M17.4,77.1c0,0,0.7-6,5.8-6s9.1,3.8,9.1,3.8l-0.6,7C31.7,81.9,19.2,81.7,17.4,77.1"/>
			<path id="XMLID_772_" class="st4" d="M45.8,120c1.7-2.1,3.3-6.8,4.2-12.2c1-6.2,1-13.2-1.1-18.2c-3.9-9.4-8.8-7.3-10.9-9.5
				c0,0-3-3-5.9-5.2c-2.2-1.7-4.4-2.9-4.9-1.7c-1.2,2.7,7.4,8.2,8.2,9.7s2.6,2.3,3.5,6.3s5.2,14.2,5.2,17.9
				c0.1,3.7,0.8,13.4-5.1,15.1s-5.5-6.6-5.5-6.6l-0.8,0.6c0,0-0.2,4.4,1.9,6.3C36.6,124.1,42.2,124.5,45.8,120"/>
			<path id="XMLID_771_" class="st6" d="M50,107.7c1-6.2,1-13.2-1.1-18.2C45,80.1,40.1,82.2,38,80c0,0-3-3-5.9-5.2
				c-0.3,0.7-0.7,2.3,0.4,4.2c1.5,2.5,6,3.8,6.8,5.5c0.7,1.6,5.9,21.1,7.7,21.9C48,106.7,49,107.5,50,107.7"/>
			<path id="XMLID_770_" class="st2" d="M35.8,84.3c0,0-1.8-4.7-7.2-6s-11.2,2.2-11.2,2.2L35.8,84.3z"/>
			<path id="XMLID_769_" class="st7" d="M13.6,83.3c0,0-5.4,1.6-6.2,3.2c-0.8,1.7-1.5,3.5,0.5,3.6c2,0.2,6.2-0.7,6.2-0.7
				s-3.5-0.2-2.4-1.7s4.7-3.9,4.7-3.9L13.6,83.3z"/>
			<path id="XMLID_768_" class="st5" d="M33.1,115.3c0,0,0.1,6.9,3.4,7.1c3.3,0.2,10.1-0.4,7.3-18.9c0,0-3.9-18-9-21.3
				C34.8,82.2,38.1,112.7,33.1,115.3"/>
			<path id="XMLID_767_" class="st8" d="M36.4,112.8c0,0,2,2.9,3.7,1.4s-0.7-6.3-0.7-6.3L36.4,112.8z"/>
			<path id="XMLID_766_" class="st2" d="M33.6,114.9c0,0,5.5-3.5,5.8-7.1s-2-10.1-2-10.1S31.8,111.9,33.6,114.9"/>
			<path id="XMLID_765_" class="st9" d="M36.7,97.9c0.6-0.3,0.8,5.1,0,7.4c-0.8,2.4-2.8,3.9-2.6,4.8s0.8,1.3,0.7,2.4s-1.5,4-2.2,4
				C31.9,116.6,32.9,99.7,36.7,97.9"/>
			<path id="XMLID_764_" class="st10" d="M19.9,84.2l-0.5,1.3c0,0,13.2-3.4,17.1,11.1l0.7-0.2c0,0-1.7-9.4-2.2-10.7
				C34.6,84.3,25.5,82.6,19.9,84.2"/>
			<path id="XMLID_763_" class="st10" d="M25.3,94.8c0,0,8.2,4.4,12.2,1.8c0,0-4.3,7.6-4.6,12.3c0,0-0.6-4.5-0.8-7.6
				C31.8,98.6,25.1,96.8,25.3,94.8"/>
			<path id="XMLID_762_" class="st10" d="M8.6,100.8c0,0-1-6.3,5.8-8.6C14.4,92.2,10.5,99,8.6,100.8"/>
			<path id="XMLID_761_" class="st2" d="M10.9,97.3c0,0,2.1-5.5,4.3-6s7.7-0.5,8.2,1s1,3.4,1,3.4S12,95.6,10.9,97.3"/>
			<path id="XMLID_760_" class="st4" d="M32.5,115.3c0,0-6,6-12.7,4c0,0,1.8,3,4.3,3.9c2.5,0.8,8.8-3.8,8.8-4.2L32.5,115.3z"/>
			<path id="XMLID_759_" class="st5" d="M19.8,119.3c0,0,2.9,1.2,4.9,0.6c2.5-0.7,6.6-2.4,7.9-4.7l0.3-5.5l-0.2-0.6
				C32.7,109.2,27.3,115.7,19.8,119.3"/>
			<path id="XMLID_758_" class="st8" d="M24.6,95.5c0,0-12.1,0.2-16.1,7c-4,6.7,2.5,12.9,4.5,14.1s9.2,7.4,19.7-7.4
				C32.7,109.2,24.1,101.9,24.6,95.5"/>
			<path id="XMLID_757_" class="st4" d="M8.9,101.6c-0.4-0.5-4.3,6-2.7,9.7c1.6,3.6,4,3.9,4.9,5c0.8,1.1,2.4,3.7,4,4.2
				c1.7,0.5,6.3-1.3,6.7-2c0.4-0.7-0.1-0.3-0.1-0.3s-3.8,1.2-6.7-0.4c-3.3-1.8-4.6-3.5-5.9-6.9C7.1,105.3,8.9,101.6,8.9,101.6"/>
			<path id="XMLID_756_" class="st11" d="M17.5,97.6c0.6-0.3-5,0.9-6,3.5s0.1,8.3,1,8.7C13.5,110.1,10.2,101.2,17.5,97.6"/>
			<path id="XMLID_755_" class="st11" d="M15.6,102.2c0,0-1.4,2.8-0.8,4.2c0.6,1.4,1.9,2.4,3,2.5C17.8,108.9,15.4,107.9,15.6,102.2"
				/>
			<path id="XMLID_754_" class="st11" d="M14.6,102.5c0,0-1.2-2.3,2-3.6c3.1-1.3,7.7-1.8,7.9-1.2c0.2,0.6-5.2,1.6-6.2,2.1
				s4.2-0.6,5.8,1.1C24.1,101,15.8,100,14.6,102.5"/>
			<path id="XMLID_753_" class="st11" d="M23.7,101.8c0.5-0.2-4.8-0.2-6.3,1.2c-1.5,1.4-1.5,2.8-0.9,3.8c1.2,2,4.6,1.2,4.2,0.1
				c-0.2-0.8-2.3,0.3-2.7-0.9C17.5,104.1,20.5,102.9,23.7,101.8"/>
			<path id="XMLID_752_" class="st5" d="M15.7,113.4c0,0,0.9,3.5,3.4,3.1c2.5-0.3,10.5-3.5,12.5-8.3l-5.8-6.5
				c-1.8,2.1-0.9,5.8-2.7,7.9C21.5,111.5,17.2,111.7,15.7,113.4"/>
			<path id="XMLID_751_" class="st11" d="M16,114.9c-0.1-0.5,2.4,0.8,3.9,0.5c1.5-0.4,5.8-1,6-0.5C26,115.4,17.1,119.4,16,114.9"/>
			<path id="XMLID_750_" class="st9" d="M23.1,112.2c0,0,1.9,1.1,3.7-0.2c1.8-1.3,5-3.4,5-3.4l0.9,0.5c0,0-4.9,6.4-10.5,3.7
				L23.1,112.2z"/>
			<path id="XMLID_749_" class="st11" d="M13.2,103.5c0,0,2.1,7.4,5.4,7.1c3.4-0.2,7-2.2,6.1-11.7c0,0,2.6,7,0,11.4
				C22.1,114.7,14.3,117,13.2,103.5"/>
			<path id="XMLID_748_" class="st11" d="M9.6,103.5c0,0-1.5,5.1,1.1,7.5s5.3,3.2,7,2.6C19.3,113,10.8,113.3,9.6,103.5"/>
			<path id="XMLID_747_" class="st2" d="M14.2,89.9c0,0,2-2.8,3.3-3.8S23,84.8,26,85s9.7,1.1,10.6,11.6
				C36.6,96.6,26.6,97.1,14.2,89.9"/>
			<path id="XMLID_746_" class="st9" d="M37.5,96.5c0,0-10.7-0.8-15.8-7.1c0,0,3.5,6.4,7.4,7.7C32.8,98.5,36.2,99.5,37.5,96.5"/>
			<path id="XMLID_745_" class="st9" d="M8.6,100.3c0,0-4-4.1-0.3-7.8c5.1-5.1,14-2.8,14-0.7c0,0-8.5-0.9-10.8,1.6
				C9.9,95.2,8.2,96.8,8.6,100.3"/>
			<path id="XMLID_744_" class="st9" d="M11.9,82.3c-0.5-0.6,4-1.9,6.1-1.8s2.5,0.8,3.5,0.5s3.9-1,6.3-0.2s9.6,3,8.9,5.3
				c-0.7,2.3-8.8-3.1-11.2-2.4C23.1,84.4,14.1,84.7,11.9,82.3"/>
			<path id="XMLID_743_" class="st6" d="M33.2,85.6c-0.2-0.4,7.4,3.4,9.7,10.9c0.5,1.8-0.8,12-0.9,13.1c-0.6,5-2.6,4.6-3.1,4.9
				S37.8,93.7,33.2,85.6"/>
			<path id="XMLID_742_" class="st9" d="M24.5,95.9c0,0,0.2-0.3-0.2-0.3c-2-0.4-8.8-1.3-12.7,1.3C6.8,100,8.8,102,8.8,102
				S14.7,95.3,24.5,95.9"/>
			<path id="XMLID_741_" class="st12" d="M54.9,72.1c0,0,2.5,1.3,1.7,4.8s-1.9,2.7-2.2,4c-0.3,1.2-0.3,3.2-1,3.6s-2.5-0.1-3.4,0.2
				c-0.9,0.3-2.3,1.2-4.2,0.5s-2-2.5-2-2.5L54.9,72.1z"/>
			<path id="XMLID_740_" class="st13" d="M54.6,71.9c0,0,1.2,2.3,1.4,3.3s0.5,3.4-1.4,4.2c-1.8,0.9-2.7-0.6-4.7,0.7
				c-2,1.3-2.2,4.5-2.9,4.8c-0.7,0.4-2.9-2.1-2.9-2.1L54.6,71.9z"/>
			<path id="XMLID_739_" class="st14" d="M48,59.8c0,0-0.8-3.8-1.5-4.2s-1.3,0.2-2.2-0.2c-1-0.4-3.3-2.5-5-2.1s-5.8,3.9-6.2,5
				S33,63.1,33,63.1S42.2,65.4,48,59.8"/>
			<path id="XMLID_738_" class="st15" d="M47.3,60.4c0,0-0.3-2.2-2.3-2.9s-2.7-0.1-3.9-0.4c-1.2-0.3-3.6-1.5-4.7-0.7
				c-1.1,0.8-3.7,4.4-3,6.4C34.2,64.9,46.5,62,47.3,60.4"/>
			<path id="XMLID_737_" class="st14" d="M46.3,55.5c0,0,0.5-1.5,1.5-1.9c1.1-0.4,2.5,1.1,3.2,1.2c0.7,0.1,2.2-0.7,3.4,0.7
				s1.3,1.5,1.6,2.4s-0.5,2.6,0.2,3.6s1.7,3.4,1.4,5.3s-2.2,5-3.6,6C54,72.8,45.5,56.9,46.3,55.5"/>
			<path id="XMLID_736_" class="st15" d="M47.5,58c0,0,2.7-1.8,4.5,0.3s1.6,5.1,1.6,5.1l-3.1,2.2C50.6,65.6,46.2,60.4,47.5,58"/>
			<path id="XMLID_735_" class="st16" d="M39.6,84.9c1.5,0,4-1,6.6-2.6c2.9-1.7,5.9-4.2,7.2-6.9c2.6-5-0.1-6.2,0.1-7.9
				c0,0,0.2-2.3,0.1-4.3c-0.1-1.5-0.4-2.8-1-2.6c-1.6,0.4-0.8,5.9-1.2,6.8s0,1.9-1.4,3.7c-1.3,1.8-4.1,7.1-5.6,8.5
				c-1.5,1.3-5.3,5-8.1,3.2c-2.8-1.9,0.8-4.6,0.8-4.6L36.7,78c0,0-1.9,1.5-2,3C34.7,82.5,36.5,85,39.6,84.9"/>
			<path id="XMLID_734_" class="st17" d="M46.2,82.4c2.9-1.7,5.9-4.2,7.2-6.9c2.6-5-0.1-6.2,0.1-7.9c0,0,0.2-2.3,0.1-4.3
				c-0.4,0.1-1.2,0.5-1.6,1.6c-0.5,1.5,0.5,3.9,0.1,4.7c-0.4,0.9-6.8,9.9-6.4,10.9C45.9,81.2,46,81.9,46.2,82.4"/>
			<path id="XMLID_733_" class="st18" d="M51.3,68.7c0,0,1-3-0.3-5.7s-4.9-3.9-4.9-3.9L51.3,68.7z"/>
			<path id="XMLID_732_" class="st19" d="M43.6,58.6c0,0-2.6-1.7-3.5-1.4c-1,0.3-2,0.6-1.3,1.5c0.6,0.9,2.5,2.3,2.5,2.3
				s-1.2-1.5-0.1-1.6c1-0.1,3.3,0.6,3.3,0.6L43.6,58.6z"/>
			<path id="XMLID_731_" class="st15" d="M37.1,78c0,0-2.9,2.4-1.8,3.9c1.1,1.5,3.7,4.1,10.5-3.6c0,0,6.2-7.9,5.7-11.2
				C51.5,67.1,40,79.1,37.1,78"/>
			<path id="XMLID_730_" class="st20" d="M39.3,78.5c0,0-0.5,1.8,0.7,2s2.4-2.5,2.4-2.5L39.3,78.5z"/>
			<path id="XMLID_729_" class="st12" d="M37.5,78.1c0,0,3.4,1.1,5-0.1s3.5-4.4,3.5-4.4S38.1,76.3,37.5,78.1"/>
			<path id="XMLID_728_" class="st1" d="M45.6,73.4c0.3,0.1-1.8,2.1-3.1,2.6s-2.6,0.2-2.9,0.6c-0.3,0.4-0.3,0.8-0.8,1.1
				c-0.5,0.4-2.2,0.8-2.5,0.5C36.1,77.9,43.6,72.4,45.6,73.4"/>
			<path id="XMLID_727_" class="st12" d="M45.5,61.5l-0.7,0.3c0,0,6.1,4.3,1.4,11l0.3,0.2c0,0,3.3-4,3.7-4.7
				C50.6,67.7,48.1,63.3,45.5,61.5"/>
			<path id="XMLID_726_" class="st12" d="M42.9,67.5c0,0,1.1,5,3.5,5.7c0,0-4.7,0.9-6.8,2.4c0,0,1.7-1.8,2.9-3
				C43.6,71.6,42,68.1,42.9,67.5"/>
			<path id="XMLID_725_" class="st12" d="M42.9,67.5c0,0-1.9,3.3-2.2,4.3s-0.4,3.4-1,3.8c0,0,3-1.3,3.6-3.1
				C43.8,70.7,42.9,67.5,42.9,67.5"/>
			<path id="XMLID_724_" class="st12" d="M34.8,62.5c0,0,2.3-2.6,5.6-0.6C40.4,61.9,36.2,62.6,34.8,62.5"/>
			<path id="XMLID_723_" class="st21" d="M36.8,62.4c0,0,3-1,4-0.3c1,0.8,2.9,3.1,2.5,3.8s-1.1,1.6-1.1,1.6S37.9,62.3,36.8,62.4"/>
			<path id="XMLID_722_" class="st14" d="M36.9,77.7c0,0-4.6-0.4-6.1-3.9c0,0-0.6,1.8-0.1,3.2c0.5,1.4,4.7,2.3,4.8,2.2L36.9,77.7z"
				/>
			<path id="XMLID_721_" class="st22" d="M30.8,73.8c0,0,0.5,1.6,1.5,2.3c1.2,0.8,3.3,1.9,4.7,1.6l2.4-1.8l0.2-0.3
				C39.5,75.6,34.9,75.7,30.8,73.8"/>
			<path id="XMLID_720_" class="st20" d="M42.4,67.5c0,0-4.4-5-8.6-4.3s-4.5,5.6-4.3,6.8c0.2,1.3,0.1,6.5,10,5.6
				C39.5,75.6,39.5,69.5,42.4,67.5"/>
			<path id="XMLID_719_" class="st23" d="M34.3,63c0.1-0.3-4,0.3-5,2.3c-1,1.9-0.2,3.1-0.4,3.8c-0.2,0.7-0.7,2.3-0.3,3.2
				c0.4,0.9,2.8,2.2,3.2,2.1c0.4-0.1,0.1-0.2,0.1-0.2s-1.8-1.1-2.2-3c-0.4-2-0.2-3.2,0.8-4.9C32.1,63.6,34.3,63,34.3,63"/>
			<path id="XMLID_718_" class="st24" d="M39,65.3c0.4,0.2-2.1-1.8-3.5-1.3c-1.4,0.5-3.4,3-3.3,3.5C32.4,68,34.9,63.5,39,65.3"/>
			<path id="XMLID_717_" class="st1" d="M36.4,66.1c0,0-1.6,0.4-2,1.1c-0.4,0.8-0.3,1.6,0,2.1C34.4,69.3,34,68,36.4,66.1"/>
			<path id="XMLID_716_" class="st12" d="M36,65.8c0,0,0.6-1.3,2.2-0.5c1.6,0.9,3.4,2.6,3.3,2.9c-0.2,0.3-2.5-1.6-3.1-1.8
				c-0.6-0.2,1.7,1.5,1.6,2.8C39.9,69.2,37.4,65.4,36,65.8"/>
			<path id="XMLID_715_" class="st19" d="M39.5,69.3c0.2,0.1-1.6-2.1-2.7-2.2C35.7,67,35,67.5,34.9,68c-0.4,1.2,1.1,2.3,1.5,1.8
				c0.2-0.4-0.9-0.9-0.6-1.4C36.3,67.5,37.8,68.4,39.5,69.3"/>
			<path id="XMLID_714_" class="st13" d="M31.8,70.1c0,0-1.1,1.6-0.1,2.5c1,0.9,5.1,3.2,7.9,2.3l0.6-4.7c-1.5,0-2.8,1.7-4.3,1.6
				C34.6,71.8,33.1,70.1,31.8,70.1"/>
			<path id="XMLID_713_" class="st1" d="M31.3,70.7c0.2-0.2,0.5,1.3,1.2,1.8s2.5,2.1,2.3,2.3C34.6,75.1,29.8,72.7,31.3,70.7"/>
			<path id="XMLID_712_" class="st1" d="M34.9,72.7c0,0,0.2,1.2,1.4,1.5s3.1,0.9,3.1,0.9l0.1,0.6c0,0-4.4,0.2-5.2-3.1L34.9,72.7z"/>
			<path id="XMLID_711_" class="st1" d="M35,65.5c0,0-2.3,3.5-1.1,4.8c1.3,1.3,3.4,2.2,7-1.5c0,0-2,3.6-4.7,4
				C33.5,73.2,29.8,70.7,35,65.5"/>
			<path id="XMLID_710_" class="st24" d="M33.8,64c0,0-2.7,1.2-2.8,3.1c-0.1,1.9,0.5,3.4,1.4,3.8C33.2,71.4,30.1,68,33.8,64"/>
			<path id="XMLID_709_" class="st12" d="M41.1,61.2c0,0,1.9-0.2,2.7,0c0.9,0.2,2.5,1.8,3.5,3.2c1,1.3,3,4.4-1.1,8.5
				C46.2,72.8,42.4,68.9,41.1,61.2"/>
			<path id="XMLID_708_" class="st1" d="M46.5,73.2c0,0-3.4-4.7-2.6-9.1c0,0-1.4,3.7-0.6,5.8C44,72,44.8,73.7,46.5,73.2"/>
			<path id="XMLID_707_" class="st25" d="M34.8,62.5c0,0,0.3-3.1,3.2-2.9c3.9,0.3,6.1,4.8,5.2,5.6c0,0-2.6-3.9-4.5-3.9
				C37.4,61.2,36.1,61.1,34.8,62.5"/>
			<path id="XMLID_706_" class="st1" d="M43.5,57.5c0.1-0.4,2.2,1,2.9,1.9s0.5,1.3,1,1.6s1.8,1.3,2.3,2.6c0.5,1.3,2.1,5.1,0.9,5.6
				c-1.2,0.5-1.8-4.7-3-5.5C46.5,62.9,43.2,59.3,43.5,57.5"/>
			<path id="XMLID_705_" class="st1" d="M43.2,66.4c0,0-0.1,1.9-0.6,2.6s-1.6,1.8-1.8,2.4c-0.2,0.7,0.1,1.4-0.1,2.2
				c-0.1,0.8-1,2.1-1.3,2.4c0,0-0.4-3.7,0.3-5.3C40.5,69.2,42.7,66.3,43.2,66.4"/>
			<path id="XMLID_704_" class="st1" d="M49.6,67.6c0.1-0.2,1.2,4.3-1.2,7.9c-0.6,0.8-5.3,3.9-5.8,4.2c-2.3,1.5-2.8,0.5-3.1,0.4
				S47.8,72.3,49.6,67.6"/>
			<path id="XMLID_703_" class="st1" d="M42.2,67.6c0,0,0.2,0,0.1-0.2c-0.5-1-2.5-4.1-5-4.9c-3-0.9-3.1,0.6-3.1,0.6
				S39,63.3,42.2,67.6"/>
		</g>
	</g>
</g>
</svg>
