<?xml version="1.0" encoding="utf-8"?>
<!-- Generator: Adobe Illustrator 19.2.1, SVG Export Plug-In . SVG Version: 6.00 Build 0)  -->
<svg version="1.1" id="Capa_1" xmlns="http://www.w3.org/2000/svg" xmlns:xlink="http://www.w3.org/1999/xlink" x="0px" y="0px"
	 width="181.3px" height="181.3px" viewBox="0 0 181.3 181.3" style="enable-background:new 0 0 181.3 181.3;" xml:space="preserve"
	>
<style type="text/css">
	.st0{fill:#FFB546;}
	.st1{fill:#212844;}
</style>
<g>
	
		<rect x="26.6" y="26.6" transform="matrix(0.7071 -0.7071 0.7071 0.7071 -37.5692 90.7)" class="st0" width="128.3" height="128.3"/>
	<path class="st1" d="M128.7,114.3c0.5,0,0.8,0.4,0.8,0.8v0.6c0,0.5-0.4,0.8-0.8,0.8H98.4c-0.5,0-0.8-0.4-0.8-0.8v-0.6
		c0-0.5,0.4-0.8,0.8-0.8h6.3v-42L89.2,116c-0.1,0.3-0.4,0.6-0.8,0.6h-0.6c-1.2,0-2.5-0.9-3.9-2.7c-1.2-1.6-2.5-3.8-3.8-6.3
		c-1.3-2.6-2.7-5.5-4.1-8.7s-2.9-6.4-4.3-9.6c-1.4-3.1-2.9-6.2-4.3-9c-0.2-0.5-0.4-0.9-0.6-1.3c-0.5-1.1-1-2-1.5-3v35.8
		c0,0.7,0.2,1.7,0.8,2.3c0.3,0.3,1,0.4,1.6,0.4c0.2,0,0.3,0,0.4,0s0.3,0,0.4,0h3.9c0.5,0,0.8,0.4,0.8,0.8v0.6c0,0.5-0.4,0.8-0.8,0.8
		h-17c-0.5,0-0.8-0.4-0.8-0.8v-0.6c0-0.5,0.4-0.8,0.8-0.8h4.1c0.7,0,1.3-0.2,1.8-0.8c0.5-0.5,0.8-1.1,0.8-1.8V72.2
		c-0.3-0.4-0.7-0.8-1-1.2c-0.4-0.4-0.7-0.7-1-1c-0.5-0.3-0.9-0.7-1.2-0.9c-0.4-0.4-0.8-0.7-1.3-0.9c-1-0.4-1.9-0.7-2.6-0.9
		c-1-0.1-1.8-0.3-2.5-0.3c-0.4,0-0.8-0.4-0.8-0.8v-0.6c0-0.5,0.4-0.8,0.8-0.8h13.9c1.3,0.1,2.7,0.2,4.1,0.5c1.2,0.3,2.5,0.7,4,1.3
		c1.4,0.6,2.9,1.5,4.3,2.6c1.4,1.2,2.7,2.8,3.9,4.6c1.2,1.8,2.3,3.7,3.3,5.7s1.9,4.1,2.8,6.1c0.8,2.1,1.6,4,2.3,5.8
		c0.6,1.4,1.1,2.8,1.6,3.9c1.6-3.4,7.3-19.3,11.1-30.1c0.2-0.5,1.7-0.6,1.9-0.6h23.1c0.5,0,0.8,0.4,0.8,0.8V66
		c0,0.5-0.4,0.8-0.8,0.8h-6.3v47.3h6.2V114.3z"/>
</g>
</svg>
