<?xml version="1.0" encoding="utf-8"?>
<!-- Generator: Adobe Illustrator 19.2.1, SVG Export Plug-In . SVG Version: 6.00 Build 0)  -->
<svg version="1.1" id="Capa_1" xmlns="http://www.w3.org/2000/svg" xmlns:xlink="http://www.w3.org/1999/xlink" x="0px" y="0px"
	 width="628.3px" height="114px" viewBox="0 0 628.3 114" style="enable-background:new 0 0 628.3 114;" xml:space="preserve">
<style type="text/css">
	.st0{fill:#1D1D1B;}
	.st1{fill:#FFB547;}
	.st2{fill:#65CBC9;}
	.st3{fill:#007573;}
	.st4{fill:#222944;}
	.st5{fill:none;stroke:#1D1D1B;stroke-width:4.4983;stroke-miterlimit:10;}
	.st6{fill:#FFFFFF;}
	.st7{fill:#3C3C3B;}
	.st8{fill:none;stroke:#1D1D1B;stroke-miterlimit:10;}
	.st9{fill:#6F6F6E;}
	.st10{fill:#79A5B1;}
	.st11{fill:#74C1C2;}
	.st12{fill:#169595;}
	.st13{fill:#95CECD;}
	.st14{fill:#6DC2C2;}
	.st15{fill:#83C3C2;}
	.st16{fill:#076F6E;}
	.st17{fill:#B1DBD9;}
	.st18{fill:#049192;}
	.st19{fill:#C5E2E4;}
	.st20{fill:#F5EBD9;}
	.st21{fill:#EAD3AF;}
	.st22{fill:#F9E5CD;}
	.st23{fill:#E9D2AD;}
	.st24{fill:#F5E6CC;}
	.st25{fill:#F8F0E6;}
	.st26{fill:#FAEFDB;}
	.st27{fill:#F6E8D9;}
	.st28{fill:#EAD2AD;}
	.st29{fill:#DAB989;}
	.st30{fill:#F7E9DA;}
	.st31{fill:#F8EADA;}
	.st32{fill:#FAE9DA;}
	.st33{fill:#FBF8EB;}
	.st34{fill:#EDD4AF;}
	.st35{fill:#F2E4C6;}
	.st36{fill:#FCFBF3;}
	.st37{fill:#F5ECE0;}
	.st38{fill:#F6E9DC;}
	.st39{fill:#EDD3AD;}
	.st40{fill:#FFFFFD;}
	.st41{fill:#FFFFFF;stroke:#222944;stroke-width:0.25;stroke-miterlimit:10;}
	.st42{fill:#65AEAB;}
	.st43{fill:#82BCB9;}
	.st44{fill:#008C89;}
	.st45{fill:#9CCAC7;}
	.st46{fill:#7EBBB7;}
	.st47{fill:#89C0BD;}
	.st48{fill:#B9D9D6;}
	.st49{fill:#008885;}
	.st50{fill:#C9E1DF;}
	.st51{fill:#FFEACC;}
	.st52{fill:#FFD290;}
	.st53{fill:#FFE6C2;}
	.st54{fill:#FFD08C;}
	.st55{fill:#FFE5C0;}
	.st56{fill:#FFF0DA;}
	.st57{fill:#FFEED6;}
	.st58{fill:#FFE9C8;}
	.st59{fill:#FFD18E;}
	.st60{fill:#FFF6E8;}
	.st61{fill:#FFD394;}
	.st62{fill:#FFE2B9;}
	.st63{fill:#FFFBF5;}
	.st64{fill:#FFEBCD;}
	.st65{fill:#FFE9C9;}
	.st66{fill:#FFD292;}
	.st67{fill:#74768A;}
	.st68{fill:#8C8E9E;}
	.st69{fill:#333953;}
	.st70{fill:#A4A4B1;}
	.st71{fill:#8A8B9C;}
	.st72{fill:#9395A4;}
	.st73{fill:#BDBDC7;}
	.st74{fill:#313751;}
	.st75{fill:#CBCBD2;}
	.st76{fill:#D9F1EF;}
	.st77{fill:#A7E0DD;}
	.st78{fill:#CFEEEC;}
	.st79{fill:#A4DFDC;}
	.st80{fill:#CEEDEB;}
	.st81{fill:#E4F5F3;}
	.st82{fill:#DFF3F2;}
	.st83{fill:#D6F0EE;}
	.st84{fill:#A6DFDD;}
	.st85{fill:#EFF9F7;}
	.st86{fill:#ABE1DF;}
	.st87{fill:#C9EBE9;}
	.st88{fill:#F9FCFB;}
	.st89{fill:#DAF1EF;}
	.st90{fill:#A9E0DE;}
	.st91{fill:#FFD08B;}
	.st92{fill:#FFD8A0;}
	.st93{fill:#FFBB57;}
	.st94{fill:#FFE0B2;}
	.st95{fill:#FFD79D;}
	.st96{fill:#FFDAA6;}
	.st97{fill:#FFBA55;}
	.st98{fill:#FFEDD3;}
	.st99{fill:#BCDBD8;}
	.st100{fill:#ACD2CF;}
	.st101{fill:#5FABA8;}
	.st102{fill:#AAD1CE;}
	.st103{fill:#CFE4E2;}
	.st104{fill:#C7E0DE;}
	.st105{fill:#B7D8D5;}
	.st106{fill:#E4EFEE;}
	.st107{fill:#6AB1AE;}
	.st108{fill:#9FCBC8;}
	.st109{fill:#F3F8F6;}
	.st110{fill:none;stroke:#6F6F6E;stroke-width:0.25;stroke-miterlimit:10;}
	.st111{clip-path:url(#XMLID_70_);}
	.st112{fill:none;stroke:#FFB547;stroke-miterlimit:10;}
	.st113{fill:#FFFCF3;}
	.st114{fill-rule:evenodd;clip-rule:evenodd;fill:#1D1D1B;}
</style>
<g id="XMLID_1_">
	<polygon id="XMLID_28_" class="st3" points="131.1,100.4 145.7,100.4 145.7,97.4 131.1,97.4 131.1,87.5 147.5,87.5 147.5,84.6 
		128.1,84.6 128.1,113.9 148,113.9 148,111 131.1,111 	"/>
	<polygon id="XMLID_27_" class="st3" points="194.8,109.6 184.6,84.6 181.3,84.6 193.5,113.9 196.1,113.9 208.3,84.6 205,84.6 	"/>
	<polygon id="XMLID_26_" class="st3" points="246.8,100.4 261.4,100.4 261.4,97.4 246.8,97.4 246.8,87.5 263.3,87.5 263.3,84.6 
		243.9,84.6 243.9,113.9 263.8,113.9 263.8,111 246.8,111 	"/>
	<polygon id="XMLID_25_" class="st3" points="322.6,108.7 304.8,84.6 301.9,84.6 301.9,113.9 304.9,113.9 304.9,89.8 322.6,113.9 
		325.5,113.9 325.5,84.6 322.6,84.6 	"/>
	<polygon id="XMLID_24_" class="st3" points="361.6,87.5 371.1,87.5 371.1,113.9 374.1,113.9 374.1,87.5 383.5,87.5 383.5,84.6 
		361.6,84.6 	"/>
	<path id="XMLID_21_" class="st3" d="M429.9,84.6c-8.4,0-15.2,6.6-15.2,14.7c0,8.1,6.8,14.7,15.2,14.7c8.4,0,15.2-6.6,15.2-14.7
		C445.1,91.1,438.3,84.6,429.9,84.6 M442,99.2c0,6.5-5.5,11.8-12.1,11.8c-6.7,0-12.1-5.3-12.1-11.8c0-6.5,5.4-11.8,12.1-11.8
		C436.6,87.5,442,92.8,442,99.2"/>
	<path id="XMLID_20_" class="st3" d="M491,97.5c-3.9-1.2-7.2-2.2-7.2-5.8c0-2.5,2.6-4.1,6.7-4.1c2.5,0,5.2,0.7,7,1.9l0.6,0.4
		l1.3-2.7l-0.5-0.3c-2.3-1.5-5.5-2.4-8.4-2.4c-5.9,0-9.9,2.9-9.9,7.3c0,5.7,4.9,7.2,9.1,8.4c3.9,1.2,7.3,2.2,7.3,6
		c0,2.9-2.8,4.7-7.3,4.7c-3.2,0-6.6-1.4-8.7-3.6l-0.6-0.6l-1.6,2.6l0.4,0.4c2.7,2.6,6.7,4.2,10.4,4.2c6.2,0,10.4-3.1,10.4-7.8
		C500.3,100.3,495.4,98.8,491,97.5"/>
	<path id="XMLID_19_" class="st4" d="M90.1,0H63c-0.4,0-0.8,0.3-0.9,0.6L48.8,38.1c-0.2-0.4-0.4-0.9-0.6-1.4
		c-0.7-1.6-1.4-3.4-2.2-5.5c-0.8-2.1-1.7-4.4-2.7-6.8c-1-2.4-2.1-4.8-3.2-7.2c-1.2-2.4-2.5-4.6-3.8-6.7c-1.4-2.1-2.9-3.9-4.6-5.4
		c-1.6-1.3-3.3-2.3-5-3C25,1.4,23.4,0.9,22,0.6c-1.6-0.3-3.2-0.5-4.8-0.6H1C0.4,0,0,0.4,0,1v0.7c0,0.5,0.4,0.9,0.9,1
		C1.7,2.7,2.7,2.8,3.7,3c0.9,0.2,1.9,0.6,3,1.1s2.4,1.2,3.7,2.1c0.4,0.3,0.8,0.7,1.3,1.1c0.4,0.4,0.8,0.9,1.2,1.4v46.2
		c0,0.9-0.3,1.6-0.9,2.2c-0.6,0.6-1.3,0.9-2.2,0.9H4.2c-0.5,0-1,0.4-1,1v0.7c0,0.5,0.4,1,1,1h20c0.5,0,1-0.4,1-1v-0.7
		c0-0.5-0.4-1-1-1h-5.7c-0.9,0-1.6-0.3-2.2-0.9c-0.6-0.6-0.9-1.3-0.9-2.2V12.6c1,1.6,2,3.5,3,5.5c1.7,3.3,3.3,6.9,5,10.6
		c1.7,3.7,3.3,7.4,5,11.2c1.6,3.7,3.2,7.1,4.8,10.1c1.5,3,3,5.5,4.4,7.4c1.6,2.2,3,3.2,4.5,3.2h0.7c0.4,0,0.8-0.3,0.9-0.6L62,8.8V58
		h-7.4c-0.5,0-1,0.4-1,1v0.7c0,0.5,0.4,1,1,1h35.5c0.5,0,1-0.4,1-1v-0.7c0-0.5-0.4-1-1-1h-7.4V2.6h7.4c0.5,0,1-0.4,1-1V1
		C91,0.4,90.6,0,90.1,0"/>
	<path id="XMLID_16_" class="st4" d="M161.2,41.8c-1-2.4-2.1-4.9-3.2-7.5c-1.1-2.6-2.2-5.2-3.3-7.8s-2.1-5.1-3.1-7.5
		c-1-2.4-1.9-4.6-2.7-6.6c-0.5-1.3-1.2-2.6-2.1-4.1c-0.9-1.5-2-2.8-3.2-4c-1.3-1.2-2.8-2.2-4.5-3c-1.7-0.8-3.7-1.2-5.9-1.2h-15.2
		c-0.5,0-1,0.4-1,1v0.7c0,0.5,0.4,1,1,1c0.7,0,1.5,0.3,2.3,0.9c0.9,0.7,1.9,1.6,2.8,2.7c0.9,1.1,1.8,2.3,2.6,3.5
		c0.7,1.2,1.4,2.2,1.9,3.2L115,54.8c-0.3,1-0.8,1.7-1.7,2.3c-0.9,0.6-1.7,0.9-2.6,0.9H106c-0.5,0-1,0.4-1,1v0.7c0,0.5,0.4,1,1,1
		h17.5c0.5,0,1-0.4,1-1v-0.7c0-0.5-0.4-1-1-1H119c-0.3,0-0.8,0-0.9-0.3c-0.2-0.2-0.3-0.5-0.3-0.9v-0.5l4.2-14.9h17.1
		c1.1,2.7,2.2,5.1,3.3,7.4c1.2,2.5,2.7,4.6,4.3,6.3c1.7,1.8,3.7,3.2,5.9,4.1c2.3,1,5,1.5,8.2,1.5h6.8c0,0,0,0,0,0c0.5,0,1-0.4,1-1
		c0-0.2-0.1-0.5-0.2-0.6C166,53.1,163.6,47.4,161.2,41.8 M122.9,38.7l6.5-21.6l8.7,21.6H122.9z"/>
	<path id="XMLID_13_" class="st4" d="M254.2,58c0,0-0.7,0-2.5-2.3c-1.4-1.8-2.9-3.9-4.5-6.4c-1.7-2.5-3.4-5.1-5.2-7.7
		c-1.8-2.7-3.5-4.9-5-6.7c-1.4-1.7-3.3-3.1-5.6-4c-0.8-0.3-1.7-0.7-2.6-0.9h0.1c1,0,2.6-0.1,4.6-0.3c2.1-0.2,4.2-0.8,6.2-1.7
		c2.1-0.9,3.9-2.3,5.5-4.2c1.6-1.9,2.5-4.6,2.5-7.9c0-1.9-0.3-3.6-0.9-5.1c-0.6-1.5-1.3-2.8-2.3-3.9c-1-1.1-2-2-3.2-2.8
		c-1.2-0.7-2.4-1.3-3.6-1.9c-2.8-1.1-6-1.8-9.6-2.1h-43.9c-0.5,0-1,0.4-1,1v0.7c0,0.5,0.4,1,1,1h7.5v55.3h-7.5c-0.5,0-1,0.4-1,1v0.7
		c0,0.5,0.4,1,1,1h35.3c0.5,0,1-0.4,1-1v-0.7c0-0.5-0.4-1-1-1h-7.4V31.7c0.6,1.1,1.7,2.6,3.2,4.7c1.6,2.3,3.2,4.8,4.7,7.5
		c1.5,2.8,3.2,5.4,5,7.8c1.8,2.5,3.8,4.6,6.1,6.2c2.3,1.7,5.1,2.6,8.2,2.6h14.9c0.5,0,1-0.4,1-1V59C255.2,58.5,254.7,58,254.2,58
		 M212.1,2.7l1.8,0c2.3,0.4,4.5,1.2,6.3,2.2c1.5,0.9,3,2.2,4.3,4c1.3,1.7,1.9,4,1.9,6.8v1.8c0,2.1-0.2,3.8-0.5,5.1
		c-0.3,1.2-0.9,2.1-1.6,2.8c-0.7,0.7-1.7,1.2-3,1.4c-1.3,0.3-3.1,0.4-5.1,0.4h-4.1V2.7z"/>
	<path id="XMLID_12_" class="st4" d="M324.5,36.6h-0.7c-0.5,0-0.9,0.4-1,0.9c-0.2,1.5-0.3,2.9-0.4,4.2c-0.1,1.2-0.2,2.4-0.4,3.6
		c-0.2,1.1-0.5,2.2-1,3.3c-0.4,1-1,2.1-1.8,3.2c-1.1,1.5-2.2,2.7-3.2,3.5c-1,0.8-2.1,1.4-3.2,1.8c-1.1,0.4-2.2,0.7-3.4,0.7
		c-1.3,0.1-2.7,0.1-4.2,0.1H297l27.8-55.9c0.1-0.1,0.1-0.3,0.1-0.4V1c0-0.5-0.4-1-1-1h-45.7c-0.5,0-0.9,0.4-1,0.9L276,17.3
		c0,0.3,0.1,0.5,0.3,0.7c0.2,0.2,0.4,0.3,0.7,0.3h0.7c0.5,0,1-0.4,1-0.9c0.1-1.3,0.2-2.7,0.4-4c0.2-1.1,0.5-2.3,0.9-3.5
		c0.3-1.1,0.9-2.1,1.6-2.9c0.9-1,1.8-1.9,2.7-2.5c0.9-0.6,1.9-1,3-1.3c1.1-0.3,2.2-0.5,3.5-0.5c1.3-0.1,2.7-0.1,4.3-0.1h6.2
		l-27.8,55.9c-0.1,0.1-0.1,0.3-0.1,0.4v0.7c0,0.5,0.4,1,1,1h50c0.5,0,1-0.4,1-0.9l0.3-22c0-0.3-0.1-0.5-0.3-0.7
		C325,36.7,324.8,36.6,324.5,36.6"/>
	<path id="XMLID_9_" class="st4" d="M397.9,41.8c-1-2.4-2.1-4.9-3.2-7.5c-1.1-2.6-2.2-5.2-3.3-7.8c-1.1-2.6-2.1-5.1-3.1-7.5
		c-1-2.4-1.9-4.6-2.7-6.6c-0.5-1.3-1.2-2.6-2.1-4.1c-0.9-1.5-2-2.8-3.2-4c-1.3-1.2-2.8-2.2-4.4-3C374.2,0.4,372.2,0,370,0h-15.2
		c-0.5,0-1,0.4-1,1v0.7c0,0.5,0.4,1,1,1c0.7,0,1.5,0.3,2.3,0.9c0.9,0.7,1.9,1.6,2.8,2.7c0.9,1.1,1.8,2.3,2.5,3.5
		c0.7,1.2,1.4,2.2,1.9,3.2l-12.7,41.9c-0.3,1-0.8,1.7-1.7,2.3c-0.9,0.6-1.7,0.9-2.6,0.9h-4.8c-0.5,0-1,0.4-1,1v0.7c0,0.5,0.4,1,1,1
		h17.5c0.5,0,1-0.4,1-1v-0.7c0-0.5-0.4-1-1-1h-4.4c-0.3,0-0.7,0-0.9-0.3c-0.2-0.2-0.3-0.5-0.3-0.9v-0.5l4.2-14.9h17.1
		c1.1,2.7,2.2,5.1,3.3,7.4c1.2,2.5,2.7,4.6,4.3,6.3c1.7,1.8,3.7,3.2,5.9,4.1c2.3,1,5,1.5,8.2,1.5h6.8c0,0,0,0,0,0c0.5,0,1-0.4,1-1
		c0-0.2-0.1-0.5-0.2-0.6C402.7,53.1,400.3,47.4,397.9,41.8 M359.6,38.7l6.5-21.6l8.7,21.6H359.6z"/>
	<path id="XMLID_8_" class="st4" d="M474.8,32.6h-0.7c-0.5,0-1,0.4-1,1c0,1,0,2.2-0.1,3.5c-0.1,1.3-0.3,2.8-0.5,4.3
		c-0.3,1.5-0.7,3.1-1.3,4.7c-0.6,1.6-1.4,3.2-2.4,4.7c-1,1.5-2.2,2.8-3.5,3.7c-1.3,1-2.7,1.7-4.1,2.2c-1.5,0.5-3,0.9-4.5,1.1
		c-1.6,0.2-3.1,0.3-4.7,0.3h-1.4V2.6h7.5c0.5,0,1-0.4,1-1V1c0-0.5-0.4-1-1-1H423c-0.5,0-1,0.4-1,1v0.7c0,0.5,0.4,1,1,1h7.4V58H423
		c-0.5,0-1,0.4-1,1v0.7c0,0.5,0.4,1,1,1h51.8c0.5,0,1-0.4,1-1v-26C475.8,33,475.4,32.6,474.8,32.6"/>
	<path id="XMLID_7_" class="st4" d="M547.2,32.6h-0.7c-0.5,0-1,0.4-1,1c0,1,0,2.2-0.1,3.5c-0.1,1.3-0.3,2.8-0.5,4.3
		c-0.3,1.5-0.7,3.1-1.3,4.7c-0.6,1.6-1.4,3.2-2.4,4.7c-1,1.5-2.2,2.8-3.5,3.7c-1.3,1-2.7,1.7-4.1,2.2c-1.5,0.5-3,0.9-4.5,1.1
		c-1.6,0.2-3.1,0.3-4.7,0.3h-1.4V2.6h7.5c0.5,0,1-0.4,1-1V1c0-0.5-0.4-1-1-1h-35.1c-0.5,0-1,0.4-1,1v0.7c0,0.5,0.4,1,1,1h7.4V58
		h-7.4c-0.5,0-1,0.4-1,1v0.7c0,0.5,0.4,1,1,1h51.8c0.5,0,1-0.4,1-1v-26C548.1,33,547.7,32.6,547.2,32.6"/>
	<path id="XMLID_2_" class="st4" d="M628.1,59c-2.5-5.8-4.9-11.5-7.3-17.2c-1-2.4-2.1-4.9-3.2-7.5c-1.1-2.6-2.2-5.2-3.3-7.8
		c-1.1-2.6-2.1-5.1-3.1-7.5c-1-2.4-1.9-4.6-2.7-6.6c-0.5-1.3-1.2-2.6-2.1-4.1c-0.9-1.5-2-2.8-3.2-4c-1.3-1.2-2.8-2.2-4.4-3
		c-1.7-0.8-3.7-1.2-5.9-1.2h-15.2c-0.5,0-1,0.4-1,1v0.7c0,0.5,0.4,1,1,1c0.7,0,1.5,0.3,2.3,0.9c0.9,0.7,1.9,1.6,2.8,2.7
		c0.9,1.1,1.8,2.3,2.6,3.5c0.7,1.2,1.4,2.2,1.9,3.2l-12.7,41.9c-0.3,1-0.8,1.7-1.7,2.3c-0.9,0.6-1.7,0.9-2.6,0.9h-4.8
		c-0.5,0-1,0.4-1,1v0.7c0,0.5,0.4,1,1,1h17.5c0.5,0,1-0.4,1-1v-0.7c0-0.5-0.4-1-1-1h-4.4c-0.3,0-0.7,0-0.9-0.3
		c-0.2-0.2-0.3-0.5-0.3-0.9v-0.5l4.2-14.9h17.1c1.1,2.7,2.2,5.1,3.3,7.4c1.2,2.5,2.7,4.6,4.3,6.3c1.7,1.8,3.7,3.2,5.9,4.1
		c2.3,1,5,1.5,8.2,1.5h6.8c0,0,0,0,0.1,0c0.5,0,1-0.4,1-1C628.3,59.3,628.2,59.1,628.1,59 M582.5,38.7l6.5-21.6l8.7,21.6H582.5z"/>
</g>
</svg>
