<?xml version="1.0" encoding="utf-8"?>
<!-- Generator: Adobe Illustrator 22.1.0, SVG Export Plug-In . SVG Version: 6.00 Build 0)  -->
<svg version="1.1" id="Capa_1" xmlns="http://www.w3.org/2000/svg" xmlns:xlink="http://www.w3.org/1999/xlink" x="0px" y="0px"
	 viewBox="0 0 895 872.7" style="enable-background:new 0 0 895 872.7;" xml:space="preserve">
<style type="text/css">
	.st0{fill:#212844;}
</style>
<g id="Capa_1_1_">
	<path class="st0" d="M350.8,84.9c-2.6-1.7-5.8-2.1-9.5-1c-3.4,1-5.8,2.9-7.2,5.7c-1.7,3.5-1.7,7.9,0,13.2c1.7,5.4,4.3,9.2,7.7,11.3
		c2.6,1.6,5.4,2,8.5,1.1c3.3-0.9,5.7-2.9,7.2-5.9s1.7-7.2,0.4-12.5C356.4,91,354.1,87,350.8,84.9z"/>
	<path class="st0" d="M310,102.9c-0.8-2-2.1-3.4-4.1-4.1c-1.9-0.7-4.1-0.6-6.5,0.4c-1.1,0.4-2.4,1.2-4.1,2.2c2.3,5.3,3.4,8,5.7,13.3
		c0.3-0.1,0.6-0.3,0.9-0.4c0.2-0.1,0.5-0.2,0.6-0.2c3.4-1.4,5.7-3.1,6.9-5.1C310.5,107,310.8,105,310,102.9z"/>
	<path class="st0" d="M276.4,114c-1.2-0.8-2.5-1.3-4-1.2s-2.9,0.4-4.4,1.2c-0.9,0.5-2,1.2-3.2,2.2c2.7,5.1,4.1,7.7,6.8,12.8
		c1-0.3,1.8-0.6,2.6-0.9c0.7-0.3,1.3-0.6,1.8-0.8c1.8-0.9,3-2.3,3.7-4.2s0.6-3.8-0.4-5.8C278.6,115.9,277.6,114.8,276.4,114z"/>
	<path class="st0" d="M505.6,73.3c-3.5-0.5-6.5,0.2-8.9,2.3c-3,2.5-4.7,6.5-5.4,12c-0.7,5.6,0.1,10.1,2.3,13.5c1.6,2.5,4,4,7.2,4.5
		c3.4,0.5,6.3-0.3,9-2.4c2.6-2.1,4.5-5.9,5.5-11.3c1.1-5.8,0.6-10.5-1.5-13.8C512.1,75.5,509.3,73.9,505.6,73.3z"/>
	<path class="st0" d="M574.5,111.4c4.9,1.8,7.3,2.7,12.2,4.7c-0.3-6.2-0.5-9.3-1-15.5C581.1,104.9,578.9,107,574.5,111.4z"/>
	<g>
		<g>
			<path class="st0" d="M527.3,378.1c-1.4,1.3-2.8,2.2-4.2,2.7c-1.5,0.5-3.8,0.7-7.1,0.7h-9.8c-1.6,0-2.7-0.2-3.2-0.5
				c-0.6-0.3-1-0.8-1.2-1.3c-0.2-0.6-0.3-2.1-0.3-4.6v-19h12.6c2.4,0,4.2,0.3,5.3,0.8c1.2,0.6,2,1.3,2.5,2.3
				c0.4,0.8,0.8,2.6,1.2,5.4h1.6v-20h-1.6c-0.2,3.3-1,5.6-2.5,6.9c-1.1,1-3.3,1.5-6.6,1.5h-12.6v-22.7h15.8c2.9,0,4.9,0.2,6,0.6
				c1.4,0.6,2.5,1.5,3.2,2.6s1.4,3.2,2,6.2h1.7l-0.6-12.6h-44.3v1.6h2c2.4,0,4.1,0.6,5.1,1.7c0.7,0.8,1.1,3.1,1.1,6.7v37.4
				c0,2.8-0.2,4.7-0.5,5.6s-0.9,1.6-1.8,2c-1.2,0.7-2.5,1-3.9,1h-2v1.6h44.3l5-14.4h-1.7C530.8,373.7,529,376.4,527.3,378.1z"/>
			<path class="st0" d="M381.6,328.6h2c2.3,0,3.9,0.6,5,1.8c0.8,0.9,1.2,3.1,1.2,6.6v33.2L354.6,327h-14.4H339h-23.5v1.6h2
				c1.4,0,2.7,0.3,3.9,1c0.9,0.5,1.5,1.1,1.7,1.8c0.4,0.9,0.6,2.9,0.6,5.8v37.2c0,3.5-0.3,5.6-1,6.5c-1.1,1.4-2.8,2.1-5.2,2.1h-2
				v1.6h24.7V383h-2.1c-1.4,0-2.6-0.3-3.9-1c-0.9-0.5-1.5-1.1-1.8-1.8c-0.4-0.9-0.6-2.9-0.6-5.8v-37.2c0-3.5,0.4-5.6,1.1-6.5
				c1.1-1.4,2.8-2.1,5.1-2.1h0.9c1.7,0,2.9,0.1,3.7,0.4c1.7,0.5,2.9,1.1,3.8,1.7s2.1,1.9,3.8,3.9v40c0,3.2-0.3,5.3-0.9,6.2
				c-1,1.5-2.8,2.2-5.2,2.2h-2v1.6h20V383h-2c-2.2,0-3.9-0.6-5-1.8c-0.8-0.9-1.1-3.1-1.1-6.6v-35.4l37.9,46.3h1.5V337
				c0-3.2,0.3-5.3,0.9-6.2c1-1.5,2.7-2.2,5.2-2.2h2V327h-20v1.6H381.6z"/>
			<path class="st0" d="M402.9,328.6h2c1.4,0,2.7,0.3,3.9,1c0.9,0.5,1.5,1.1,1.7,1.8c0.4,0.9,0.6,2.9,0.6,5.8v37.2
				c0,3.5-0.3,5.6-1,6.5c-1.1,1.4-2.8,2.1-5.2,2.1h-2v1.6h24.7V383h-2.1c-1.4,0-2.6-0.3-3.9-1c-0.9-0.5-1.5-1.1-1.8-1.8
				c-0.4-0.9-0.6-2.9-0.6-5.8v-37.2c0-3.5,0.4-5.6,1.1-6.5c1.1-1.4,2.8-2.1,5.1-2.1h2.1V327h-24.7L402.9,328.6L402.9,328.6z"/>
		</g>
		<path class="st0" d="M576.4,334c-2-2.5-4.5-4.3-7.5-5.4s-7-1.6-12.2-1.6h-21.1v1.6h2.2c2.2,0,3.8,0.6,4.9,1.9
			c0.8,0.9,1.1,3.1,1.1,6.7v37.2c0,3.3-0.3,5.4-0.8,6.2c-1,1.6-2.8,2.4-5.2,2.4h-2.2v1.6h24.7V383h-2.2c-2.2,0-3.8-0.6-4.9-1.9
			c-0.8-0.9-1.2-3.1-1.2-6.7v-16.8c1.8,0.4,3.6,0.7,5.2,0.9c1.6,0.2,3.1,0.3,4.5,0.3c5.7,0,10-1.5,13.1-4.4s4.6-6.8,4.6-11.5
			C579.5,339.5,578.4,336.5,576.4,334z M566.6,352.7c-2.1,2.3-4.7,3.4-7.6,3.4c-0.8,0-1.8-0.1-3-0.2s-2.5-0.4-4-0.6v-23.9
			c2.3-0.5,4.1-0.8,5.6-0.8c2.4,0,4.5,0.5,6.4,1.6s3.3,2.7,4.3,4.8c1,2.1,1.5,4.4,1.5,6.9C569.8,347.4,568.7,350.4,566.6,352.7z"/>
		<path class="st0" d="M476.6,359.3c-2-1.9-5-3.2-9-4.1c3.4-1.1,6-2.8,7.8-5.1c1.8-2.3,2.6-4.9,2.6-7.7c0-3.4-1.1-6.3-3.4-8.9
			c-2.2-2.6-5.5-4.4-9.7-5.4c-2.8-0.7-6.5-1-11.2-1h-24.9v1.6h2.2c2.2,0,3.8,0.6,4.9,1.9c0.8,0.9,1.2,3.2,1.2,6.7v37.2
			c0,3.2-0.3,5.3-1,6.3c-1,1.5-2.8,2.3-5.2,2.3h-2.2v1.6h27.2c6.5,0,11.3-0.6,14.4-1.8c3.2-1.2,5.6-3.1,7.4-5.7s2.7-5.4,2.7-8.2
			C480.7,365.1,479.3,361.9,476.6,359.3z M445.4,330.8c2.3-0.6,4.8-0.9,7.6-0.9c5.3,0,9.3,1.2,12,3.6s4.1,5.2,4.1,8.6
			c0,2.2-0.6,4.2-1.7,6s-2.7,3.2-4.8,4.1c-2.1,0.9-5.2,1.3-9.3,1.3c-1.6,0-3.1,0-4.4-0.1s-2.5-0.2-3.6-0.4L445.4,330.8L445.4,330.8z
			 M466.8,378.1c-2.7,2.3-6.6,3.5-11.7,3.5c-3.2,0-6.4-0.4-9.7-1.1v-23.6c0.8-0.1,1.8-0.2,3-0.3c1.2-0.1,2.7-0.1,4.5-0.1
			c4,0,7.4,0.6,10.2,1.8c2.7,1.2,4.7,2.8,5.9,4.9c1.2,2.1,1.8,4.2,1.8,6.4C470.9,373,469.5,375.8,466.8,378.1z"/>
	</g>
	<g>
		<path class="st0" d="M71.8,586.8C52.9,539.6,43,488.7,43,436.3c0-108,42.1-209.6,118.5-286s178-118.5,286-118.5
			s209.6,42.1,286,118.5s118.5,178,118.5,286c0,52.4-9.9,103.2-28.8,150.4h34c17.2-46.9,26.6-97.6,26.6-150.4
			C883.8,195.4,688.5,0,447.5,0S11.2,195.4,11.2,436.3c0,52.9,9.4,103.5,26.6,150.4h34V586.8z"/>
		<path class="st0" d="M647.3,788.3c-60.2,34.3-128.6,52.6-199.8,52.6s-139.6-18.3-199.8-52.6h-58.2c72.3,53.1,161.5,84.4,258,84.4
			s185.7-31.3,258-84.4H647.3z"/>
	</g>
	<g>
		<path class="st0" d="M300.6,630.2h-4.5v24.9h2.4c3.9,0,6.8-0.4,8.7-1.1c1.9-0.7,3.4-2,4.5-3.9s1.7-4.3,1.7-7.3c0-4.3-1-7.5-3-9.6
			C308.3,631.2,305.1,630.2,300.6,630.2z"/>
		<polygon class="st0" points="587.9,664.7 605.1,664.7 596.6,645.1 		"/>
	</g>
	<g>
		<path class="st0" d="M356.6,728.7c1.8-0.7,3-1.4,3.6-2.1c0.6-0.8,0.9-1.7,0.9-2.8c0-1.9-0.5-3.5-1.5-4.9c-0.7-0.9-1.5-1.3-2.5-1.3
			c-0.8,0-1.5,0.3-2.1,1c-0.6,0.6-0.9,1.5-0.9,2.6c0,0.8,0.1,1.7,0.4,2.7C354.9,724.8,355.6,726.4,356.6,728.7z"/>
		<path class="st0" d="M212.9,719c-1.2-0.5-3.3-0.8-6.1-0.8v27.2c0,1.4,0.1,2.3,0.2,2.6c0.1,0.3,0.4,0.6,0.7,0.7
			c0.5,0.3,1.1,0.4,2,0.4c2.9,0,5-1,6.6-2.9c2.1-2.6,3.1-6.7,3.1-12.3c0-4.5-0.7-8-2.1-10.7C216.1,721.1,214.7,719.7,212.9,719z"/>
		<polygon class="st0" points="652.1,739.2 662.6,739.2 657.4,727.2 		"/>
		<path class="st0" d="M802.2,718.1h-2.8v15.3h1.5c2.4,0,4.2-0.2,5.3-0.7c1.2-0.4,2.1-1.2,2.8-2.4c0.7-1.1,1-2.6,1-4.5
			c0-2.7-0.6-4.6-1.9-5.9C807,718.7,805,718.1,802.2,718.1z"/>
		<path class="st0" d="M882.2,593.7H12.8l57.1,93.8l-57.1,93.8h869.4l-57.1-93.8L882.2,593.7z M685.4,682.4h1.9c1.6,0,3-0.3,4-0.9
			c0.7-0.4,1.3-1.1,1.7-2c0.3-0.7,0.5-2.4,0.5-5.3v-37.4c0-2.6-0.1-4.2-0.2-4.7c-0.3-1-0.8-1.7-1.6-2.3c-1.1-0.8-2.5-1.2-4.4-1.2
			h-1.9V627H733v16.8h-1.6c-0.8-4.1-1.9-7.1-3.4-8.8c-1.5-1.8-3.5-3.1-6.2-3.9c-1.6-0.5-4.5-0.8-8.8-0.8h-5.9v23.1h1.1
			c3.6,0,6.2-1.1,7.8-3.4c1.6-2.3,2.7-5.6,3.1-10h1.6v29.8h-1.6c-0.3-3.2-1-5.9-2.1-8s-2.3-3.5-3.8-4.2c-1.4-0.7-3.5-1.1-6.2-1.1v16
			c0,3.1,0.1,5,0.4,5.7c0.3,0.7,0.8,1.3,1.5,1.7s1.9,0.7,3.5,0.7h3.4c5.3,0,9.6-1.2,12.8-3.7s5.5-6.2,6.9-11.2h1.6l-2.6,18.1h-49.1
			V682.4z M629.6,627.1h51.1v15.4h-1.5c-0.9-3.5-1.9-6.1-3-7.7c-1.1-1.6-2.6-2.8-4.5-3.7c-1.1-0.5-2.9-0.8-5.6-0.8h-4.2v43.9
			c0,2.9,0.2,4.7,0.5,5.4s0.9,1.4,1.9,1.9c0.9,0.5,2.2,0.8,3.8,0.8h1.9v1.6h-29.8v-1.6h1.9c1.6,0,3-0.3,4-0.9c0.7-0.4,1.3-1.1,1.7-2
			c0.3-0.7,0.5-2.4,0.5-5.3v-43.9h-4.1c-3.8,0-6.6,0.8-8.3,2.4c-2.4,2.3-4,5.5-4.6,9.7h-1.6v-15.2L629.6,627.1L629.6,627.1z
			 M477.1,682.4h1.9c1.6,0,3-0.3,4-0.9c0.7-0.4,1.3-1.1,1.7-2c0.3-0.7,0.5-2.4,0.5-5.3v-37.4c0-2.9-0.2-4.7-0.5-5.5
			c-0.3-0.7-0.9-1.4-1.9-1.9c-0.9-0.5-2.2-0.8-3.8-0.8h-1.9V627h29.7v1.6H505c-1.6,0-3,0.3-4,0.9c-0.7,0.4-1.3,1.1-1.7,2
			c-0.3,0.7-0.5,2.4-0.5,5.3v37.4c0,2.9,0.2,4.7,0.5,5.4s0.9,1.4,1.9,1.9c0.9,0.5,2.2,0.8,3.8,0.8h1.9v1.6h-29.7L477.1,682.4
			L477.1,682.4z M217.7,682.4h1.9c1.6,0,3-0.3,4-0.9c0.7-0.4,1.3-1.1,1.7-2c0.3-0.7,0.5-2.4,0.5-5.3v-37.4c0-2.6-0.1-4.2-0.2-4.7
			c-0.3-1-0.8-1.7-1.6-2.3c-1.1-0.8-2.5-1.2-4.4-1.2h-1.9V627h47.6v16.8h-1.6c-0.8-4.1-1.9-7.1-3.4-8.8c-1.5-1.8-3.5-3.1-6.2-3.9
			c-1.6-0.5-4.5-0.8-8.8-0.8h-5.9v23.1h1.1c3.6,0,6.2-1.1,7.8-3.4c1.6-2.3,2.7-5.6,3.1-10h1.6v29.8h-1.6c-0.3-3.2-1-5.9-2.1-8
			s-2.3-3.5-3.8-4.2c-1.4-0.7-3.5-1.1-6.2-1.1v16c0,3.1,0.1,5,0.4,5.7c0.3,0.7,0.8,1.3,1.5,1.7s1.9,0.7,3.5,0.7h3.4
			c5.3,0,9.6-1.2,12.8-3.7s5.5-6.2,6.9-11.2h1.6l-2.6,18.1h-49.1L217.7,682.4L217.7,682.4z M161.7,641.2c2.8-4.9,6.7-8.6,11.5-11.3
			s9.9-4,15.4-4c4,0,8.2,0.9,12.7,2.6c2.6,1,4.2,1.5,4.9,1.5c0.9,0,1.7-0.3,2.3-1c0.7-0.7,1.1-1.7,1.3-3.1h1.6v19.7h-1.6
			c-1.2-5.1-3.5-9.1-6.9-11.8s-7.2-4.1-11.4-4.1c-3.6,0-6.8,1-9.8,3.1c-3,2-5.1,4.7-6.5,8c-1.8,4.2-2.6,8.9-2.6,14.1
			c0,5.1,0.6,9.7,1.9,13.9c1.3,4.2,3.3,7.3,6,9.5c2.7,2.1,6.3,3.2,10.6,3.2c3.6,0,6.9-0.8,9.8-2.3c3-1.6,6.1-4.3,9.4-8.1v4.9
			c-3.2,3.3-6.5,5.7-10,7.2s-7.5,2.2-12.1,2.2c-6.1,0-11.5-1.2-16.2-3.6c-4.7-2.4-8.3-5.9-10.9-10.5c-2.6-4.6-3.8-9.4-3.8-14.5
			C157.4,651.2,158.8,646,161.7,641.2z M123.1,717.2c-0.7,0.1-1.2,0.2-1.6,0.5s-0.8,0.8-1.2,1.4c-0.1,0.2-0.6,1.5-1.6,4l-10.9,28.8
			h-1l-8.6-22.5l-9.5,22.5h-1l-11.5-28.5c-1.2-2.9-2-4.6-2.4-5.2s-1.2-1-2.3-1.1v-1h15.1v1c-1.2,0-2,0.2-2.4,0.6
			c-0.4,0.3-0.6,0.8-0.6,1.2c0,0.7,0.4,2,1.3,4.1l6.8,16.9l5.5-13.2l-1.4-3.7c-0.8-2-1.4-3.4-1.8-4c-0.4-0.7-0.9-1.2-1.5-1.5
			s-1.4-0.4-2.5-0.4v-1h16.9v1c-1.2,0-2,0.1-2.5,0.3c-0.4,0.1-0.6,0.3-0.8,0.6c-0.2,0.3-0.3,0.6-0.3,1s0.4,1.6,1.2,3.6l6.4,16.5
			l5.7-14.9c0.6-1.5,1-2.6,1.1-3.2c0.1-0.6,0.2-1.1,0.2-1.6c0-0.7-0.2-1.3-0.7-1.7s-1.4-0.6-2.8-0.7v-1h9v1.2L123.1,717.2
			L123.1,717.2z M153.5,751.1h-30.1v-1h1.2c1,0,1.8-0.2,2.4-0.5c0.4-0.2,0.8-0.7,1-1.2c0.2-0.4,0.3-1.5,0.3-3.2v-22.9
			c0-1.6,0-2.5-0.1-2.9c-0.2-0.6-0.5-1.1-1-1.4c-0.7-0.5-1.5-0.7-2.7-0.7h-1.2v-1h29.2v10.3h-1c-0.5-2.5-1.2-4.3-2.1-5.4
			c-0.9-1.1-2.2-1.9-3.8-2.4c-1-0.3-2.8-0.5-5.4-0.5h-3.6v14.2h0.7c2.2,0,3.8-0.7,4.8-2.1c1-1.4,1.6-3.4,1.9-6.1h1v18.3h-1
			c-0.2-2-0.6-3.6-1.3-4.9c-0.7-1.3-1.4-2.1-2.3-2.6c-0.9-0.4-2.1-0.7-3.8-0.7v9.8c0,1.9,0.1,3.1,0.2,3.5c0.2,0.4,0.5,0.8,0.9,1.1
			s1.2,0.4,2.2,0.4h2.1c3.3,0,5.9-0.8,7.8-2.3c2-1.5,3.4-3.8,4.2-6.9h1L153.5,751.1z M190.7,740.5c-0.8,2.1-1.8,3.8-3.1,5.1
			s-2.7,2.4-4.3,3.2s-3.6,1.4-6,1.9c-1,0.2-2.7,0.3-4.9,0.3h-15.6v-1h1.2c1,0,1.8-0.2,2.3-0.5s0.9-0.7,1.2-1.3
			c0.2-0.4,0.2-1.4,0.2-3.2v-22.9c0-1.8-0.1-2.9-0.3-3.3s-0.6-0.8-1.1-1.2c-0.6-0.3-1.3-0.5-2.3-0.5h-1.2v-1h15.6
			c4.2,0,7.5,0.6,10.1,1.7c3.1,1.4,5.5,3.5,7.1,6.3s2.4,6,2.4,9.5C191.9,736.2,191.5,738.5,190.7,740.5z M227.4,740.5
			c-0.8,2.1-1.8,3.8-3.1,5.1s-2.7,2.4-4.3,3.2s-3.6,1.4-6,1.9c-1,0.2-2.7,0.3-4.9,0.3h-15.6v-1h1.2c1,0,1.8-0.2,2.3-0.5
			s0.9-0.7,1.2-1.3c0.2-0.4,0.2-1.4,0.2-3.2v-22.9c0-1.8-0.1-2.9-0.3-3.3s-0.6-0.8-1.1-1.2c-0.6-0.3-1.3-0.5-2.3-0.5h-1.2v-1h15.6
			c4.2,0,7.5,0.6,10.1,1.7c3.1,1.4,5.5,3.5,7.1,6.3s2.4,6,2.4,9.5C228.6,736.2,228.2,738.5,227.4,740.5z M248.8,717.2h-1.2
			c-1,0-1.8,0.2-2.4,0.5c-0.4,0.2-0.8,0.7-1.1,1.2c-0.2,0.4-0.3,1.5-0.3,3.2V745c0,1.8,0.1,2.9,0.3,3.3c0.2,0.4,0.6,0.8,1.2,1.2
			s1.3,0.5,2.3,0.5h1.2v1h-18.2v-1h1.2c1,0,1.8-0.2,2.4-0.5c0.4-0.2,0.8-0.7,1-1.2c0.2-0.4,0.3-1.5,0.3-3.2v-22.9
			c0-1.8-0.1-2.9-0.3-3.3s-0.6-0.8-1.1-1.2c-0.6-0.3-1.3-0.5-2.3-0.5h-1.2v-1h18.2L248.8,717.2L248.8,717.2z M285.5,717.2
			c-1.5,0.2-2.5,0.4-3,0.7s-0.9,0.8-1.2,1.5c-0.3,0.7-0.4,1.8-0.4,3.5v29H280l-23.6-29V745c0,2,0.5,3.4,1.4,4.1
			c0.9,0.7,2,1.1,3.1,1.1h0.8v1h-12.4v-1c1.9,0,3.3-0.4,4-1.2c0.8-0.8,1.1-2.1,1.1-3.9v-24.6l-0.7-0.9c-0.7-0.9-1.4-1.5-2-1.8
			s-1.4-0.5-2.4-0.5v-1h12.4l17.2,21.6v-15c0-2.1-0.3-3.5-0.9-4.2c-0.8-1-2.2-1.5-4.1-1.4v-1h11.5L285.5,717.2L285.5,717.2z
			 M325.8,737.4c-1.3,0.1-2.2,0.3-2.7,0.5c-0.5,0.3-0.9,0.7-1.2,1.3c-0.2,0.3-0.2,1.1-0.2,2.4v7.2c-2.2,1-4.5,1.7-7,2.3
			c-2.4,0.5-4.9,0.8-7.5,0.8c-3.3,0-6.1-0.5-8.2-1.3c-2.2-0.9-4.1-2.1-5.8-3.5c-1.7-1.5-3-3.1-3.9-4.9c-1.2-2.4-1.8-5-1.8-7.9
			c0-5.2,1.8-9.7,5.5-13.3s8.3-5.4,13.9-5.4c1.7,0,3.3,0.1,4.7,0.4c0.8,0.1,2,0.5,3.7,1.2c1.7,0.6,2.7,1,3,1c0.5,0,0.9-0.2,1.3-0.5
			c0.4-0.4,0.8-1,1.1-2h1V728h-1c-1.1-3.4-2.9-5.9-5.2-7.7c-2.3-1.7-4.8-2.6-7.5-2.6c-2.6,0-4.8,0.7-6.5,2.2s-3,3.5-3.7,6.1
			s-1.1,5.3-1.1,8.1c0,3.3,0.4,6.3,1.2,8.8c0.8,2.5,2.1,4.4,3.8,5.6s3.8,1.8,6.3,1.8c0.8,0,1.7-0.1,2.6-0.3s1.8-0.4,2.7-0.8V742
			c0-1.4-0.1-2.3-0.3-2.7c-0.2-0.4-0.6-0.8-1.2-1.1s-1.3-0.5-2.1-0.5h-0.9v-1h16.9v0.7H325.8z M336,684h-17.9l-18.3-26h-3.7v16
			c0,3.1,0.2,5,0.6,5.8s1,1.4,2,1.9c0.9,0.5,2.7,0.7,5.3,0.7v1.6h-29.1v-1.6c2.6,0,4.4-0.2,5.3-0.7s1.6-1.1,2-1.9s0.6-2.7,0.6-5.8
			v-36.9c0-3.1-0.2-5-0.6-5.8s-1-1.4-2-1.9s-2.7-0.7-5.3-0.7v-1.6h26.4c6.9,0,11.9,0.5,15.1,1.4c3.2,1,5.8,2.7,7.8,5.3s3,5.6,3,9
			c0,4.2-1.5,7.7-4.5,10.4c-1.9,1.7-4.6,3-8.1,3.9l13.7,19.2c1.8,2.5,3.1,4,3.8,4.7c1.1,0.9,2.5,1.3,4,1.4L336,684L336,684z
			 M373.9,750.6c-1.2,0.9-2.6,1.3-4.2,1.3c-1.3,0-2.6-0.3-3.8-0.9c-1.2-0.6-2.7-1.6-4.4-3.2c-2.1,1.4-4.2,2.5-6,3.1
			c-1.9,0.6-3.8,1-5.9,1c-3.3,0-5.8-0.9-7.8-2.6s-2.9-3.8-2.9-6.2c0-2.6,0.9-4.8,2.8-6.7c1.8-1.9,4.5-3.5,8-4.9
			c-0.4-1.1-0.8-2.2-1-3.3s-0.3-2.1-0.3-3.1c0-2.7,1-5,2.9-6.9c1.9-1.8,4.4-2.7,7.4-2.7c2.4,0,4.3,0.6,5.7,1.8
			c1.4,1.2,2.1,2.6,2.1,4.2c0,1.9-0.7,3.6-2.2,5c-1.4,1.4-3.7,2.6-6.9,3.8c1.9,3.4,4.8,7.1,8.5,11c2.5-2.8,3.8-5.3,3.8-7.3
			c0-0.7-0.2-1.3-0.7-1.8s-1.2-0.8-2.2-0.9v-1h10.7v1c-1.2,0.2-2.1,0.5-2.8,1.1s-1.6,1.8-2.7,3.8s-2.6,4.2-4.6,6.6
			c1.7,1.6,3.2,2.7,4.3,3.3c0.8,0.4,1.5,0.6,2.3,0.6c1.3,0,2.4-0.8,3.4-2.5l1.1,0.6C377,747.4,375.5,749.4,373.9,750.6z
			 M386.4,642.5h-1.5c-0.9-3.5-1.9-6.1-3-7.7c-1.1-1.6-2.6-2.8-4.5-3.7c-1.1-0.5-2.9-0.8-5.6-0.8h-4.2v43.9c0,2.9,0.2,4.7,0.5,5.4
			s0.9,1.4,1.9,1.9c0.9,0.5,2.2,0.8,3.8,0.8h1.9v1.6H346v-1.6h1.9c1.6,0,3-0.3,4-0.9c0.7-0.4,1.3-1.1,1.7-2c0.3-0.7,0.5-2.4,0.5-5.3
			v-43.9H350c-3.8,0-6.6,0.8-8.3,2.4c-2.4,2.3-4,5.5-4.6,9.7h-1.6v-15.4h51.1v15.6H386.4z M391.3,682.4h1.9c1.6,0,3-0.3,4-0.9
			c0.7-0.4,1.3-1.1,1.7-2c0.3-0.7,0.5-2.4,0.5-5.3v-37.4c0-2.9-0.2-4.7-0.5-5.5c-0.3-0.7-0.9-1.4-1.9-1.9c-0.9-0.5-2.2-0.8-3.8-0.8
			h-1.9V627H421v1.6h-1.9c-1.6,0-3,0.3-4,0.9c-0.7,0.4-1.3,1.1-1.7,2c-0.3,0.7-0.5,2.4-0.5,5.3v37.4c0,2.9,0.2,4.7,0.5,5.4
			s0.9,1.4,1.9,1.9c0.9,0.5,2.2,0.8,3.8,0.8h1.9v1.6h-29.7L391.3,682.4L391.3,682.4z M422.4,751.1h-30.1v-1h1.2c1,0,1.8-0.2,2.4-0.5
			c0.4-0.2,0.8-0.7,1-1.2c0.2-0.4,0.3-1.5,0.3-3.2v-22.9c0-1.6,0-2.5-0.1-2.9c-0.2-0.6-0.5-1.1-1-1.4c-0.7-0.5-1.5-0.7-2.7-0.7h-1.2
			v-1h29.2v10.3h-1c-0.5-2.5-1.2-4.3-2.1-5.4c-0.9-1.1-2.2-1.9-3.8-2.4c-1-0.3-2.8-0.5-5.4-0.5h-3.6v14.2h0.7c2.2,0,3.8-0.7,4.8-2.1
			c1-1.4,1.6-3.4,1.9-6.1h1v18.3h-1c-0.2-2-0.6-3.6-1.3-4.9c-0.7-1.3-1.4-2.1-2.3-2.6c-0.9-0.4-2.1-0.7-3.8-0.7v9.8
			c0,1.9,0.1,3.1,0.2,3.5c0.2,0.4,0.5,0.8,0.9,1.1s1.2,0.4,2.2,0.4h2.1c3.3,0,5.9-0.8,7.8-2.3c2-1.5,3.4-3.8,4.2-6.9h1L422.4,751.1z
			 M424.9,682.4h1.9c1.6,0,3-0.3,4-0.9c0.7-0.4,1.3-1.1,1.7-2c0.3-0.7,0.5-2.4,0.5-5.3v-37.4c0-2.9-0.2-4.7-0.5-5.5
			c-0.3-0.7-0.9-1.4-1.9-1.9c-0.9-0.5-2.2-0.8-3.8-0.8h-1.9V627h48v16.3h-1.7c-0.4-3.8-1.4-6.7-3-8.5s-3.9-3.1-7-3.9
			c-1.7-0.4-4.8-0.6-9.3-0.6h-5.3v23.4h1.6c2.5,0,4.6-0.4,6.2-1.1s2.9-2,4-3.8s1.8-4.2,2.2-7.3h1.5v28.6h-1.5
			c-0.5-5.4-2-8.9-4.3-10.7c-2.4-1.7-5-2.6-8-2.6h-1.6v17.4c0,2.9,0.2,4.7,0.5,5.4s0.9,1.4,1.9,1.9c0.9,0.5,2.2,0.8,3.8,0.8h1.9v1.6
			h-29.7v-1.5L424.9,682.4L424.9,682.4z M462.5,717.2c-1.3,0.2-2.4,0.9-3.4,2c-0.7,0.9-1.8,2.9-3.2,6l-12,26.6h-0.8l-12-27.7
			c-1.4-3.3-2.4-5.3-2.9-5.9c-0.5-0.6-1.4-1-2.8-1.1v-1h16.7v1h-0.6c-1.5,0-2.5,0.2-3.1,0.6c-0.4,0.3-0.6,0.6-0.6,1.1
			c0,0.3,0.1,0.7,0.2,1.1c0.1,0.4,0.6,1.5,1.4,3.4l7.4,17.4l6.9-15.5c0.8-1.9,1.3-3.1,1.5-3.8c0.2-0.6,0.3-1.2,0.3-1.6
			c0-0.5-0.1-1-0.4-1.4s-0.7-0.7-1.2-0.9c-0.7-0.3-1.7-0.4-2.9-0.4v-1h11.4v1.1L462.5,717.2L462.5,717.2z M492.9,751.1h-30.1v-1h1.2
			c1,0,1.8-0.2,2.4-0.5c0.4-0.2,0.8-0.7,1-1.2c0.2-0.4,0.3-1.5,0.3-3.2v-22.9c0-1.6,0-2.5-0.1-2.9c-0.2-0.6-0.5-1.1-1-1.4
			c-0.7-0.5-1.5-0.7-2.7-0.7h-1.2v-1H492v10.3h-1c-0.5-2.5-1.2-4.3-2.1-5.4c-0.9-1.1-2.2-1.9-3.8-2.4c-1-0.3-2.8-0.5-5.4-0.5h-3.6
			v14.2h0.7c2.2,0,3.8-0.7,4.8-2.1c1-1.4,1.6-3.4,1.9-6.1h1v18.3h-1c-0.2-2-0.6-3.6-1.3-4.9c-0.7-1.3-1.4-2.1-2.3-2.6
			c-0.9-0.4-2.1-0.7-3.8-0.7v9.8c0,1.9,0.1,3.1,0.2,3.5s0.5,0.8,0.9,1.1s1.2,0.4,2.2,0.4h2.1c3.3,0,5.9-0.8,7.8-2.3
			c2-1.5,3.4-3.8,4.2-6.9h1L492.9,751.1z M532.3,717.2c-1.5,0.2-2.5,0.4-3,0.7s-0.9,0.8-1.2,1.5s-0.4,1.8-0.4,3.5v29h-0.9l-23.6-29
			V745c0,2,0.5,3.4,1.4,4.1c0.9,0.7,2,1.1,3.1,1.1h0.8v1h-12.4v-1c1.9,0,3.3-0.4,4-1.2c0.8-0.8,1.1-2.1,1.1-3.9v-24.6l-0.7-0.9
			c-0.7-0.9-1.4-1.5-2-1.8s-1.4-0.5-2.4-0.5v-1h12.4l17.2,21.6v-15c0-2.1-0.3-3.5-0.9-4.2c-0.8-1-2.2-1.5-4.1-1.4v-1h11.5v0.9
			L532.3,717.2L532.3,717.2z M565.5,725.6h-0.9c-0.5-2.2-1.2-3.7-1.8-4.7c-0.7-1-1.6-1.7-2.8-2.3c-0.7-0.3-1.8-0.5-3.4-0.5H554V745
			c0,1.8,0.1,2.9,0.3,3.3c0.2,0.4,0.6,0.8,1.2,1.2c0.6,0.3,1.4,0.5,2.4,0.5h1.2v1h-18.3v-1h1.2c1,0,1.8-0.2,2.4-0.5
			c0.4-0.2,0.8-0.7,1.1-1.2c0.2-0.4,0.3-1.5,0.3-3.2v-26.9h-2.5c-2.3,0-4.1,0.5-5.1,1.5c-1.5,1.4-2.4,3.4-2.8,5.9h-1v-9.4h31.3v9.4
			H565.5z M566.1,645.5h-1.6c-1.2-5.1-3.5-9.1-6.9-11.8s-7.2-4.1-11.4-4.1c-3.6,0-6.8,1-9.8,3.1c-3,2-5.1,4.7-6.5,8
			c-1.8,4.2-2.6,8.9-2.6,14.1c0,5.1,0.6,9.7,1.9,13.9c1.3,4.2,3.3,7.3,6,9.5c2.7,2.1,6.3,3.2,10.6,3.2c3.6,0,6.9-0.8,9.8-2.3
			c3-1.6,6.1-4.3,9.4-8.1v4.9c-3.2,3.3-6.5,5.7-10,7.2s-7.5,2.2-12.1,2.2c-6.1,0-11.5-1.2-16.2-3.6c-4.7-2.4-8.3-5.9-10.9-10.5
			c-2.6-4.6-3.8-9.4-3.8-14.5c0-5.4,1.4-10.6,4.3-15.4c2.8-4.9,6.7-8.6,11.5-11.3s9.9-4,15.4-4c4,0,8.2,0.9,12.7,2.6
			c2.6,1,4.2,1.5,4.9,1.5c0.9,0,1.7-0.3,2.3-1c0.7-0.7,1.1-1.7,1.3-3.1h1.6L566.1,645.5L566.1,645.5z M571.5,682.4
			c2-0.3,3.7-1.2,5-2.5c1.3-1.4,2.9-4.2,4.9-8.6l20.3-45.4h0.8l20.5,46.6c2,4.4,3.6,7.2,4.8,8.3c0.9,0.9,2.3,1.4,4,1.5v1.6h-27.5
			v-1.6h1.1c2.2,0,3.8-0.3,4.7-0.9c0.6-0.4,0.9-1.1,0.9-1.9c0-0.5-0.1-1-0.3-1.6c-0.1-0.3-0.5-1.3-1.3-3.1l-3-7.1h-20.1l-2.4,5.5
			c-0.8,1.8-1.2,3.4-1.2,4.6c0,1.6,0.6,2.8,1.9,3.5c0.8,0.4,2.6,0.8,5.6,1v1.6h-18.9v-1.5L571.5,682.4L571.5,682.4z M605.4,731.4
			c-1.4,1.6-3.3,2.7-5.8,3.3c-1.7,0.4-4.5,0.6-8.4,0.6v9.7c0,1.9,0.1,3.1,0.3,3.6s0.6,0.9,1.2,1.2c0.6,0.3,1.7,0.4,3.3,0.4v1h-17.7
			v-1c1.6,0,2.7-0.2,3.3-0.5s1-0.7,1.2-1.2s0.3-1.7,0.3-3.5v-22.6c0-1.9-0.1-3.1-0.3-3.6s-0.6-0.9-1.2-1.2c-0.6-0.3-1.7-0.4-3.3-0.4
			v-1h15.2c5,0,8.6,0.9,10.8,2.7s3.3,4,3.3,6.7C607.5,727.8,606.8,729.8,605.4,731.4z M639.7,751.1h-31v-1h1.2c1,0,1.8-0.2,2.4-0.5
			c0.4-0.2,0.8-0.7,1-1.2c0.2-0.4,0.3-1.5,0.3-3.2v-22.9c0-1.8-0.1-2.9-0.3-3.3c-0.2-0.4-0.6-0.8-1.1-1.2c-0.6-0.3-1.3-0.5-2.3-0.5
			h-1.2v-1h18.6v1h-1.5c-1,0-1.8,0.2-2.4,0.5c-0.4,0.2-0.8,0.7-1.1,1.2c-0.2,0.4-0.3,1.5-0.3,3.2v22.2c0,1.8,0.1,2.9,0.3,3.4
			s0.6,0.9,1.2,1.1c0.4,0.2,1.5,0.2,3.1,0.2h2.9c1.9,0,3.4-0.3,4.6-1c1.2-0.7,2.3-1.7,3.2-3.1c0.9-1.4,1.8-3.5,2.6-6.2h1.1
			L639.7,751.1z M679,751.1h-16.9v-1h0.7c1.4,0,2.3-0.2,2.9-0.6c0.4-0.3,0.6-0.7,0.6-1.2c0-0.3-0.1-0.6-0.2-1c0-0.2-0.3-0.8-0.8-1.9
			l-1.9-4.3h-12.3l-1.5,3.4c-0.5,1.1-0.7,2.1-0.7,2.8c0,1,0.4,1.7,1.2,2.2c0.5,0.3,1.6,0.5,3.4,0.6v1H642v-1
			c1.3-0.2,2.3-0.7,3.1-1.6c0.8-0.8,1.8-2.6,3-5.3l12.5-27.8h0.5l12.6,28.6c1.2,2.7,2.2,4.4,3,5.1c0.6,0.5,1.4,0.8,2.5,0.9v1.1H679z
			 M715.1,717.2c-1.5,0.2-2.5,0.4-3,0.7s-0.9,0.8-1.2,1.5s-0.4,1.8-0.4,3.5v29h-0.9l-23.6-29V745c0,2,0.5,3.4,1.4,4.1
			c0.9,0.7,2,1.1,3.1,1.1h0.8v1H679v-1c1.9,0,3.3-0.4,4-1.2c0.8-0.8,1.1-2.1,1.1-3.9v-24.6l-0.7-0.9c-0.7-0.9-1.4-1.5-2-1.8
			s-1.4-0.5-2.4-0.5v-1h12.4l17.2,21.6v-15c0-2.1-0.3-3.5-0.9-4.2c-0.8-1-2.2-1.5-4.1-1.4v-1h11.5V717.2z M751.8,717.2
			c-1.5,0.2-2.5,0.4-3,0.7s-0.9,0.8-1.2,1.5s-0.4,1.8-0.4,3.5v29h-0.9l-23.6-29V745c0,2,0.5,3.4,1.4,4.1c0.9,0.7,2,1.1,3.1,1.1h0.8
			v1h-12.4v-1c1.9,0,3.3-0.4,4-1.2c0.8-0.8,1.1-2.1,1.1-3.9v-24.6l-0.7-0.9c-0.7-0.9-1.4-1.5-2-1.8s-1.4-0.5-2.4-0.5v-1H728
			l17.2,21.6v-15c0-2.1-0.3-3.5-0.9-4.2c-0.8-1-2.2-1.5-4.1-1.4v-1h11.5L751.8,717.2L751.8,717.2L751.8,717.2z M782.9,751.1h-30.1
			v-1h1.2c1,0,1.8-0.2,2.4-0.5c0.4-0.2,0.8-0.7,1-1.2c0.2-0.4,0.3-1.5,0.3-3.2v-22.9c0-1.6,0-2.5-0.1-2.9c-0.2-0.6-0.5-1.1-1-1.4
			c-0.7-0.5-1.5-0.7-2.7-0.7h-1.2v-1h29.2v10.3h-1c-0.5-2.5-1.2-4.3-2.1-5.4c-0.9-1.1-2.2-1.9-3.8-2.4c-1-0.3-2.8-0.5-5.4-0.5H766
			v14.2h0.7c2.2,0,3.8-0.7,4.8-2.1c1-1.4,1.6-3.4,1.9-6.1h1v18.3h-1c-0.2-2-0.6-3.6-1.3-4.9s-1.4-2.1-2.3-2.6
			c-0.9-0.4-2.1-0.7-3.8-0.7v9.8c0,1.9,0.1,3.1,0.2,3.5c0.2,0.4,0.5,0.8,0.9,1.1s1.2,0.4,2.2,0.4h2.1c3.3,0,5.9-0.8,7.8-2.3
			c2-1.5,3.4-3.8,4.2-6.9h1L782.9,751.1z M824,751.1h-11l-11.2-15.9h-2.3v9.8c0,1.9,0.1,3.1,0.3,3.6s0.6,0.9,1.2,1.2
			c0.6,0.3,1.7,0.4,3.3,0.4v1h-17.8v-1c1.6,0,2.7-0.2,3.3-0.5s1-0.7,1.2-1.2s0.3-1.7,0.3-3.5v-22.6c0-1.9-0.1-3.1-0.3-3.6
			s-0.6-0.9-1.2-1.2c-0.6-0.3-1.7-0.4-3.3-0.4v-1h16.2c4.2,0,7.3,0.3,9.3,0.9c2,0.6,3.5,1.7,4.8,3.2c1.2,1.6,1.9,3.4,1.9,5.5
			c0,2.6-0.9,4.7-2.8,6.4c-1.2,1.1-2.8,1.9-5,2.4l8.4,11.8c1.1,1.5,1.9,2.5,2.3,2.9c0.7,0.5,1.5,0.8,2.4,0.9L824,751.1L824,751.1z"
			/>
		<path class="st0" d="M347.5,734.9c-0.8,1-1.2,2-1.2,3.2c0,1.6,0.5,3.2,1.4,4.8s2.1,2.8,3.4,3.7s2.6,1.3,4,1.3
			c0.7,0,1.4-0.1,2.2-0.4c0.8-0.3,1.7-0.7,2.7-1.3c-4.1-4.2-7.3-8.6-9.5-13.2C349.1,733.6,348.1,734.2,347.5,734.9z"/>
		<path class="st0" d="M176.2,719c-1.2-0.5-3.3-0.8-6.1-0.8v27.2c0,1.4,0.1,2.3,0.2,2.6c0.1,0.3,0.4,0.6,0.7,0.7
			c0.5,0.3,1.1,0.4,2,0.4c2.9,0,5-1,6.6-2.9c2.1-2.6,3.1-6.7,3.1-12.3c0-4.5-0.7-8-2.1-10.7C179.4,721.1,178,719.7,176.2,719z"/>
		<path class="st0" d="M592.2,718.2h-1.1v15.1c0.6,0,1,0.1,1.3,0.1c2.1,0,3.7-0.6,4.8-1.9c1.1-1.2,1.7-3.2,1.7-5.8s-0.6-4.5-1.7-5.7
			C596.2,718.8,594.5,718.2,592.2,718.2z"/>
	</g>
	<path class="st0" d="M447.5,788.3H260.4c56.9,30.4,120.8,46.5,187.1,46.5s130.2-16.1,187.1-46.5H447.5z"/>
	<g>
		<path class="st0" d="M371.8,491.4c0.2-0.1,0.1-0.2,0.1-0.2c-0.1,0-0.2,0-0.3,0.1c-0.1,0.1-0.2,0-0.2,0v-0.1c0-0.1,0-0.1,0-0.1
			s-0.3,0.2-0.3,0.4C371.2,491.6,371.5,491.6,371.8,491.4z"/>
		<path class="st0" d="M372.1,490.5L372.1,490.5c0.2-0.1,0.3-0.3,0.4-0.4s0.3-0.2,0.4-0.2s0.1-0.1,0.2-0.1l0,0l0,0
			c0,0-0.3,0-0.4,0.1s-0.1,0.1-0.2,0.2s-0.2,0.2-0.3,0.3C372.2,490.4,372.1,490.4,372.1,490.5C372,490.5,372,490.5,372.1,490.5
			C372,490.6,372,490.6,372.1,490.5z"/>
		<path class="st0" d="M373.2,490.1L373.2,490.1c0.2-0.1,0.4-0.3,0.4-0.4s-0.2,0.1-0.2,0.1C373.3,489.9,373.2,490,373.2,490.1
			C373.1,490.1,373.1,490.1,373.2,490.1z"/>
		<path class="st0" d="M367.7,527.6c-0.2,0.3-0.5,0.3-0.8,0.5c0.1,0.1,1.5,0.2,1.6,0.1c0.4,0,0.8-0.2,1.2-0.2c0.2,0,0.2,0,0.4,0.2
			c0.1-0.1,0.1-0.2,0.1-0.2c0.2-0.4,0.9-0.2,0.9-0.1c0.1,0.2-0.2,0.3-0.7,0.5c-0.3,0.1-0.5,0.2-0.5,0.2c-0.1,0.1-0.1,0.1,0,0.2
			c0.1,0.1,0.2,0.3,0.1,0.5c-0.1,0.4,0,0.8,0.4,1c0.1,0,0.2,0.1,0.4,0.1c0.4-0.1,1,0.1,1,0.1c0.7,0.2,0.7,0.2,0.8,0.3
			c0.1,0.3-0.4,0.3-0.3,0.6c0,0.1,0.2,0,0.3,0c0.4-0.4,0.8-1,1.2-1.4c0.2-0.2,0.2-0.4,0.3-0.6c0.1-0.3,0.4-0.4,0.6-0.6v-0.1
			c-0.7-0.1-0.7-0.1-0.7-0.4c0-0.2,0-0.2,0.6-1.4c0.3-0.6-0.3-1-1.4-0.9c-0.3,0-0.9,0.1-1.3-0.1c0,0,0,0-0.1-0.1
			c-0.2,0.1-0.2,0.6,0.1,0.6c0.1,0,0.1,0,0.2,0.1c0.1,0.3-0.8,0.6-1.4,0.4c0,0,0,0,0-0.1c0.2-0.3,0.6-0.3,0.7-0.5c0,0,0,0,0-0.1
			h-0.1c-0.2,0-0.3,0.2-0.5,0.2c-0.8,0.2-1.7,0.1-2.6,0.3c-1,0.2-1.2,0.4-1.3,0.5c0.1,0.1,0.3,0.2,0.5,0.2
			C367.7,527.5,367.7,527.6,367.7,527.6z"/>
		<path class="st0" d="M374,489.4c0.2-0.1,0.5-0.4,0.5-0.5C374.5,488.9,374,489.3,374,489.4C373.9,489.4,373.9,489.4,374,489.4z"/>
		<path class="st0" d="M371.6,517.3C371.6,517.3,371.7,517.2,371.6,517.3c-0.1-0.1-0.7,0.1-1.1,0.4c-0.3,0.2-0.6,0.5-0.6,0.5
			C370.1,518.2,371.5,517.4,371.6,517.3z"/>
		<path class="st0" d="M369.2,493.4c0,0.1,0.1,0,0.1,0c0.1-0.1,0.1-0.2,0.1-0.2C369.3,493.2,369.2,493.4,369.2,493.4z"/>
		<path class="st0" d="M368.9,493.1L368.9,493.1c0.2-0.2,0.4-0.3,0.4-0.4c-0.1,0-0.7,0.5-0.7,0.6l0,0
			C368.7,493.3,368.9,493.2,368.9,493.1z"/>
		<path class="st0" d="M370,492c0,0-0.7,0.2-0.7,0.3C369.3,492.3,369.8,492.1,370,492C369.9,492.1,370,492,370,492z"/>
		<path class="st0" d="M370.3,492.1c0.2-0.1,0.3-0.1,0.3-0.1s0,0,0,0.1c0,0-0.1,0,0,0.1l0,0l0,0c0.1-0.1,0.4-0.4,0.4-0.5
			c0,0,0-0.1-0.2,0.1c-0.1,0.1-0.2,0.2-0.2,0.1l0,0c-0.1,0-0.4,0.3-0.4,0.3l0,0C370.1,492.2,370.2,492.2,370.3,492.1z"/>
		<path class="st0" d="M373.1,540.1c-0.4,0.1-1.2,0.3-0.9,0.6c0.1,0.1,0.3,0.1,0.4,0.1c0.4,0,0.8,0.2,1.1,0.3
			c0.4,0.2,0.8,0.5,1.2,0.6c0.1,0,0.4,0.1,0.5,0.1c0.7,0.1,1.3-0.2,1.6-0.7c0.2-0.3-0.1-0.5-0.3-0.5h-0.1c-0.2,0-0.4,0.2-0.6,0.1
			c-0.7-0.1-1.4-0.6-2.1-0.7C373.6,540,373.3,540,373.1,540.1z"/>
		<path class="st0" d="M373.3,513.7c0,0-1,1.3-1,1.4c0,0,0.1,0,0.2-0.1c0.2-0.1,0.3-0.1,0.3,0c0,0.2-0.3,0.7-0.3,0.8
			c-0.1,0.1-0.1,0.2-0.1,0.3c0.2,0,2.5-2.5,3-3.2l0,0c0.5-0.7,0.3-0.8,0.1-0.8c-0.4,0-1.5,0.6-1.5,0.6c-0.3,0.2-0.2,0.3,0,0.4
			c0.1,0.1,0.1,0.1,0.2,0.2l-0.4,0.1C373.7,513.5,373.5,513.6,373.3,513.7z"/>
		<path class="st0" d="M378,480.3C378,480.4,378,480.4,378,480.3C378,480.4,378,480.4,378,480.3c0.1,0,0.2-0.2,0.2-0.2
			C378.2,480.1,378.1,480.2,378,480.3z"/>
		<path class="st0" d="M365.3,558.1c-0.2,0,0.1,0.5,0.3,0.6c0,0,0,0,0.1,0c0.1-0.1,0-0.3,0-0.4C365.4,558,365.3,558.1,365.3,558.1z"
			/>
		<path class="st0" d="M373.3,534.1c0,0,0,0,0,0.3c0.2,0.1,0.4-0.1,0.4-0.2c0.1-0.1,0-0.2,0-0.2C373.6,534,373.5,534,373.3,534.1z"
			/>
		<path class="st0" d="M379.5,481.5c0.1-0.1,0.1-0.2,0.1-0.2C379.6,481.2,379.4,481.4,379.5,481.5
			C379.4,481.5,379.5,481.5,379.5,481.5z"/>
		<path class="st0" d="M379.4,481.8C379.4,481.9,379.5,481.9,379.4,481.8L379.4,481.8c0.1,0,0.4-0.2,0.4-0.3
			C379.8,481.5,379.5,481.7,379.4,481.8z"/>
		<path class="st0" d="M367.3,554.1c0.1-0.3,0-0.9-0.2-0.8C367,553.3,367,554,367.3,554.1C367.2,554.1,367.3,554.1,367.3,554.1z"/>
		<path class="st0" d="M370.4,541.5c-0.2,0-0.1,0.3-0.1,0.5c-0.1,0-0.1,0-0.1,0c-0.3-0.1-0.5-0.4-0.8-0.5c-0.1-0.1-0.4-0.2-0.7-0.1
			c-1.5,0.1-2.4,0.7-2.8,0.9l0,0c0.1-0.5,0.1-0.5,0-0.6s-0.5-0.3-0.6,0.1c-0.4,2.4,6.4,0.3,6.5,0.3c0.1-0.1,0-0.1,0-0.1
			C371.8,541.7,370.5,541.4,370.4,541.5z"/>
		<path class="st0" d="M372.7,532.8c-0.1,0-0.2,0.2,0.4,0.5c0.7,0.3,0.8,0.3,0.8,0.3l0,0l0,0C374,533.5,373,532.7,372.7,532.8z"/>
		<path class="st0" d="M371,535.2C370.9,535.2,370.9,535.2,371,535.2c-0.2,0.1-0.2,0.3-0.2,0.3c0,0.1,0,0.2-0.4,0.5s-0.8,0.6-1,0.7
			c-1,0.6-1.2,0.8-1.2,0.8s0,0.1-0.1,0.1c0.1,0,0.3,0,0.6-0.2c0.3-0.2,0.9-0.3,1-0.1c0,0.1-0.1,0.3-0.3,0.8
			c-0.7,1.2-0.7,1.4-0.7,1.5c0.1,0,0.4,0,1.1-0.5c0.5-0.3,0.8-0.9,1.2-1.2c0.4-0.4,0.9-0.6,1.3-0.9c0.4-0.3,0.5-0.8,0.8-1.3
			c0.1-0.2,0.5-0.6,0.3,0.8c0,0.4,0,0.6,0,0.7c0.1,0.6,0.6,0.4,1.1-0.4c0.3-0.4,0.8-1.7,0.5-2.2c-0.1-0.2-0.3-0.3-1,0.2
			c-0.3,0.2-0.4,0.3-0.5,0.2c-0.1,0-0.1-0.1-0.3-0.4c-0.3-0.7-1.4-1.8-1.7-1.6c-0.2,0.1-0.3,0.4-0.2,0.8
			C371.4,534.9,371.4,534.9,371,535.2z"/>
		<path class="st0" d="M367,541.3L367,541.3c0.1-0.2-0.3-0.5-0.6-0.5c-0.2,0.1-0.2,0.4,0,0.5C366.6,541.5,366.9,541.4,367,541.3z"/>
		<path class="st0" d="M379.4,481.3L379.4,481.3c-0.3-0.1-0.6,0-0.7,0.1C378.7,481.5,379,481.5,379.4,481.3z"/>
		<path class="st0" d="M432.5,482.4C432.5,482.4,432.5,482.5,432.5,482.4c0.1,0,0.2-0.1,0.2-0.1s0,0,0-0.1
			C432.7,482.2,432.6,482.2,432.5,482.4z"/>
		<path class="st0" d="M433.1,481.7c0,0-0.1,0-0.1,0.1s0,0.1,0,0.2s0,0.1-0.1,0.2l0,0l0,0c0,0,0,0,0.1-0.1c0-0.1,0.1-0.1,0.1-0.2
			C433.2,481.8,433.2,481.6,433.1,481.7z"/>
		<path class="st0" d="M422.6,483.7c0.1-0.1,0.1-0.2,0-0.2s-0.4,0.5-0.3,0.5c0,0,0,0,0.1,0l0,0C422.5,483.9,422.6,483.7,422.6,483.7
			z"/>
		<path class="st0" d="M432.9,481.6L432.9,481.6c0,0,0.1-0.1,0.4-0.3c0.1-0.1,0.2-0.2,0.3-0.3c0.2-0.1,0.3-0.1,0.3-0.1s0.1,0,0.2,0
			c0,0,0,0,0-0.1C433.7,480.3,432.9,481.5,432.9,481.6z"/>
		<path class="st0" d="M430.5,483.1c0.1,0,0.6-0.4,0.6-0.5l0,0l0,0C431,482.6,430.4,483,430.5,483.1z"/>
		<path class="st0" d="M447.4,479.7L447.4,479.7L447.4,479.7L447.4,479.7L447.4,479.7L447.4,479.7c0,0-0.2,0.2-0.2,0.3
			s0.2,0.2,0.2,0.2s0,0,0-0.2C447.4,479.9,447.4,479.8,447.4,479.7z"/>
		<path class="st0" d="M437.6,485c0,0-0.1,0.1,0.1,0.1c0.1,0,0.1,0,0.1,0l0,0C437.8,484.9,437.6,484.9,437.6,485z"/>
		<path class="st0" d="M421,483.5c-0.1,0-0.1,0.1,0,0.1s0.2,0,0.2,0l0,0l0,0C421.2,483.5,421.1,483.4,421,483.5z"/>
		<path class="st0" d="M434.5,481.2c-0.1,0.2,0,0.4,0,0.4s0,0,0-0.1S434.5,481.3,434.5,481.2c0-0.1,0-0.2,0.1-0.2c0,0,0.1,0,0.2-0.1
			s0.1-0.3,0-0.3C434.9,480.8,434.6,481.1,434.5,481.2z"/>
		<path class="st0" d="M436.3,485.1c0,0-0.1,0.1,0.1,0.1c0.1,0,0.1,0,0.1,0l0,0l0,0C436.5,485,436.3,485,436.3,485.1z"/>
		<path class="st0" d="M355.4,506.3L355.4,506.3c0.2-0.2,0.3-0.4,0.2-0.4l0,0c0,0,0,0-0.1,0c0,0-0.1,0-0.2,0s-0.1,0-0.1,0l0,0
			c0,0,0,0.2-0.1,0.2C355.2,506.3,355.2,506.4,355.4,506.3z"/>
		<path class="st0" d="M434.7,506.3C434.8,506.3,434.8,506.2,434.7,506.3C434.8,506.2,434.8,506.2,434.7,506.3
			c0.1-0.1,0.1-0.2,0-0.3l-0.2-0.2v0.1C434.5,506.1,434.6,506.3,434.7,506.3z"/>
		<path class="st0" d="M342.3,561.4c0-0.1,0-0.5,0-0.5c-0.1,0-0.4,0.3-0.2,0.6C342.2,561.6,342.3,561.5,342.3,561.4z"/>
		<path class="st0" d="M355.8,506.1c0,0,0,0,0.2-0.2c0.3-0.3,0.4-0.4,0.4-0.5c0.1-0.1,0.1-0.2,0.2-0.3c0.4-0.3,0.4-0.3,0.5-0.6
			c0.2-0.4,0.3-0.7,0.6-1c0.1-0.1,0.3-0.4,0.3-0.4c-0.1,0-0.2,0-0.6,0.5c-0.3,0.4-0.6,0.9-0.9,1.3c-0.2,0.2-0.4,0.4-0.6,0.7l0,0l0,0
			h0.1c0,0,0,0,0,0.1C356,505.9,355.8,505.9,355.8,506.1z"/>
		<path class="st0" d="M363,538.6c0.9-0.6,1.2-1.1,1.3-1.3c0.4-0.7,0.9-1.5,2.6-2.8c0.9-0.6,1.3-0.9,1.7-0.8c0.7,0,2.3-1.2,2.3-1.2
			l0,0c0.6-0.5-1-0.7-1.6-0.4c-0.2,0.1-0.4,0.1-0.5,0c-0.6-0.4-1.4,0.5-1.4,0.5c0.4-0.2,0.4-0.2,0.5-0.2l0,0
			c-0.2,0.3-0.8,0.7-1.3,1.1c-5,3.5-5.3,5.6-5.3,5.6C361.1,539.7,361.7,539.5,363,538.6z"/>
		<path class="st0" d="M434.3,479.5c-0.1,0-0.1,0.1,0,0.1s0.1-0.1,0.1-0.1l0,0C434.5,479.5,434.4,479.5,434.3,479.5z"/>
		<path class="st0" d="M416.5,505c-0.1,0.1-0.1,0.1-0.1,0.4c0.1,0,0.3-0.2,0.4-0.3c0-0.1,0-0.1,0-0.2
			C416.7,504.9,416.6,504.9,416.5,505z"/>
		<path class="st0" d="M416,502.6c-0.1,0.1-0.5,0.5-0.3,0.5s0.3-0.1,0.3-0.1l0,0c0,0,0.1-0.1,0.1-0.2
			C416.2,502.6,416.1,502.5,416,502.6z"/>
		<path class="st0" d="M377.7,480.7L377.7,480.7c0,0.1,0.1,0.1,0.1,0.1c0.1,0,0.2-0.1,0.2-0.2C378,480.6,377.8,480.6,377.7,480.7z"
			/>
		<path class="st0" d="M422.4,496.2c-0.1,0,0,0.1,0.1,0.2c0.1,0,0.2-0.1,0.2-0.1l0,0C422.6,496.2,422.4,496.2,422.4,496.2z"/>
		<path class="st0" d="M414.4,526.2L414.4,526.2L414.4,526.2c-0.1-0.2-0.3-0.1-0.6,0c-0.2,0.1-0.7,0.4-0.7,0.4l0,0
			C413.4,526.6,414.3,526.3,414.4,526.2z"/>
		<path class="st0" d="M397.8,537.3h0.1l0,0c0,0,0.1-0.2-0.1-0.5c-0.2-0.2-0.4-0.2-0.5-0.2s-0.1,0.1,0.1,0.4
			C397.6,537.2,397.8,537.3,397.8,537.3z"/>
		<path class="st0" d="M425.2,490.6c0.6,0.1,1.2-0.1,1.3-0.2l0,0l0,0l0,0c0,0-0.1,0-0.3,0c-0.1,0-0.3,0-0.3,0c-0.2,0-0.1-0.2,0-0.4
			c0-0.1,0.2-0.4,0.1-0.5l0,0l0,0l-0.1,0.1c0,0.1,0,0.1-0.2,0.3c-0.1,0.1-0.2,0.2-0.3,0.3c-0.2,0.1-0.2,0.2-0.3,0.3
			C425.1,490.6,425.2,490.6,425.2,490.6z"/>
		<path class="st0" d="M427.4,491.7L427.4,491.7L427.4,491.7c0-0.1-0.4,0.2-0.5,0.2c-0.1,0.1-0.1,0.1,0.1,0.1
			C427,492,427.2,492,427.4,491.7z"/>
		<path class="st0" d="M422.6,499.8c0.1-0.2,0-0.1-0.1-0.1c-0.2,0.1-0.6,0.5-0.8,0.8c-0.2,0.3-0.2,0.3,0,0.3c0.3,0,1,0,1.2-0.3
			c0.1-0.1,0-0.2-0.1-0.3C422.5,500.1,422.5,500.1,422.6,499.8z"/>
		<path class="st0" d="M428.2,496.5c0.1,0,0.2,0,0.3,0l0,0c0-0.2-0.6-0.3-0.8-0.2C427.7,496.3,427.9,496.5,428.2,496.5z"/>
		<path class="st0" d="M428.1,493.7L428.1,493.7c0.1-0.1-0.6,0.1-0.7,0.2c-0.1,0,0,0.1,0.1,0.1C427.8,494,428.1,493.8,428.1,493.7z"
			/>
		<path class="st0" d="M427.8,495.1c-0.1,0-0.2,0.2-0.1,0.2s0.4-0.1,0.4-0.2l0,0C428.2,495,427.9,495,427.8,495.1z"/>
		<path class="st0" d="M398.3,541.4c0.4,0.1,0.5,0,0.5,0l0,0c0.1-0.2-0.4-0.5-0.6-0.4C398.1,541,398,541.3,398.3,541.4z"/>
		<path class="st0" d="M422,496C422,496,422,495.9,422,496c0-0.1,0-0.1-0.1-0.1s-0.1,0.1-0.2,0.1c0,0,0,0.1,0.1,0.1L422,496
			C422,496.1,422,496,422,496z"/>
		<path class="st0" d="M421.7,498c0.1,0,0.2,0,0.3,0l0,0l0,0c0-0.1-0.4-0.2-0.5-0.1c0,0,0,0,0,0.1C421.6,497.9,421.6,498,421.7,498z
			"/>
		<path class="st0" d="M417.6,481.6c0.1-0.1,0.1-0.1,0.1-0.1c0-0.1,0-0.1-0.2-0.1s-0.5,0.2-0.4,0.3
			C417.2,481.8,417.4,481.7,417.6,481.6z"/>
		<path class="st0" d="M416.1,482.1c0,0,0-0.1-0.1-0.1c0-0.1,0.3-0.2,0.3-0.2c0.2,0,0.3,0.1,0.4,0.1l0,0c0.1,0.1,0.1,0.1,0.2,0.2
			l-0.1-0.3c0-0.3,0-0.4,0.1-0.5c0,0,0,0,0-0.1c0-0.2-0.7,0.1-0.7,0.1l0,0h0.2c0,0,0.1,0,0.2,0c0.1,0.1-0.2,0.2-0.2,0.2
			s-0.1,0.1-0.2,0.1h-0.1c-0.1,0-0.2,0.3-0.1,0.4C415.9,482.2,416,482.2,416.1,482.1z"/>
		<path class="st0" d="M415.1,483.2c0.1,0.1,0.2,0,0.3,0c0.1,0,0.2-0.2,0.2-0.2s-0.5,0.1-0.6,0.1C414.9,483,414.8,483.1,415.1,483.2
			z"/>
		<path class="st0" d="M419.6,509.8L419.6,509.8c0-0.1-0.3-0.2-0.3-0.1c-0.1,0,0,0.2,0.1,0.2C419.5,509.9,419.5,509.9,419.6,509.8
			L419.6,509.8L419.6,509.8L419.6,509.8z"/>
		<path class="st0" d="M417.9,487.3c-0.1,0-0.5,0.5-0.5,0.5s0,0,0.1,0c0.1-0.1,0.2-0.1,0.3-0.1l0,0c0,0,0,0.1,0.1,0.1l0,0
			C417.9,487.7,418.1,487.4,417.9,487.3z"/>
		<path class="st0" d="M367.8,493.7c0.2-0.2,0.3-0.3,0.3-0.3c-0.1,0-1.1,0.8-1.2,0.9l0,0C366.9,494.2,367.6,493.8,367.8,493.7
			L367.8,493.7z"/>
		<path class="st0" d="M413.9,495.7c-0.2,0.1-0.3,0.2-0.5,0.3l0,0C413.6,496,413.8,495.8,413.9,495.7z"/>
		<path class="st0" d="M428.8,495.1c-0.2,0.1-0.1,0,0-0.1c0.2-0.2,0.2-0.2,0.2-0.3l0,0C428.9,494.7,428.7,495.1,428.8,495.1
			c-0.1,0.1-0.1,0.1-0.2,0.2c-0.4,0.3-0.8,0.2-1.2,0.5l0,0l0,0l0,0c0.2,0,1.3-0.1,1.6-0.3c0-0.1,0.1-0.3,0.1-0.4
			C429,495,428.9,495,428.8,495.1z"/>
		<path class="st0" d="M429,501.2L429,501.2c0.1,0,0.1-0.1,0.1-0.1c0.1-0.2-0.2-0.4-0.4-0.3C428.6,501,428.8,501.2,429,501.2z"/>
		<path class="st0" d="M422.3,489.9c0.6-0.5,1.1-0.8,1.2-0.9c0.1,0,0.3-0.1,0.3-0.2l0,0c-0.2-0.1-1.5,0.6-1.5,0.6
			c-0.1,0.1-0.3,0.4-0.7,1.1L422.3,489.9z"/>
		<path class="st0" d="M399.5,483.5L399.5,483.5c0.1-0.1,0-0.1,0-0.1c-0.1,0-0.2,0.1-0.2,0.2C399.4,483.6,399.5,483.5,399.5,483.5z"
			/>
		<path class="st0" d="M399,483.3L399,483.3C399.1,483.3,399.1,483.3,399,483.3c-0.1-0.1-0.6-0.1-0.6,0.1
			C398.5,483.5,398.9,483.4,399,483.3z"/>
		<path class="st0" d="M400.6,491.8L400.6,491.8c0.2-0.2,0.1-0.3,0-0.3s-0.3,0.2-0.2,0.3C400.5,491.9,400.6,491.8,400.6,491.8z"/>
		<path class="st0" d="M406.6,495L406.6,495L406.6,495c0.1-0.1-0.1-0.2-0.2-0.1c-0.1,0-0.1,0.1,0,0.2
			C406.5,495.1,406.6,495.1,406.6,495z"/>
		<path class="st0" d="M390.5,489.7c0.1,0.1,0.3,0,0.5-0.1c0.6-0.2,1.1-0.2,1.3,0l0,0c0,0-0.3,0.3-0.4,0.2c0,0,0,0,0-0.1
			s-0.8-0.2-1.2,0.1l0,0c0.3,0.2,0.7-0.2,1.1,0c0,0,0,0.2,0.2,0.2c0.1,0,0.2-0.1,0.3-0.1c0.3-0.3,0.6-0.2,0.8-0.1
			c0.2,0.1,0.3,0.2,0.5,0.3c0,0,0.2,0,0.6-0.1l0,0c0.2-0.1,0.5-0.1,0.7-0.2l-0.4-0.2l0,0c-0.6-0.2-0.3-0.6-0.2-0.7
			c0.1,0,0.2-0.1,0.4-0.1c0,0,0.9-0.1,1.1-0.1l0,0c0,0-0.1-0.1-0.6-0.1c-0.8-0.1-1.8-0.4-2.3-0.6v0.5c0,0.2,0,0.4,0,0.6l0.2-0.1
			c0.2-0.2,0.2-0.3,0.1-0.7l0.2,0.2l0,0c0.1,0.2-0.1,0.8-0.6,0.7l0,0l0,0l0,0l0,0l0,0l0,0l0,0l0,0c-0.4-0.2-0.7,0.3-1.1,0.1
			c-0.1,0-0.2,0-0.4,0.1c-0.1,0.1-0.3,0-0.4,0C390.7,489.3,390.4,489.6,390.5,489.7z"/>
		<path class="st0" d="M384.2,496.4c0.3,0,0.5-0.1,0.7-0.2c0.4,0,0.8,0.1,1.1,0.1c0.1,0,0.1,0,0.2,0c0.7-0.1,1.3-0.3,1.3-0.3l0,0
			l0,0c-0.4,0-1.1,0-1.3-0.3c-0.1-0.1,0-0.2,0-0.3c0.1-0.2,0.4-0.8,0.4-1l0,0c-0.5,0.2-0.8,0.7-1.4,0.9c-0.2,0.1-0.3,0-0.4,0
			c0,0-0.4-0.1-0.9,0.1c-0.3,0.1-0.5,0.1-0.6,0c-0.2-0.4-0.3-0.4-0.4,0C382.9,495.9,383.5,496.4,384.2,496.4z"/>
		<path class="st0" d="M407.2,493.6L407.2,493.6c0.1-0.1,0-0.2-0.2-0.2c-0.1,0-0.4,0.2-0.3,0.3C406.9,493.8,407.2,493.6,407.2,493.6
			z"/>
		<path class="st0" d="M376.1,480.5c0.2-0.1,0.3-0.2,0.3-0.2s-0.2,0.1-0.5,0.3L376.1,480.5z"/>
		<path class="st0" d="M387.7,476.3L387.7,476.3C387.7,476.3,387.8,476.3,387.7,476.3c0.1,0-0.3-0.1-0.4,0.1
			C387.3,476.4,387.5,476.4,387.7,476.3z"/>
		<path class="st0" d="M390.5,476.1c0.1,0,0.1-0.1,0.1-0.1C390.6,475.9,390.5,476,390.5,476.1C390.4,476.1,390.5,476.1,390.5,476.1z
			"/>
		<path class="st0" d="M397.5,482.8c0.1,0,0-0.1,0-0.1c-0.2-0.1-0.9,0-0.9,0.1C396.7,482.9,397.4,482.8,397.5,482.8z"/>
		<path class="st0" d="M417.6,492.6c-0.1,0-0.1,0.1,0,0.2c0.1,0,0.2,0,0.2-0.1l0,0C417.9,492.6,417.7,492.6,417.6,492.6z"/>
		<path class="st0" d="M419,493.9c0.2,0,0.3-0.1,0.4-0.1c0,0,0.1-0.1,0.1-0.2c0-0.2-0.2,0-0.4,0.1
			C418.8,493.8,418.8,493.9,419,493.9z"/>
		<path class="st0" d="M421.2,490.7c0.1-0.2,0.2-0.3,0.2-0.3c0.1-0.1,0.2-0.1,0.3-0.1l0,0l0,0l-0.1-0.1c-0.1,0-0.4,0.2-0.6,0.5
			c-0.1,0.2-0.2,0.4-0.2,0.5C420.9,491.2,421,491.1,421.2,490.7z"/>
		<path class="st0" d="M418.3,495.5c0-0.1,0.1-0.2,0.1-0.2s-0.2,0.1-0.3,0.2c-0.1,0.1-0.1,0.2-0.1,0.2
			C418.1,495.7,418.3,495.6,418.3,495.5z"/>
		<path class="st0" d="M420.8,494.1c0.1,0,0.2,0,0.3,0l0,0c0-0.1-0.4-0.2-0.5-0.1C420.6,494,420.6,494,420.8,494.1z"/>
		<path class="st0" d="M407.5,498.1c-0.2,0.1-0.5,0.6,0,0.8l0,0l0,0C407.6,498.8,407.7,498,407.5,498.1z"/>
		<path class="st0" d="M414.1,492.3c0-0.1-0.1,0-0.3,0.1c-0.1,0.1-0.1,0.2-0.1,0.3c0.1,0,0.2-0.1,0.3-0.2
			C414.1,492.4,414.1,492.3,414.1,492.3z"/>
		<path class="st0" d="M407,494.5c0,0.1,0,0.2,0.1,0.2c0.5-0.1,0.8-0.6,1.2-0.8c0.1,0,0.2,0,0.3-0.1c0.3,0,1.2-0.2,1.7-0.3
			c0.3-0.1,0.3-0.1,0.3-0.1l0,0c-0.1,0-0.2,0-0.3-0.1c0-0.2,0.7-0.5,0.9-0.6c0.1,0,0.4-0.2,0.5-0.3l0,0c0.3-0.2-0.1-0.4-0.4-0.2
			c-0.1,0.1-0.2,0.1-0.3,0.1c0,0,0,0-0.1,0c-0.2-0.2-0.8,0.4-0.8,0.5c0.1,0,0.1,0,0.2,0s0.1,0.3-0.5,0.4c-0.2,0.1-0.5,0-0.8,0.1
			c-0.2,0.1-0.3,0.2-0.4,0.3c-0.2,0.1-0.7,0.3-0.6,0.1l0,0c-0.1,0.1-0.2,0.3-0.4,0.4c-0.2,0.2-0.4,0.2-0.5,0.3
			C407.1,494.4,407.1,494.4,407,494.5z"/>
		<path class="st0" d="M410.9,497.9c0,0,0,0-0.1,0.3c0,0.1-0.1,0.3-0.3,0.4c0,0,0,0-0.1,0.1c0,0,0,0.1,0.1,0.2c0,0,0.1,0,0.1,0.1
			s0,0.2,0,0.3l0,0c0,0,0.1-0.1,0.3-0.4c0.5-0.6,0.5-0.7,0.4-0.8C411.3,498,411,497.9,410.9,497.9z"/>
		<path class="st0" d="M413.5,493.6c0.1-0.1,0.1-0.2,0.1-0.2l0,0l0,0c-0.1,0-0.6,0.4-0.9,0.7c-0.5,0.4-0.4,0.4-0.4,0.4
			C412.5,494.5,413.1,494,413.5,493.6z"/>
		<path class="st0" d="M368,553.4c-0.3,0.5-0.5,1-0.6,1.6C368,554.1,368,554,368,553.4z"/>
		<path class="st0" d="M532,498.1c0-0.1-0.1-0.2-0.2-0.4l-0.1-0.1C531.8,497.8,531.9,497.9,532,498.1z"/>
		<path class="st0" d="M525.7,495.4L525.7,495.4c-0.1-0.3-0.4-0.7-0.6-0.9c-0.1-0.1-0.1-0.2-0.2-0.2
			C525.2,494.6,525.5,495,525.7,495.4z"/>
		<path class="st0" d="M532.5,499.4L532.5,499.4L532.5,499.4z"/>
		<path class="st0" d="M531.4,499.3v0.3v0.2v-0.1c0.2-0.1,0.5-0.2,0.8-0.3C532,499.4,531.7,499.3,531.4,499.3z"/>
		<path class="st0" d="M532.1,498.3c0,0,0,0-0.1,0.2l0.2,0.4c0.1,0.1,0.2,0.3,0.3,0.5c0,0-0.1-0.1-0.2-0.4
			C532.2,498.8,532.1,498.5,532.1,498.3L532.1,498.3z"/>
		<path class="st0" d="M525,493.5C525.1,493.5,525.1,493.5,525,493.5C525.1,493.5,525.1,493.5,525,493.5L525,493.5z"/>
		<path class="st0" d="M500.1,479.5c0.1,0,0.1,0.1,0.2,0.1C500.2,479.6,500.1,479.6,500.1,479.5z"/>
		<path class="st0" d="M498.4,478.3L498.4,478.3L498.4,478.3L498.4,478.3z"/>
		<path class="st0" d="M524.5,493.2c0,0-0.1,0-0.3,0l0,0H524.5z"/>
		<path class="st0" d="M501.2,480.5c-0.1-0.1-0.3-0.3-0.4-0.4C500.9,480.3,501,480.4,501.2,480.5z"/>
		<path class="st0" d="M507,484.6c-2.5-1.5-4.4-2.7-4.9-3.1C503.5,482.9,505.2,483.8,507,484.6z"/>
		<path class="st0" d="M498.2,516.4C498.2,516.4,498.3,516.4,498.2,516.4c0.1,0,0.2,0.1,0.2,0.3c0,0,0,0.1,0.1,0.1l0,0
			c0.1-0.1,0.2-0.3,0.1-0.5s-0.6-0.3-0.8-0.1c-0.1,0.1,0,0.2,0.1,0.2C498,516.4,498.1,516.5,498.2,516.4z"/>
		<path class="st0" d="M543,509.5c0,0,0,0-0.1-0.1l0,0c-0.3-0.3-1.2-1.2-1.3-1.2C541.7,508.3,542.9,509.5,543,509.5z"/>
		<path class="st0" d="M539.7,504.6c0-0.1-0.1-0.2-0.1-0.2l0,0C539.5,504.4,539.6,504.6,539.7,504.6
			C539.6,504.7,539.7,504.7,539.7,504.6z"/>
		<path class="st0" d="M541.9,507.9L541.9,507.9c-0.4-0.5-0.7-0.7-0.8-0.6c0,0.1,0,0.1,0.1,0.3c0,0,0.7,0.7,0.8,0.7l0,0
			C542.1,508.2,542.1,508.2,541.9,507.9z"/>
		<path class="st0" d="M547.9,519.3c0.1,0.1,0.2,0,0.2-0.1c0,0,0-0.1,0.1-0.1s0.2,0.1,0.3,0.2l0,0c0-0.1,0-0.2-0.2-0.4
			c-0.3-0.5-0.2-0.6-0.1-0.6c0,0-0.1-0.1-0.2-0.1c-0.2-0.1-0.4-0.2-0.5-0.4c-0.3-0.2-0.5-0.5-0.8-0.7c-0.1-0.1-0.2-0.1-0.2-0.1
			c-0.2,0.1,0.3,1,1,1.8C547.6,519.1,547.8,519.2,547.9,519.3z"/>
		<path class="st0" d="M541.4,507.3c0.5,0.6,1,1.2,1.6,1.7c0.1,0.1,0.2,0.2,0.2,0.2c0-0.1,0.1-0.1,0.1-0.2l0,0
			c-0.1-0.3-0.9-1.3-0.9-1.3c-0.1-0.2-0.2-0.2-0.2-0.3c-0.1-0.1-0.3-0.2-0.4-0.3c-0.2-0.2-0.4-0.4-0.7-0.6c-0.1-0.1-0.1-0.1-0.1-0.1
			c0,0.1,0.1,0.2,0.1,0.3c0,0.1-0.1,0-0.3-0.2c0-0.1-0.2-0.4-0.4-0.5l0,0c0,0.2,0.4,0.7,0.5,0.8C541,507,541.3,507.1,541.4,507.3z"
			/>
		<path class="st0" d="M531.5,500L531.5,500C531.5,499.9,531.5,499.9,531.5,500L531.5,500z"/>
		<path class="st0" d="M538.3,497.5L538.3,497.5c-0.2-0.3-0.5-0.5-0.7-0.8c-0.2-0.2-0.4-0.5-0.6-0.7c-0.3-0.3-0.6-0.7-0.9-1
			c-0.1-0.1-0.1-0.1-0.2-0.1C535.9,495.1,538,497.3,538.3,497.5z"/>
		<path class="st0" d="M535.1,493.7c0,0-0.1-0.1-0.1-0.2l0,0l-0.1-0.1C534.8,493.4,535,493.7,535.1,493.7z"/>
		<path class="st0" d="M534.7,493.2c0,0,0-0.1-0.1-0.1c-0.1-0.1-0.2-0.2-0.2-0.3c0,0,0,0-0.1-0.1l0,0
			C534.3,492.8,534.7,493.2,534.7,493.2z"/>
		<path class="st0" d="M535.7,494.6C535.7,494.6,535.7,494.5,535.7,494.6c-0.1-0.2-0.1-0.2-0.2-0.3l0,0
			C535.5,494.3,535.7,494.6,535.7,494.6z"/>
		<path class="st0" d="M485,477.2L485,477.2c-0.1,0-0.1,0-0.1,0C484.9,477.3,485.1,477.3,485,477.2
			C485.1,477.2,485.1,477.2,485,477.2z"/>
		<path class="st0" d="M545.8,522.8c-0.1,0-0.2,0-0.3-0.1C545.6,522.8,545.7,522.8,545.8,522.8z"/>
		<path class="st0" d="M546.9,522.9c0.1,0,0.1,0,0.2,0C547,523,547,522.9,546.9,522.9z"/>
		<path class="st0" d="M546.1,522.9c0.1,0,0.3,0,0.4,0.1C546.4,522.9,546.2,522.9,546.1,522.9z"/>
		<path class="st0" d="M541.7,515c-0.2-1.1-1.6-2-0.8-3.4c-1.6-1.8-1.8-1.9-2.6-2.3c-0.1,0.2-0.3,0.4-0.4,0.6
			c-1.2-0.9-2.3-1.9-3.5-2.7c-2.4-1.3-3.6-2.5-4.1-3.5c0.4,1.3,1.6,2.1,3.4,3.2c6.4,3.6,6.5,13.1,14.2,15.4c0.1,0.1,0.2,0.3,0.2,0.5
			c-0.2,0.2-0.6,0.3-0.9,0.3c0.4,0,0.8-0.1,1.2-0.2c0,0.1,1.4,6.2,5.1,5.7C554,523.8,542.2,515.2,541.7,515z"/>
		<polygon class="st0" points="542,522.3 542.1,522.1 542.3,521.4 		"/>
		<path class="st0" d="M554.4,560.6c0-0.1-0.1-0.3-0.2-0.4c0-0.1,0,0,0,0c0,0.2,0.1,1,0.2,0.9C554.5,561,554.4,560.8,554.4,560.6
			L554.4,560.6z"/>
		<path class="st0" d="M541.7,522.5c0.1,0,0.1,0,0.2,0l0,0C541.9,522.4,541.8,522.5,541.7,522.5z"/>
		<path class="st0" d="M478.4,516.6c0-0.1-0.1-0.3-0.2-0.3s-0.1,0.2-0.1,0.3s0.1,0.2,0.2,0.2S478.4,516.6,478.4,516.6L478.4,516.6z"
			/>
		<path class="st0" d="M540.7,522.5c-0.6-0.1-1.2,0-1.8,0C539.5,522.5,540.1,522.4,540.7,522.5z"/>
		<path class="st0" d="M526.7,494.4c1.5,0.9,3.6,2.1,4.5,2.7C529.8,495.9,528.2,495.2,526.7,494.4z"/>
		<path class="st0" d="M525.7,495.4L525.7,495.4L525.7,495.4z"/>
		<path class="st0" d="M522.2,493.7c0.1,0.1,0.3,0.3,0.6,0.4c0.6,0.4,1.2,0.6,1.9,0.9l0,0C524.1,494.8,523.2,494.3,522.2,493.7z"/>
		<path class="st0" d="M506.7,512c-0.1,0.1,0.2,0.7,0.3,0.6c0.1-0.1,0-0.4-0.1-0.6C506.8,511.9,506.8,512,506.7,512z"/>
		<path class="st0" d="M498.2,516.9C498.2,516.9,498.1,516.9,498.2,516.9c0,0.2,0,0.2-0.1,0.3c-0.2,0.1-0.5-0.1-0.7,0s0,0.3,0.4,0.5
			c0.8,0.3,0.9-0.1,0.8-0.3C498.7,517.1,498.3,516.9,498.2,516.9z"/>
		<path class="st0" d="M506.5,512.5c0-0.1,0-0.1,0-0.2c0-0.1-0.1-0.2-0.1-0.3c-0.5-1.4-1.8-2.2-2.5-3.5c-0.8-1.4-0.3-1.7-0.3-1.7
			c1-0.5,1.5,0.6,2.2,0.8c0,0,0.1-1.7-2.4-2.4c-0.4-0.1-0.4,1.2-0.3,1.4c0,0,0,0.1-0.1,0.1c0,0-1.2-0.8-1.2-1.2l0.1-0.1
			c0-0.1,0-0.4-0.5-0.4c-0.1-0.4,0.1-0.6,0.2-0.7c0.4,0.1,0.6,0.5,1,0.6l0.1-0.1c-0.2-0.3-0.6-0.3-0.7-0.6c-0.1-0.4,0-1,0.1-1.3
			c0.4-0.9,1.6-0.5,2-1.3c-0.2-0.3,0-0.6,0-1v-0.1c0,0-1.1-1.8-2.3,1c-0.1,0-0.3,0.1-0.6,0.7c-0.3,0.7-0.6,1.2-2,0.6
			c-1.5-0.6-5.6-4.9-5.7-4.9l0.1-0.1c0.6,0,0-0.9,0-1.4l0.1-0.1c0-0.1,0-0.2,0-0.2c-0.2-0.6-0.2-0.6-1.1-1.9c0.1,0,0.2-0.1,0.3-0.1
			V494c-1-1.1-2.1-0.1-2.2,0.1c0,0.1,0.1,0.2,0.1,0.3l0,0c0.1,1,1.1,1.3,1.5,2.1c0.1,0.3,0.6,1.2,0.4,1.5c-0.1,0.1-0.2,0.9-0.1,1.2
			c0.2,0.5,0.3,1.1,0.6,1.6c1.5,2.4,2.2,2.6,3,2.7c0.6,0.1,1,0.2,1.8,0.9c0,0,1.2,1.1,0.6,2.3c-0.4,0.8-0.4,0.8,1.3,3
			c0,0.1,0.1,0.1,0.2,0.2s0.2,0.1,0.3,0.1c0-0.1,0-0.1-0.2-0.5l0.1-0.1c0,0,1.1,1.7,1.1,2.3c-0.2-0.1-0.3-0.2-0.5-0.3
			c0.4,0.6,0.4,0.6,0,0.9c-0.7,0.4-0.5,1-0.3,1.5c0,0.1,0.1,0.2,0.1,0.3c0,0.4,0.1,1.4-1.9-0.1c0.2,0.4,0.2,0.4,0.2,0.6l-0.1,0.1
			c0.2,0.3,0.2,0.7,0.5,0.9c0,0,0-0.1,0.1-0.1c0.2,0,0.4,0.1,0.3,0.3c-0.2,0.1-0.2,0.1-0.1,0.8c-0.4,0.2-0.4,1.1-0.1,1.3
			c0.3-0.2,0.4-0.4,0.6-0.9c0.3-0.7,0.7-1.3,1-1.2c0.6,0.1,1,1.2,1.7,0.8c0.8-0.5,1.1-1.3,1.1-1.5c0-0.9,0.8-1.3,0.8-1.4
			c0.6-0.3,0.9,0.3,1.3,0.3c0,0,0.5,0.1,0.6-0.5C506.8,513.1,506.4,512.8,506.5,512.5C506.3,512.7,506.5,512.7,506.5,512.5z"/>
		<path class="st0" d="M532.9,517.7C532.9,517.6,532.9,517.6,532.9,517.7c-0.2,0-0.4,0.4-0.4,0.5s-0.1,0.3-0.1,0.4
			c-0.1,0.3-0.1,0.6-0.1,0.9c0,0.2-0.2,0.4-0.2,0.5v0.1c0,0.5,0,0.8,0.4,2l0.7,0.5c0.3,0.2,0.5,0.3,0.6,0.2v-0.1
			c0-0.2,0.3-0.5,0.4-0.6c0.2-0.2,0.4-0.3,0.6-0.4c0,0,0-0.1,0.1-0.1c0,0,0-0.1,0-0.2c0-0.4-0.4-0.7-0.5-1.1
			c-0.1-0.3-0.1-0.6-0.3-0.9c-0.1-0.1-0.1-0.1-0.3-0.1c-0.4,0-0.7-0.4-0.7-0.6l0,0C533.1,519,533,517.8,532.9,517.7z"/>
		<path class="st0" d="M530.1,548.3c0.1,0.2,0.3,0.6,0.4,0.6c0.1-0.1,0.2-0.1,0.3-0.2c0.1-0.1,0.1-0.5,0-0.7
			c-0.1-0.1-0.1-0.2-0.1-0.2h-0.1c0,0.1-0.2,0-0.3,0c-0.1-0.1-0.3-0.2-0.3-0.2l-0.4-0.3C529.6,547.3,530,548.2,530.1,548.3z"/>
		<path class="st0" d="M530.3,501.1c0.2-0.4,0.5-0.7,0.7-0.8C530.7,500.4,530.6,500.5,530.3,501.1
			C530.3,501,530.3,501.1,530.3,501.1z"/>
		<path class="st0" d="M482.8,491.5c0,0,0.1,0.1,0.2,0l0.1-0.1C483.1,491.4,482.8,491.4,482.8,491.5z"/>
		<path class="st0" d="M468.1,480.7c-0.1-0.1-0.2-0.2-0.3-0.2c0,0,0,0.1,0.1,0.2s0.2,0.1,0.3,0.1
			C468.3,480.8,468.2,480.7,468.1,480.7z"/>
		<path class="st0" d="M471.4,472.1c0,0.1,0.3,0.3,0.5,0.3c0.1,0,0.2,0.1,0.4,0.3l0.1-0.1l0,0c0-0.1-0.6-0.3-0.9-0.4
			C471.4,472.1,471.4,472.1,471.4,472.1z"/>
		<path class="st0" d="M481.2,464.7L481.2,464.7c-0.1,0-0.2,0-0.3,0c0,0.1,0.3,0.2,0.4,0.1c0,0,0.1,0,0-0.1
			C481.4,464.8,481.3,464.7,481.2,464.7z"/>
		<path class="st0" d="M495.9,474.4c0,0.1,0.2,0.1,0.3,0.1c0.1,0,0.1,0,0.1,0s0,0,0.1,0c0.2,0,0.5,0.1,0.7,0.1h0.1l0,0l0,0
			C496.8,474.3,495.9,474.2,495.9,474.4z"/>
		<path class="st0" d="M467.9,478.7L467.9,478.7L467.9,478.7c-0.3-0.2-0.7-0.4-0.8-0.4C467.1,478.5,467.8,478.8,467.9,478.7
			L467.9,478.7z"/>
		<path class="st0" d="M456.4,490.3v-0.2c-0.1-0.2-0.2-0.2-0.2-0.2C456.1,489.9,456.2,490.3,456.4,490.3z"/>
		<path class="st0" d="M457.1,490.6c0,0,0.1,0,0.1-0.1s-0.3-0.1-0.4,0C456.9,490.5,457,490.6,457.1,490.6z"/>
		<path class="st0" d="M457.4,491c0.1,0,0.1-0.1,0.1-0.1c0-0.1-0.2-0.1-0.3,0C457.2,490.9,457.3,491,457.4,491z"/>
		<path class="st0" d="M456.9,491.9L456.9,491.9c0.1-0.1-0.1-0.2-0.2-0.2s-0.2-0.2-0.3-0.4s-0.1-0.4,0-0.6l0.1-0.1
			c0-0.1-0.6,0-0.7,0c0,0,0,0,0,0.1l0.1,0.1c0,0,0.1,0.1,0.2,0.2c0.1,0.2,0.2,0.5,0.3,0.6C456.6,491.9,456.8,491.9,456.9,491.9z"/>
		<path class="st0" d="M468,480.1c0,0-0.6-0.3-0.6-0.2C467.4,480,467.8,480.3,468,480.1C468.1,480.2,468.1,480.1,468,480.1z"/>
		<path class="st0" d="M496.5,479.7c-0.5-0.2-1.1-0.4-1.7-0.5C495.4,479.4,495.9,479.7,496.5,479.7z"/>
		<path class="st0" d="M471.8,473.2c-0.1,0-0.1,0-0.2,0c0,0,0.1,0.1,0.4,0.2C472,473.2,471.9,473.2,471.8,473.2L471.8,473.2z"/>
		<path class="st0" d="M483.8,485.9c0,0.1,0.2,0.3,0.3,0.2c0.1-0.1,0-0.2-0.1-0.3C484,485.7,483.8,485.8,483.8,485.9z"/>
		<path class="st0" d="M453.3,479.4c0,0-0.3,0.3,0,0.3C453.4,479.6,453.4,479.4,453.3,479.4C453.4,479.3,453.4,479.3,453.3,479.4z"
			/>
		<path class="st0" d="M485.2,502.7c0,0.1,0.1,0.1,0.3,0.1c0.1,0,0.1-0.1,0.1-0.1C485.4,502.6,485.2,502.6,485.2,502.7z"/>
		<path class="st0" d="M483.5,486.4c-0.1-0.1-0.3-0.2-0.3-0.2S483.3,486.3,483.5,486.4c0,0.1,0.1,0.1,0.1,0.1L483.5,486.4z"/>
		<path class="st0" d="M485.4,499.2c-0.1,0.1,0,0.7,0.1,0.9c0,0.1,0.1,0.1,0.1,0.1s0,0,0.1,0c0.1,0.2,0.1,0.3,0.2,0.5c0,0,0,0,0,0.1
			c0.1,0.1,0.1,0.1,0.1,0.1c0.2-0.1,0-1.2-0.3-1.5C485.8,499.4,485.5,499.1,485.4,499.2z"/>
		<path class="st0" d="M533.5,545.6c0.1,0,0.2-0.1,0.2-0.1l0,0c0-0.1-0.5-0.2-0.5-0.2c-0.2,0-0.3,0-0.3,0.1
			C532.8,545.4,533.1,545.8,533.5,545.6z"/>
		<path class="st0" d="M482.7,489.6c0,0,0,0,0-0.1c-0.1-0.1-0.4-0.2-0.4-0.1C482.2,489.5,482.6,489.6,482.7,489.6z"/>
		<path class="st0" d="M533.3,547.2c0,0,0,0.2,0.1,0.3c0.2,0.3,0.2,0.4,0.2,0.4s0-0.3-0.1-0.4C533.4,547.2,533.3,547.1,533.3,547.2z
			"/>
		<path class="st0" d="M495.2,523.2c0-0.1-0.1-0.1-0.1,0c-0.1,0.1-0.1,0.7,0.1,0.7C495.4,523.8,495.3,523.3,495.2,523.2L495.2,523.2
			z"/>
		<path class="st0" d="M532.7,547.1c0.2-0.1,0.1-0.2,0.1-0.2l0,0c-0.1-0.1-0.4,0.1-0.4,0.2C532.4,547.1,532.6,547.1,532.7,547.1z"/>
		<path class="st0" d="M482.2,490.3l-0.2-0.2c0,0,0.1,0.3,0.1,0.4s0.1,0,0.2,0C482.4,490.5,482.3,490.4,482.2,490.3z"/>
		<path class="st0" d="M482.2,491.7L482.2,491.7c0,0.1,0.5,0.5,0.6,0.5c0,0,0,0,0-0.1C482.7,492,482.2,491.7,482.2,491.7z"/>
		<g>
			<path class="st0" d="M560.3,568.4c-2.6-1.7-3.2-5-5.4-7.1c-0.1,0.4-0.3,1-0.4,1.5c-0.6-0.4-1.1-0.9-1.6-1.5
				c2.6,4.3,5.6,9.6,5.7,10.1l2.2,6h3.3C562.8,574.5,561.4,571.5,560.3,568.4z"/>
			<path class="st0" d="M348.1,566.8c-0.2-0.1-0.4-0.3-0.6-0.4c-0.2,0.1-0.6,0.2-0.8,0.2c-2.7-4.1-2.7-4.1-3.8-4.4
				c-0.6,0.6-0.8,1.3-1.3,1.9c-1.2-1.4-1.6-3.2-2.9-4.6c-6.6,0.6-8.4,10.5-8.6,17.9H346C345.4,573.9,348.4,570.4,348.1,566.8z"/>
			<g>
				<path class="st0" d="M511.4,547.8c0.3,0.3-0.4,1.2-0.4,1.2c-0.2,0.2-0.4-0.1-0.6-0.1c-0.1,0.2,0.1,0.6,0.1,0.6s0,0.1,0.1,0.1
					c0.2,0.5,0.7,0.8,0.9,1.2c0.1,0.1,0.1,0.3,0.1,0.4c0.5,2.1,0.5,2.4,1,2.6c0.1,0.1,0.5,0.2,0.7,0.1c0.2-0.2,0.1-0.5,0.3-0.7
					c0.1-0.3,0.5-0.2,0.6-0.4v-0.1c0-0.2,0-0.8-1-3.3c-0.2-0.7-0.4-1.1-0.6-1.3c-0.2-0.3-0.6-0.4-0.8-0.6c-0.1-0.1-0.2-0.2-0.3-0.8
					c-0.1-0.4-0.3-1.5-0.9-2.7c-0.3-0.5-0.3-0.6-0.4-0.6c-0.2,0.1,0,0.4-0.1,0.5c-0.1,0.3-0.4,0.5-0.5,0.8v0.1c0,0.1-0.1,0.3,0,0.5
					C509.9,546.6,510.4,547,511.4,547.8z"/>
				<path class="st0" d="M545.6,547.1c0,0.2,0.2,0.5,0.6,0.7c0.1,0.1,0.6,0.2,0.8,0c0.1-0.1,0.1-0.3,0.1-0.9c0-0.3,0.1-0.6,0.2-0.9
					l0,0c0-0.3-0.3-0.5-0.3-0.7c-0.1-0.4,0-0.8-0.1-1.2c0-0.2-0.1-0.2-0.1-0.2s0,0-0.1,0l0,0c-0.1,0.3,0,0.7-0.2,1.1
					c0,0.1-0.2,0.4-0.3,0.6c-0.1,0.1-0.3,0.3-0.3,0.5s0.1,0.3,0,0.5C545.7,546.7,545.5,546.9,545.6,547.1z"/>
				<path class="st0" d="M536.9,553.2c0.4,0,0.7-0.2,1.1-0.2c0.2,0,0.3,0,0.4,0.1h0.1h0.1c0.5-0.2,1.2-1,1.3-1.5l0,0
					c0-0.2,0-0.3-0.2-0.3c0,0-0.3-0.1-0.3,0.1c0,0.2,0.2,0.2,0.3,0.4c0,0,0,0-0.2-0.1c-0.1-0.1-0.3-0.1-0.6-0.1
					c-0.5,0.1-0.9,0.4-1.3,0.5c-0.3,0.1-0.3,0-0.4-0.1c0,0-0.1-0.1-0.1,0c-0.1,0-0.1,0.1-0.1,0.1c-0.1,0.2-0.1,0.2-0.2,0.2
					c-0.1,0-0.2-0.2-0.4-0.2c-0.2,0.1,0.1,0.8,0.2,0.9C536.6,553.2,536.7,553.2,536.9,553.2z"/>
				<path class="st0" d="M453.5,455.9c0.1,0,0.2,0,0.3,0c0.3,0,0.7,0,1.1,0.1c-0.2,0-0.5,0-1-0.1H453.5z"/>
				<path class="st0" d="M445.7,455.7h1c-0.1,0-0.2,0-0.3,0H445.7z"/>
				<path class="st0" d="M446.8,455.7c2.9,0,5.5,0.1,7.9,0.3c-0.3,0-0.6-0.1-0.9-0.1c-3.1-0.2-3.7-0.2-5.7-0.2L446.8,455.7z"/>
				<path class="st0" d="M422.4,481.1c0.1,0,0.1,0.2,0.2,0.2c0.2,0,0.2-0.2,0.3-0.3c0.2-0.1,0.4,0,0.5-0.1s0.3-0.1,0.3-0.1
					c0.1,0,0.3-0.3,0.2-0.4c-0.2-0.1-1.2-0.1-1.6,0.1c-0.1,0-0.2,0.1,0,0.2s0.1,0.2,0.1,0.2c0,0.1-0.1,0.1-0.5,0
					c-0.3-0.1-0.5-0.1-0.8,0.1c-0.1,0.1-0.5,0.3-0.4,0.5C420.7,481.6,421.9,481.7,422.4,481.1z"/>
				<path class="st0" d="M415.2,483.9c0.8,0,0.8,0,1.3,0.1c0.6,0.1,1.1,0.2,1.7,0.2c0.5,0,1.4-0.4,1.7-0.6c0.5-0.3,0.2-0.4-0.4-0.5
					l0.6-0.4c0.6-0.4,0.7-0.5,0.8-0.6l0,0c0,0,0,0-0.4,0.3l0,0l0,0c-0.1-0.2-1.2,0.1-1.2,0.1s0,0-0.1,0c-0.1,0.1-0.1,0.2-0.2,0.3
					c-0.1,0.1-0.3,0-0.5,0.1c-0.1,0.1-0.2,0.2-0.2,0.2c-0.1,0.3-0.6-0.1-0.6-0.1c0-0.1,0-0.1,0-0.1c0.7-0.5,0.6-0.8,0.4-1.2
					c0-0.1,0-0.1,0.6-0.3l1.1-0.4l0,0c0.1-0.1-0.1-0.2-0.1-0.2c-0.3-0.1-0.7-0.2-1-0.2c-0.8,0-1.6,0.3-2.3,0.2
					c-0.2,0-0.3-0.1-0.5-0.1h-0.1c-0.4,0-1,0.3-1.1,0.4l0,0c0.1,0,0.1,0,0.2,0.1c0,0.2-0.2,0.2-0.3,0.3c0.3,0.1,0.5-0.2,0.8-0.2
					c-0.1,0.1-0.2,0.1-0.3,0.2l0,0c0.1,0,0.3,0,0.4,0c0,0,0,0-0.2,0.1c-0.5,0.2-0.5,0.2-0.5,0.2c0.3,0.3,0.6,0,0.9,0
					c-0.3,0.3-1,0-1.1,0.6c0,0.2,0.2,0.3,0.1,0.5c-0.1,0.3-0.7,0.3-0.5,0.7C414.2,483.7,414.4,483.9,415.2,483.9z"/>
				<path class="st0" d="M424.1,483.5c-0.1,0-0.1,0-0.6,0.2c0.1-0.1,0.2-0.2,0.2-0.3c-0.4-0.2-1.4-0.1-2.2,0.5
					c0.1-0.3,0.5-0.6,0.4-1c-0.7,0.2-2.1,1.1-1.4,1.6c0,0,0.1,0.1,0.2,0.1c-0.1,0.2-0.3,0.4-0.4,0.6c0.6,0.6,1.4,0.2,1.8-0.1
					c0,0,0.1,0.1,0.1,0.2c-0.3,0.3-0.7,0.7-1,1c0.1,0,0.1,0.1,0.2,0.1c0.5-0.4,1.2,0,1.8-0.4c0.5-0.4,0.7-1,1.3-1.3
					c0.3-0.1,0.4-0.1,0.6,0.1c0,1.2-1.3,1.1-1.9,1.7c0.4,0.5,3,1.5,3.7,1.1c0.4,1.3,2.9-0.4,2.9-0.8c0.4-1.8-3.6,0.5-3.6-1.4
					c0.3-0.1,1.1-0.5,4.1,0.3c-0.1,0.1-0.1,0.1-0.2,0.2c0.1,0.1,0.1,0.1,0.6,0.2c-0.1,0.1-0.2,0.2-0.4,0.3c0,0.1,0.1,0.1,0.1,0.2
					l2.1-1.5c-0.1,0-0.1,0-0.2,0c0-0.1,0-0.1,0-0.2c2.1-0.8,2.4-0.9,2.5-1c0.4,0,0.7,0,3.4-1.6c0,0,3.6-1.8,4.3-2
					c0,0.6-0.3,0.7-0.9,0.7c0,0-1.6,0.4-2,1c0,0.1,0.1,0.1,0.1,0.2c0.1,0,0.3,0.1,0.4,0.1c0,0.3-0.2,0.7-1.2,0.8
					c-2.3,0.4-2.8,0.7-3.2,1l0.1,0.2c0.1,0.1,0.2,0.2,0.3,0.3c0,0.1,0,0.1,0,0.2c-0.3,0.1-0.7,0-1,0.1c0,0.1,0.1,0.2,0.2,0.3
					c-0.5,1.2,0.3,1.9,0.8,1.8c0-0.1,0-0.1,0.1-0.2c1.1,0.4,2.3,0.1,3.3,1c-0.4,0.4-0.3,0.6,0.1,1c-0.1,0.2-0.2,0.3-0.4,0.5
					c0,0,0.1,0.1,0.1,0.2c-0.1,0.1-0.3,0.2-0.3,0.3c0.2,0.3,0.2,0.3-0.3,1l0.3-0.1c0.1,0,0.1,0,0.2,0c-0.4,0.8-0.4,0.8-0.3,1.1
					c-0.1,0.1-0.3,0.2-0.4,0.3c0,0.1,0,0.3,0.1,0.5c-0.8,1.5-0.8,1.5,0.2,1.7c0,0.1,0,0.1,0.1,0.2c-0.1,0-0.1,0-0.2-0.1
					c0,0.1-0.1,0.1-0.1,0.2s0.1,0.1,0.1,0.2c0.1,0,0.1,0,0.2,0c0.1-0.1,0.1-0.1,0.2-0.6c0.1,0.1,0.1,0.3,0.2,0.4
					c0.7,0.2,0.3,0.8,0.2,0.9c-0.5-0.9-1.6-0.3-1.6-0.3c0,0.1,0,0.3,0,0.4c-0.1,0-0.3,0-0.4-0.1c-0.3,0.7-0.3,0.7-0.7,1.4l0.3,0.4
					c0.7,0.8,1.8-0.5,1.8-0.5c0-0.4-0.3-0.5-0.4-0.8c0.3,0.1,0.5,0.4,0.7,0.5c0,0-0.1,2.3-1.3,2c-1.2-0.3-2.7,2.8-2.6,3
					c0.1,0,0.1,0.1,0.2,0.1c-0.6,0.8-0.6,0.8-1.1,2.4c0.1,0,0.3,0.1,0.3,0.2l-0.2,1.7l0,0c0,0,0,0,0,0.1l-0.1,0.9
					c-0.7,0.9,0.2,5.9,0.3,6.4c0.8,0.2,1.9-0.4,2.3,0.7c0.7,2,2,1,2.1,0.9s1.5-2.3,2.1-3.3c0.3-0.5,0.3-1.2,0.7-1.7
					c0.6-0.8,1.6-1.3,2.1-2.2c0.1-0.2,0.7-2.5,0.7-2.5c0.2-0.1,0.8-0.2,1-1c0.3-0.1,0.7-0.1,1-0.2c0-0.1,0-0.1,0-0.2
					c0.4,0.1,0.6,0.4,1.1,0.4c0.1-0.2,0.1-0.3,0.4-0.4c0-0.1,0.1-0.2,0.2-0.3c0.1,0,0.1,0,0.2,0c2.5-2.3,3.2-3,3.6-4.4
					c0,0,2.2,1.5,6.4-3.9l-0.7-0.1c-1.3-0.1-1.5-0.3-1.7-0.3c0.1,0,0.1-0.1,0.2-0.1c0-0.3-0.1-0.6-0.1-1c0.2-0.1,0.5-0.2,0.7,0.3
					c0.1,0.3,0.4,1.1,1.8,0.6c0.1-1.5-0.8-2.2-1.4-2.7c0.9,0.1,0.5-0.6,0.5-0.6l-0.1-0.1c0-0.1,0.1-0.1,0.1-0.2
					c0-0.3-0.2-0.4-0.2-0.7c0-0.5,0.9-1,0.4-1.4c0-0.1,0.1-0.1,0.1-0.2c0.7-0.1,0.7-1.1,0.7-1.2c0.1-0.1,0.2-0.2,0.3-0.2
					c-0.1-0.1-0.2-0.2-0.3-0.2c-0.1-0.1-0.2-0.2-0.3-0.3c-0.1,0-0.2,0.1-0.2,0.1c0,0.3,0,0.4,0.2,0.8c0,0.1-0.1,0.1-0.1,0.2
					c-0.4,0-0.4,0-1.7-2.7c0.4-0.3,0.7-0.2,1.2,1c0-1.6-0.6-1.7-1.2-1.9c0.1-0.1,0.2-0.2,0.2-0.3c-0.2-0.3-0.6-0.4-0.9-0.7
					c0,0.1,0,0.2,0,0.2c-0.3-0.2-0.3-0.5-0.2-0.8c0.1,0,0.3,0,0.4,0c0-0.4-0.4-0.9-0.4-0.9c0.6-1.2,0.6-1.2,0.5-1.5
					c0.4-0.2,0.6-1,0.6-1c-0.4-0.6-1.7-0.2-1.7-0.2c0,0.1,0,0.1,0,0.2c-0.1,0-0.1,0-0.2,0c-0.1-0.1-0.2-0.2-0.3-0.4
					c0,0.1,0,0.3,0.1,0.4c-0.2-0.1-0.3-0.3-0.5-0.4c0.1,0.4,0.1,0.4-0.1,0.9c-0.2-0.4-0.2-0.9-0.4-1.4c-2.4-0.6-2.4-0.6-3.5-0.4
					c-1.3,0.2-2.4,1.2-3.8,0.9l0.2,0.4c0.1,0.1,0.1,0.3,0.1,0.4c-0.1-0.1-0.2-0.2-0.3-0.3c-0.1,0-0.1,0-0.2,0
					c-0.1-0.1-0.2-0.3-0.2-0.4c0,0.2,0,0.3-0.3,0.4c0,0.1,0,0.3,0,0.5c-0.7-0.3-0.7-0.3-0.8,0.1c0-0.1-0.1-0.3-0.2-0.4
					c-0.7,0-1.3,0.3-2,0.3c0-0.1,0.1-0.3,0.1-0.4c-3.4-1.7-9.3-0.1-9.4-0.1c0,0.4-0.2,0.7-0.1,1.1c-0.3,0.1-0.4,0.2-0.6,0.3
					c0.2-0.3,0.2-0.3,0.3-1.3c-0.9-0.6-3.7,1.3-3.6,1.8c0,0.1,0,0.1,0.1,0.2c-0.2,0.1-0.5,0.3-0.7,1c0.5,0.5,1.4,0.3,1.9,0.9
					c0,0.1-0.1,0.3-0.2,0.3c-0.5-1-1.1-0.1-1.4,0.3c-0.5-0.1-2-0.2-2.1,0.5c-0.1-0.1-0.1-0.3-0.1-0.4c-0.2,0-0.4,0-0.6-0.1
					c0-0.3,0-0.3-0.3-0.8c-0.3-0.1-0.3-0.1-1.2,0.3c-0.4,1.3-0.7,1.3-2.2,1.1l0.7-0.4C423.8,484.1,423.9,484,424.1,483.5z"/>
				<path class="st0" d="M425.2,481.8c0.2,0.1,0.2,0.2,0.2,0.2c0,0.1,0,0.2,0,0.3c0,0.2,0.3,0.3,0.4,0.2c0.1,0,0.3-0.1,1-0.7
					c0.3-0.2,0.3-0.3,0.3-0.7c0,0,0-0.5-0.3-0.6c-0.2-0.1-0.5,0-0.7,0.1l-0.1,0.1c-0.2,0.1-0.3,0.2-0.4,0.3
					c-0.2,0.1-0.4,0.2-0.6,0.3c-0.1,0.1-0.2,0.1-0.2,0.1C424.7,481.5,424.8,481.5,425.2,481.8z"/>
				<path class="st0" d="M472.4,473.8C472.4,473.8,472.4,473.9,472.4,473.8c-0.1,0.1,0,0.1,0,0.2c-0.1,0-0.8-0.3-0.8-0.4
					s-0.2-0.1-0.3-0.2c-0.1,0-0.2,0-0.4,0c-0.2,0-0.3-0.1-0.5-0.1l0,0c0,0,0.3,0.3,0.4,0.4c0.1,0,0.2,0.1,0.3,0.1
					c0.2,0.1,0.2,0.1,0.2,0.1c-0.1,0-0.3-0.1-0.3-0.1c-0.1,0-0.2-0.1-0.4,0c-0.2,0.1-0.2,0.4,0,0.6c0.1,0,0.2,0,0.3-0.1
					c0.1-0.1,0.2,0,0.3,0c0.3,0.1,0.3,0.1,0.5,0c0.1,0,0.2-0.1,0.2-0.2c-0.1-0.1-0.2-0.1-0.3-0.1c-0.2-0.1-0.1-0.1,0-0.1
					s0.2,0,0.2,0.1c0.3,0.2,0.7,0.1,0.7,0.1c0.1,0,0.2-0.1,0.1-0.2C472.8,473.9,472.5,473.8,472.4,473.8z"/>
				<path class="st0" d="M729.2,154.6C654,79.4,553.9,37.9,447.5,37.9S241,79.3,165.8,154.6C90.5,229.9,49.1,329.9,49.1,436.3
					c0,52.4,10.1,103.3,29.3,150.4h369.1h369.1c19.2-47.1,29.3-98,29.3-150.4C845.9,329.9,804.5,229.9,729.2,154.6z M597.2,134.3
					c0.5,0.2,0.8,0.3,1.3,0.6c1.4,0.7,2.6,0.7,3.7,0.1c0.6-0.3,1.3-1.4,2.1-3.2c3.9-8.1,5.8-12.1,9.6-20.2c0.9-2,1.3-3.3,1-4
					c-0.4-1-1.3-1.8-2.6-2.5c-0.6-0.3-0.8-0.4-1.4-0.6c0.2-0.3,0.2-0.5,0.4-0.9c6.7,3.1,10,4.7,16.5,8c-0.2,0.3-0.3,0.5-0.4,0.8
					c-1.9-1-3.3-1.5-4.3-1.6c-0.9-0.1-1.7,0.1-2.2,0.4s-1.2,1.5-2.2,3.3c-3.9,7.8-5.8,11.7-9.7,19.6c-0.6,1.3-0.9,2.2-0.9,2.8
					c0,0.4,0.2,0.8,0.6,1.2c0.3,0.4,1.6,1.1,3.7,2.2c1,0.5,1.5,0.7,2.4,1.3c2.5,1.3,4.4,2.1,5.6,2.3c1.2,0.2,2.5,0.1,3.8-0.3
					c1.3-0.4,2.9-1.3,4.9-2.7c0.3,0.2,0.4,0.4,0.7,0.6c-3,2.6-4.5,4-7.4,6.6c-10.1-5.6-15.2-8.2-25.6-13
					C597,134.8,597.1,134.7,597.2,134.3z M589.6,93.6c0.4,0.1,0.6,0.2,1,0.4c1,12.8,1.3,19.2,1.6,31.9c0,2.5,0.3,4.3,0.8,5.3
					s1.4,1.8,2.8,2.5c-0.2,0.3-0.2,0.5-0.4,0.9c-5.3-2.4-8-3.5-13.3-5.7c0.1-0.4,0.2-0.5,0.4-0.9c1.4,0.5,2.4,0.7,3,0.5
					s1.1-0.5,1.3-1c0.3-0.7,0.4-1.9,0.3-3.7c-0.1-2.2-0.1-3.3-0.2-5.5c-5.4-2.2-8.2-3.3-13.7-5.2c-1.7,1.7-2.6,2.6-4.2,4.3
					c-1,1.1-1.7,1.9-1.9,2.5c-0.2,0.5-0.1,1,0.3,1.6c0.4,0.6,1.4,1.2,3,1.9c-0.1,0.4-0.2,0.5-0.3,0.9c-4.3-1.6-6.5-2.3-10.9-3.7
					c0.1-0.4,0.2-0.5,0.3-0.9c1.5,0.2,2.6,0.2,3.1,0c1.1-0.5,2.6-1.7,4.5-3.7C575.6,106.6,580.2,102.2,589.6,93.6z M526.5,109.1
					c0.5-0.4,1-1.6,1.4-3.5c2.1-9.4,3.2-14.1,5.3-23.6c-0.9-1.4-1.5-2.3-2-2.8s-1.3-1-2.3-1.6c-0.5-0.3-1.3-0.5-2.5-0.7
					c0.1-0.4,0.1-0.6,0.2-0.9c4.2,0.9,6.3,1.3,10.5,2.3c5.9,10.1,11.3,20.6,16.1,31.2c2.3-7.7,3.5-11.5,5.8-19.2
					c0.6-2,0.7-3.4,0.4-4.1c-0.5-0.9-1.5-1.6-3-2c-0.5-0.2-0.8-0.2-1.3-0.4c0.1-0.4,0.2-0.5,0.3-0.9c5.3,1.5,8,2.3,13.3,4
					c-0.1,0.4-0.2,0.5-0.3,0.9c-0.5-0.2-0.8-0.3-1.3-0.4c-1.6-0.5-2.9-0.4-3.8,0.2c-0.6,0.4-1.1,1.5-1.7,3.4
					c-3.4,11.2-5.2,16.8-8.6,28c-0.4-0.1-0.6-0.2-0.9-0.3c-4.9-11.4-10.6-22.7-16.8-33.4c-1.9,8.3-2.9,12.5-4.8,20.8
					c-0.5,2.1-0.6,3.4-0.2,4.1c0.5,0.9,1.4,1.4,2.8,1.8c0.5,0.1,0.8,0.2,1.3,0.3c-0.1,0.4-0.1,0.6-0.2,0.9
					c-4.9-1.2-7.4-1.8-12.3-2.8c0.1-0.4,0.1-0.6,0.2-0.9c0.5,0.1,0.7,0.2,1.2,0.3C524.5,110,525.7,109.8,526.5,109.1z M485,87
					c0.5-5.5,3-9.8,7.7-12.8c4-2.6,8.6-3.5,13.8-2.7c5.1,0.8,9.2,3.2,12.3,7.3c3,4,4,8.6,3,13.6c-1,5.2-3.7,9.1-7.8,11.9
					c-4.1,2.8-8.5,3.8-13.3,3.1c-4.9-0.7-8.8-2.9-11.8-6.7C485.8,97,484.4,92.4,485,87z M464.6,102.2c0.5,0,0.8,0,1.3,0.1
					c1.5,0.1,2.6-0.3,3.3-1.1c0.5-0.5,0.8-1.8,0.9-3.9c0.5-9,0.8-13.4,1.4-22.4c0.1-1.8,0.1-2.9-0.2-3.5c-0.2-0.4-0.5-0.8-1.1-1.2
					c-0.8-0.5-1.7-0.7-2.6-0.8c-0.6,0-0.8,0-1.4-0.1c0-0.4,0-0.6,0-0.9c6.8,0.3,10.2,0.5,16.9,1.2c0,0.4-0.1,0.6-0.1,0.9
					c-0.6-0.1-0.9-0.1-1.4-0.1c-1.6-0.1-2.8,0.2-3.6,1c-0.5,0.5-0.9,1.8-1,3.9c-0.7,9-1,13.4-1.7,22.4c-0.1,1.8-0.1,2.9,0.1,3.5
					c0.1,0.4,0.5,0.8,1,1.2c0.7,0.5,1.5,0.7,2.4,0.8c0.5,0,0.8,0.1,1.3,0.1c0,0.4-0.1,0.6-0.1,0.9c-6.2-0.6-9.2-0.8-15.4-1.1
					C464.6,102.7,464.6,102.5,464.6,102.2z M438.6,70c2.1-1.9,4.9-2.8,8.3-2.8c2.1,0,4.3,0.5,6.7,1.4c1.1,0.4,1.8,0.7,2.3,0.7
					s0.9-0.1,1.2-0.4c0.3-0.3,0.6-0.8,0.8-1.6c0.4,0,0.6,0,1.1,0c-0.1,4.8-0.2,7.2-0.3,12c-0.4,0-0.6,0-1,0
					c-0.3-2.3-0.9-4.2-1.7-5.5s-2.1-2.5-3.8-3.3c-1.7-0.8-3.4-1.2-5.2-1.2c-2,0-3.7,0.6-5,1.7s-1.9,2.4-1.9,3.7c0,1.1,0.5,2,1.3,2.9
					c1.2,1.3,4,2.9,8.4,5.1c3.5,1.8,5.9,3.2,7.2,4.1c1.3,1,2.2,2.1,2.9,3.4c0.6,1.3,0.9,2.6,0.9,4c-0.1,2.6-1.3,4.9-3.4,6.7
					c-2.2,1.8-4.9,2.7-8.2,2.7c-1,0-2-0.1-2.9-0.2c-0.5-0.1-1.7-0.4-3.4-0.9c-1.7-0.5-2.8-0.8-3.3-0.7c-0.4,0-0.8,0.1-1,0.4
					c-0.3,0.3-0.4,0.8-0.5,1.6c-0.4,0-0.6,0-1,0c-0.1-4.8-0.2-7.1-0.4-11.9c0.4,0,0.6,0,1,0c0.5,2.5,1.2,4.3,2,5.5s2,2.2,3.7,3
					c1.6,0.8,3.4,1.2,5.3,1.2c2.2,0,4-0.5,5.3-1.6s2-2.4,2-4c0-0.9-0.2-1.7-0.7-2.6s-1.2-1.7-2.3-2.5c-0.7-0.5-2.6-1.6-5.9-3.3
					c-3.2-1.7-5.5-2.9-6.9-3.9s-2.5-2-3.2-3.2c-0.8-1.2-1.2-2.5-1.2-3.9C435.4,74,436.4,71.8,438.6,70z M426.7,68.5
					c0.3,3,0.5,4.5,0.8,7.6c-0.4,0-0.7,0-1.1,0.1c-0.5-1.8-1-3-1.6-3.7c-0.5-0.7-1.3-1.2-2.3-1.4c-0.8-0.2-2.2-0.2-4.1-0.1
					c-4.3,0.3-6.5,0.5-10.8,1c0.6,5.5,0.8,8.2,1.4,13.7c3.3-0.3,5-0.5,8.3-0.8c2.2-0.2,3.6-0.6,4.3-1.2c0.9-0.9,1.4-2.3,1.4-4.3
					c0.4,0,0.6,0,1-0.1c0.3,4.8,0.5,7.2,0.8,12.1c-0.4,0-0.6,0-1,0.1c-0.4-1.7-0.7-2.7-1-3.2c-0.4-0.6-0.9-1-1.7-1.3
					c-0.8-0.3-2-0.4-3.5-0.2c-3.3,0.3-5,0.4-8.3,0.8c0.5,4.6,0.7,6.8,1.2,11.4c0.2,1.5,0.3,2.5,0.5,2.8s0.5,0.6,0.8,0.7
					c0.4,0.2,1.1,0.2,2.1,0.1c2.5-0.2,3.7-0.3,6.1-0.5c2-0.2,3.5-0.4,4.4-0.7c0.9-0.3,1.8-0.9,2.6-1.8c1-1.1,2.1-2.8,3.2-5
					c0.4,0,0.7,0,1.1-0.1c-1.1,3.5-1.7,5.3-2.7,8.9c-11.1,0.6-16.6,1.1-27.7,2.6c0-0.4-0.1-0.6-0.1-0.9c0.5-0.1,0.8-0.1,1.3-0.2
					c0.8-0.1,1.6-0.4,2.3-0.9c0.5-0.3,0.9-0.8,1-1.4s0.1-1.7-0.1-3.4c-1.1-9-1.6-13.5-2.6-22.4c-0.3-2.2-0.7-3.5-1.2-4
					c-0.8-0.6-2-0.8-3.6-0.6c-0.6,0.1-0.8,0.1-1.4,0.2c0-0.4-0.1-0.6-0.1-0.9C408.5,69.8,414.6,69.2,426.7,68.5z M392.3,71.9
					c0.6,3,0.9,4.5,1.5,7.5c-0.4,0.1-0.6,0.1-1,0.1c-0.7-1.5-1.5-2.6-2.2-3.3s-1.7-1.1-2.7-1.3c-1-0.2-2.5-0.1-4.6,0.2
					c-3.4,0.6-5.1,0.9-8.6,1.5c1,5.4,1.5,8.1,2.6,13.4c2.7-0.5,4.1-0.8,6.8-1.2c1.6-0.3,2.7-0.8,3.3-1.5c0.6-0.8,0.9-2.1,0.9-4
					c0.4-0.1,0.6-0.1,1-0.2c0.7,4.6,1.1,7,1.8,11.6c-0.4,0.1-0.6,0.1-1,0.2c-0.2-1.3-0.6-2.3-1-2.8c-0.5-0.6-1-1-1.7-1.2
					s-1.7-0.2-2.9,0c-2.7,0.5-4.1,0.7-6.8,1.2c0.8,4.3,1.2,6.4,2,10.7c0.3,1.7,0.7,2.8,1,3.4c0.3,0.4,0.7,0.7,1.3,0.9
					c0.8,0.3,1.7,0.3,2.5,0.2c0.5-0.1,0.8-0.1,1.3-0.2c0.1,0.4,0.1,0.6,0.2,0.9c-6.1,1.1-9.2,1.7-15.2,3c-0.1-0.4-0.1-0.6-0.2-0.9
					c0.5-0.1,0.8-0.2,1.3-0.3c1.5-0.3,2.4-0.9,2.9-1.9c0.3-0.6,0.3-2-0.2-4c-1.8-8.8-2.7-13.2-4.5-22c-0.4-1.7-0.7-2.8-1.1-3.3
					c-0.3-0.4-0.7-0.7-1.4-0.8c-0.9-0.2-1.8-0.2-2.8,0c-0.5,0.1-0.8,0.2-1.4,0.3c-0.1-0.4-0.1-0.6-0.2-0.9
					C374.8,74.6,380.7,73.6,392.3,71.9z M329.8,90.1c2.6-4,6.5-6.8,11.5-8.2c5-1.4,9.8-0.9,14.3,1.6c4.5,2.4,7.2,6.2,8.3,11.2
					c1.2,5.1,0.4,9.8-2.2,14s-6.2,7-11,8.3c-4.8,1.4-9.3,1-13.6-1.2c-4.3-2.2-7.4-5.8-9.1-10.9C326.2,99.7,326.8,94.7,329.8,90.1z
					 M297.3,98c4-1.6,7-2.5,9.1-2.8s4,0.1,5.8,1s3.1,2.2,3.7,4.1c0.7,2,0.6,4-0.3,6s-2.7,3.9-5.5,5.7c4.4,2.5,6.6,3.8,10.9,6.5
					c2.4,1.5,4.4,2.5,5.8,2.7s3.1,0.2,5.1-0.3c0.1,0.4,0.2,0.5,0.3,0.9c-3.7,1.3-5.5,1.9-9.2,3.3c-6.9-4.4-10.5-6.5-17.7-10.5
					c-0.9,0.4-1.6,0.7-2.1,1c-0.2,0.1-0.5,0.2-0.7,0.3c-0.3,0.1-0.5,0.2-0.8,0.3c1.6,3.7,2.4,5.6,4,9.3c0.9,2,1.6,3.2,2.3,3.5
					c0.9,0.4,2,0.4,3.3-0.2c0.5-0.2,0.8-0.3,1.3-0.5c0.1,0.4,0.2,0.5,0.4,0.9c-5.8,2.4-8.7,3.6-14.5,6.3c-0.2-0.3-0.2-0.5-0.4-0.9
					c0.5-0.2,0.8-0.3,1.3-0.6c1.4-0.6,2.2-1.5,2.5-2.7c0.1-0.6-0.2-1.9-1-3.7c-3.6-8.2-5.4-12.3-9.1-20.5c-0.9-2-1.7-3.1-2.4-3.4
					c-1-0.4-2.2-0.2-3.6,0.4c-0.6,0.3-0.8,0.4-1.4,0.6c-0.2-0.3-0.2-0.5-0.4-0.9C289.2,101.4,291.9,100.3,297.3,98z M266.5,112.4
					c3.2-1.7,5.9-2.7,8.1-3s4.2-0.1,6.1,0.6c1.9,0.8,3.3,2.1,4.2,4c1.2,2.6,1.2,5.1,0.1,7.6s-3.4,4.6-6.7,6.3
					c-0.8,0.4-1.8,0.8-2.8,1.2c-1,0.4-2.1,0.8-3.3,1.1c1.9,3.6,2.9,5.4,4.8,8.9c1,1.9,1.9,3,2.6,3.2c1,0.3,2.1,0.2,3.3-0.5
					c0.5-0.3,0.8-0.4,1.3-0.7c0.2,0.3,0.3,0.5,0.4,0.8c-5.7,2.9-8.5,4.4-14,7.6c-0.2-0.3-0.3-0.5-0.5-0.8c0.5-0.3,0.7-0.4,1.2-0.7
					c1.4-0.8,2.1-1.7,2.3-2.9c0.1-0.6-0.4-1.8-1.3-3.6c-4.3-7.9-6.5-11.8-10.8-19.7c-1.1-1.9-1.9-3-2.7-3.2c-1-0.3-2.2,0-3.6,0.7
					c-0.5,0.3-0.8,0.5-1.3,0.8c-0.2-0.3-0.3-0.5-0.5-0.8C258.6,116.6,261.3,115.1,266.5,112.4z M679.7,577.5H568.9
					c0.1-4.4-0.1-10-1-17v-0.1c-0.2-1.5-0.2-1.5-1-6.1l-0.6-2.7l0,0c-0.5-1.9-1.3-3.7-1.9-5.5c0.7,3.3,0.7,3.3,1.4,9.2
					c-0.2-0.3-0.2-0.3-1.3-3.7c-0.1,0.7,0.1,1.6,0.3,2.3l-0.3-0.5c-4.1-9.1-4.1-9.1-3.9-9.6c1,1.1,3.7,4.5,3.7,4.5
					c-0.1-2.1-0.2-2.7-0.5-3.6c0.3,0.5,0.6,1.1,0.8,1.6c0.3-1.8-3-10.8-3.7-12.6c-4.8-11.1-5.2-12-9.5-19.2
					c-6.2-9.4-7-10.7-12.9-17.4c-7.2-7.6-8.6-9-16.3-15.4c-6.1-4.5-11.4-8.4-20.7-13.1c-7.2-3.3-8.7-4-16.6-6.8
					c-7.1-2.2-7.1-2.2-11-3c-6.2-1.3-6.2-1.3-9.4-1.8c-5.7-0.7-5.7-0.7-8.5-0.9c-0.4,0-0.8,0-1.2-0.1c0.4,0,0.6,0.1,1.1,0.1h-0.5
					h-0.5h0.4c5.1,0.4,9.9,2.7,15,3.3c0,0,0,0,0.1,0.1c0.2,0.1,0.3,0.2,0.6,0.3c0,0,0.2,0.1,0.1,0.1c0,0-0.1,0.1,0,0.1h0.1
					c0.2,0.1,0.5,0,0.6,0c0,0,0-0.1-0.2-0.1h-0.1l0,0c0.3-0.1,0.6,0.2,0.9,0.1l0,0c0,0-0.7-0.3-1.2-0.4c0.3,0,0.7,0.1,1,0.1l0.4,0.1
					l0.6-0.2l0.2,0.1c0,0,3.6,1.2,4.3,1.2c-0.8,1.4,0.4,1.8,0.7,1.9c1.4-0.1,1.9,1.2,2.8,1.7c-0.2,0.1-0.6,0.1-0.8,0.2
					c0.3,0.2,0.3,0.2,2.7,1c-1.8-0.2-3.6-1.1-5.5-0.8c0.1,0.4,0.4,0.9,0.8,1.1c-0.4,0-1,0.1-1.3,0.4c0,0.1,0.1,0.2,0.1,0.2
					c3.5,1.4,8.8,3.6,9.5,5.1l0.6,0.1c1.6,0.2,1.6,0.2,2.2,0c-0.2,0.2-0.4,0.4-0.6,0.6c0.3,0.5,0.7,1.2,2.4,1
					c-1.3,0.4-2.5-0.3-3.8-0.3c1.5,0.6,7.7,2.1,7.7,2.1c0.2-0.1,0.4-0.3,0.6-0.4c1.6,1.2,3.7,1.5,5.4,2.6c-4.8-0.4-9-3-13.7-3.7
					c0.3,0.4,0.3,0.4,9.7,3.5c-0.2,0.1-0.6,0.1-0.8,0.2c0.3,0.3,0.3,0.3,1.5,0.8c-0.3,0-1.3,0-5.4,0.3c0.7,0.6,1.5,0.7,2.4,0.9
					c0.5,0.2,0.5,0.3,1.3,1.9c-0.1,0.1-0.3,0.1-0.5,0.2c-0.1-0.1-0.3-0.2-0.5-0.3c0,0.1-0.1,0.3-0.1,0.5c0.8,1.1,0.8,1.1,2.8,3.6
					c-0.1,0.1-0.2,0.2-0.3,0.3c-1.4-0.3-1.4-0.3-1.7-1.2l-0.8-0.2c-0.8-0.2-1-0.1-1.5,0.3c1.6,1,3.5,1.2,4.9,2.5
					c-1,0.1-1,0.1-1.3-0.1c0.5,0.8,1,1.7,1.6,2.5l0.7,0.2c0.3,0.1,0.6,0.3,0.9,0.4c-0.4,0.4-0.4,0.4-1.5,0.4
					c-0.1,0.1-0.2,0.3-0.3,0.4c0.7,0.6,1.6,0.5,2.3,0.8c0,0.1,0,0.3,0,0.5c-1.6,0.1-1.6,0.1-6.4-2.2c1-0.5,2.8,0.2,3-1.4
					c0,0-0.3-1.4-2.5-2.1c-2.4-0.8-4.8,0.1-7.1-0.2c-0.3,0.3-0.7,0.5-1.1,0.6l-0.1-0.4c0-0.1,0-0.1-2.7-0.6c0,0.3,0.2,0.6,0.3,0.9
					c-0.7-0.3-1-0.5-1.5-0.4c0,0.3,0.1,0.7,0.2,0.9c-0.2,0-0.4,0.1-0.5,0.2c0,0.1-0.1,0.3-0.2,0.4c0.1,0.1,0.2,0.3,0.3,0.4
					c-0.1,0.1-0.2,0.3-0.2,0.4c0.1,0.1,0.1,0.3,0.2,0.4c-0.3-0.1-0.7-0.1-0.9,0c0.1,0.3,0.3,0.6,0.5,0.8c-0.1,0.1-0.2,0.3-0.3,0.5
					c0.1,0.3,0.4,0.7,0.7,0.9c-0.1,0.1-0.2,0.2-0.4,0.3c-0.1-0.1-0.2-0.3-0.3-0.4c-0.3,0.5-0.5,0.7,0.1,1.4
					c-0.3,0.7-0.3,0.8,0.1,1.3c0.5-0.9,0.5-0.9,0.8-1.1c0.8,2.9,2.3,5.5,2.8,8.5c-0.3,0.1-1,0.4-0.6,1.5c-0.2,0.4-0.4,0.7-0.4,1.7
					c-0.8,1.2,1.4,4.2,2.2,4.4c2.2,4.7,4.7,3.6,5,3c0.3-0.9,0.7-2.1,0.3-3c2.3,1.5,5.1,3.7,6.1,5.5c-0.5,0.5-0.7,1.2-1.2,1.7
					c-0.1,0-0.3-0.1-0.4-0.2c0-0.1-0.1-0.3-0.2-0.5c0.1,0.1,0.3,0.2,0.4,0.3c-0.2-0.8-0.2-0.8-2.5-3.7c-0.3,0.6-0.4,1.3-0.9,1.7
					c0,0.6,0.1,2.5,2.8,5.3c0.1-0.1,0.1-0.3,0.2-0.4c0.2,0.2,0.3,0.6,0.3,0.9c0.3,0.2,0.6,0.6,0.7,0.9c-0.7,1.3-2.6,0.8-3.1,2.2
					c-1.1,2.8,0.4,6.1-1.3,8.9c-1.1,1.8-1.1,1.8-3.4,1.5c0,0.2,0,0.2,0.8,2.2c-0.3,0.4-0.5,0.6-1.4,0.5c-1.2-0.1-4,0.9-1.4,2.8
					c1.4-0.4,1.7,0.3,1.8,0.7c0.1-0.1,0.2-0.3,0.2-0.4c0.6,0.1,0.7,0.1,1.3,0.5c0.1,0.6,0.9,1.5,1.6,1.6c0.1,0.1,0.2,0.3,0.2,0.5
					c2,2.1,4.5,9.5-6.7,7.9c-2.4-0.3-3,2.1-3,2.1c-0.3,2.5,1.6,4.4,1.6,6.8c0,1.5-1.3,2.9-0.3,4.4c1.3,2.2,1.3,2.2,1.4,4
					c1.3,0.2,2.3-1,3.6-0.7c1.3,0.3,1.2,2.6,2.9,2.3c1.2-0.2,1.2-1.5,2-2c1.1-0.6,2.4-0.6,3.5-1.2l2.7-6.2c-1.1-0.9-1.4-1.2-1-2.9
					c0.5-1.8,0.8-2.5,1-3c0.6-1.5,3.4-2.4,2.2-4.3c-1.6-2.6,0.1-3,1.2-3.1c2.8-0.1,2.8-0.1,4.3-4c2.2-0.4,3.9,1.2,3.5,2.7
					c0.1,0.1,0.2,0.3,0.2,0.4c0.1-0.2,0.5-0.4,0.7-0.5c2.7,2.1,7.6,3.2,7.6,3.2c1.1,1.3,3.6,1.5,3.4,4c-0.2,2.4-2.7,2-4,3.1
					c0,0.2,0,0.4,0,0.6c0.5,0.4,1.1,0.9,4.4,1.5c0.1-0.1,0.3-0.2,0.4-0.3c0.1-1.1-0.6-2-0.7-3.1c2-1.4,0.9-4.7,0.5-4.9
					c-0.6-0.4-1.6-0.9-0.7-2c0.2-0.3,0.2-0.3,1.8,0.6c0.2-0.5,0.2-0.5-5.1-3.7c-3.3,1.2-8.9-5.3-8.1-6.5c0.2-0.3,0.5-0.5,0.7-0.7
					c0,0.1,0.3,1.6,1.6,1.8c0-0.1,0-0.3,0-0.5c0.2,0.3,0.5,0.6,0.6,0.9c0-0.3,0.1-0.7,0-1.1c0.8,1,3.1,3.7,5.2,2.8l-0.3,0.4
					c3.9,0.9,3.9,0.9,4.7,1.2l0.7,1.7c0.6,1.4,0.6,1.4,2.5,3.4c2.3,0,1.8,2.7,3.2,3.5c0-0.1,0-0.3,0-0.5c1,0.3,1.2,1.6,2.3,1.9
					c0.1-0.1,0.2-0.2,0.3-0.3c0.1,0.1,0.2,0.3,0.4,0.4c0.1-0.1,0.2-0.3,0.3-0.4c0.2,0.1,0.2,0.1,1,1c0-0.7,0-1.1-1.6-2.9
					c0.3,0,0.7-0.1,0.9-0.2c-0.1-0.3-0.3-0.7-0.4-0.9c0.1-0.1,0.3-0.2,0.4-0.3c0-0.3-0.1-0.7-0.2-0.9c0.3,0.1,0.7,0.1,1,0.1
					c0.2,0.2,0.4,0.5,0.6,0.8c0.1-0.1,0.2-0.3,0.3-0.5c-1.4-2.4-4.7-2.3-6.1-4.6c0.5,0,0.5,0,1.4,0.4c0.2-0.2,0.2-0.6,0.2-0.9
					c0.1,0,0.3,0,0.5,0c-0.9-1.5-0.9-1.5-0.8-1.8c0.1,0.1,0.3,0.1,0.4,0.2c0-0.3,0.2-0.7,0.4-0.9c0.6,0,1.3,0.1,1.9,0.1
					c-0.2,0.4-0.4,0.7-0.7,1.2c1.4,0.6,3.1,2.8,3.1,2.8c-0.1,0.2-0.2,0.5-0.3,0.6c1.1,1.3,3.3,2.6,3.3,2.6c0,0.2,0,0.5,0,0.7
					c0.2,0,0.5,0,0.7,0.1c0.1-0.2,0.2-0.5,0.2-0.7c0.7-0.2,1.4,0.1,2.1,0c0.1-0.2,0.3-0.4,0.5-0.6c-0.1-0.5-0.3-1.1-0.5-1.5
					c1-0.4,1.9,0.8,2.9,0c1.1-0.9,0.5-2.4,1.4-3.4c2.5,3.8,2.5,3.8,4.5,11.2c0.4,1.7-1.2,3.1-0.6,4.7c0,0,0,0.1,0.1,0.1
					c-0.5-0.8-0.8-1.4-0.8-1.4c-1.3,0.2-1.4,0.5-2.3,3.4c-1.6,0.7-3.5,0.5-4.9,1.5c-0.1-0.2-0.3-0.4-0.5-0.6
					c-1.7,0.4-1.7,0.4-4.4-0.4c-3.4,2.3,0.2,6.2-1.8,8.8c-1.7-0.2-3.5,0.1-5.2-0.2l-9.5-2.7c-0.4,0.1-0.9,0.2-1.3,0.2
					c-0.9-1.4-1.4-8.5-1.4-8.6c-0.1,0.1-0.3,0.3-0.5,0.5c-0.7-0.1-1.3-0.5-2-0.4c-1.3,1.6-1.8,2.3-4.7,2.3c-0.1,0.4-0.1,0.4-1.3,1.6
					c-1.9-0.6-7.8,2.9-8.2,4.5c-1.5,0.4-1.6,2.5-3.2,2.8c0,0-4.4,0.9-6.3-0.8c-0.7,0.5-0.8,0.6-5.5,9.8H349.9
					c1.4-3.7,0.2-8.3,2.7-11.7c0.3-0.4,0.3-0.4,11-4.9c0-0.2,0.1-0.6,0.1-0.8c0.4-0.2,1.1-0.4,1.5-0.4c-0.2,0.2-0.4,0.4-0.5,0.6
					c1.9-1.1,2.2-3,2.6-4.8c1.7-0.7,3.6-3.7,3.6-3.7c0,0.2,0,0.5,0,0.8c9.8-3.3,9.8-3.3,11.2-3.5c0.1-0.2,0.3-0.5,0.4-0.8
					c-0.2,0.1-0.5,0.2-0.7,0.3c-0.5-4.6,9.1-4.8,9.2-4.8c0.1-0.2,0.3-0.4,0.5-0.6c0.9-0.1,1.8-0.1,2.7-0.3c-0.1,0.2-0.2,0.5-0.3,0.8
					c-1.8,0.6-4,1.4-2.5,3.4c3.8-1.9,8.7-0.8,12.1-4.1c-0.1-0.2-0.3-0.4-0.5-0.6c0.3-0.4,0.6-0.9,0.8-1.3c-2.2-0.3-4,3-6.2,1
					c0.2,0,0.5-0.1,0.8-0.2c0.2,0.2,0.4,0.4,0.5,0.6c0.4-0.1,1-0.3,1.4-0.6c-0.4-0.4-1-0.9-1.6-1.2c0-0.2,0-0.6,0.1-0.8
					c-0.2,0-0.5,0-0.8,0.1c-0.1,0.3-0.2,0.6-0.3,0.9c-0.2-0.2-0.4-0.4-0.5-0.6c0.5-1.4,0.5-1.4,2.7-3h-0.6c1.8-1.3,1.8-1.3,1.9-2.2
					c-0.5-0.6-1.7-1.9-8.1,0.4c1.7-1.6,6.7-3.2,6.8-3.2c3-0.5,5.7,1.5,8.6,1.4c2-0.1,3.5-1.8,5.5-1.9c0.2,0,0.4,0.1,0.6,0.1
					l-1.2,1.1c-4.9,4.2-4.9,4.2-5.5,4.4c0,0.2,0,0.5,0,0.8c-0.6,0.3-1.3,0.8-1.8,1.2c0,0,0,0,7.2,2.2c-0.1,0.2-0.4,0.5-0.5,0.7
					c0,0.1,0.1,0.3,0.1,0.5c0.1,0.2,0.3,0.5,0.4,0.7c1.5-0.6,1.5-0.6,2.5-2.2c-0.2,0-0.4,0-0.6,0.1c0-0.2,0.1-0.5,0.1-0.7
					c0.2-0.1,0.5-0.3,0.7-0.4c-0.5,0-1.1,0.3-1.4,0.6c0.2-0.4,0.4-1,0.5-1.4c0.2,0,0.5,0,0.8,0.1c0.1-0.2,0.3-0.4,0.5-0.6
					c-0.2-0.1-0.5-0.2-0.7-0.3c0.8-1.4,0.8-1.4,0.6-2.2c-0.1,0-0.1,0-2.3,0c0.1-0.2,0.2-0.5,0.3-0.7c-0.2-0.3-0.5-0.7-0.8-1l0.9-0.7
					c0.4-0.3,1-0.6,1.4-0.7c0.1-0.4,0.4-1,0.7-1.3c-0.4-0.2-1.1-0.2-1.5,0c1.8-1.5,4.2-3.6,2.4-5.6c0.1-0.5,0.3-1.2,0.5-1.7
					c-2.3-1.8-3.3-2.6,0.8-12.7c-2.1,1-3.8,2.7-6,3.5c-1.1-1-1.1-1,1.5-4.9l0.2-0.1c-0.3-0.3-0.8-0.7-1.2-1c0.2-0.2,0.4-0.4,0.5-0.6
					c-0.1-0.8-0.3-1.7-0.4-2.5c-0.2,0.2-0.4,0.4-0.5,0.6c-1.1,0-1.9-0.8-2.9-1.1c-1.4,0.9-2.5,2.4-4.1,3c0.1,0.2,0.2,0.5,0.3,0.7
					c-0.1,0.1-0.1,0.1-4.2,2.7c0.4,5-5.7,6.3-8.6,6.2l-0.6,1.1c-1.8,3.1-1.8,3.1-6.1,5.3c-0.1-0.4-0.5-2.6,1.1-3.3
					c0.2,0.1,0.4,0.3,0.6,0.4c0.1-0.2,0.3-0.5,0.5-0.7c-0.2-0.2-0.4-0.4-0.5-0.6c0.7-1.6,2.6-2.1,3.1-3.9c-2.3-1.6-1.6-4.4-2.7-6.5
					c-0.3,0-0.6,0-0.9-0.1c0.2-0.6,0.2-0.6,2.3-2.7c-0.1-0.2-0.2-0.5-0.3-0.7c2.4-3.4,6.6-3,9.8-4.8c0.2,0.2,0.4,0.4,0.6,0.5
					c2.9-2.2,6.6-2.2,9.8-3.6c-1.5,1.3-3.4,1.9-5,3.1c0.2,0.1,0.5,0.2,0.7,0.3c-0.1,0.2-0.3,0.4-0.4,0.6c0.8,0.2,1.4,0.3,3.1-0.6
					c0.4,2.1,1.8,1,2.3,0.7c-0.2-1,0.1-2.1-0.1-3.1c0.3-0.4,0.7-0.9,1.1-1.2c-0.1,0.2-0.2,0.5-0.3,0.8c0.5-0.1,1.2-0.5,1.5-0.9
					c3.2,1,7-4.2,7-4.3c0.4,0.2,1,0.5,1.4,0.6c-0.6,0.6-1.3,1-1.7,1.6c0.3-0.2,0.7-0.4,1-0.7c0.5-0.3,1.2-0.7,1.7-1
					c-0.2,0-0.5-0.1-0.7-0.1c0.4-0.2,1-0.6,1.3-0.9c-0.1,0.9-0.1,0.9,0.1,2h-0.3c-0.2,0-0.5,0.1-0.7,0.1c0,0.1,0.1,0.2,0.1,0.2
					c-0.1,0.1-0.1,0.2-0.1,0.2l0.1-0.1c0.1,0.1,0.1,0.2,0.2,0.3c-1,0.7-2.5,0.7-3.2,2c1.3,0.3,1.5,0.1,2.8-1.1c0,0.1,0,0.3,0,0.4
					l0,0c0,0,0,0,0,0.1s0,0.2,0,0.3c0.2-0.1,0.5-0.1,0.7-0.2c-0.1-0.2-0.1-0.5-0.2-0.8c0.2,0.1,0.5,0.2,0.7,0.3
					c-1.8,4.2-7.2,1.9-9.6,5.1c0.1,0.2,0.3,0.4,0.5,0.6c1.7,0,1.7,0,2.4,0.2c0.1,0.2,0.3,0.5,0.4,0.7c-0.2,0.6-0.2,0.6-0.5,2.5
					c0.9,1.3,2.4,2.1,3.2,3.5c0.1-0.1,0.3-0.1,0.4-0.2l0,0c0.1-0.1,0.3-0.1,0.4-0.2c-0.2-0.1-0.4-0.3-0.6-0.5
					c0.2-0.7,0.4-1.5-0.1-3.1c0.8,0.3,1.5,0.5,1.5,2.3c1.4-0.8,2.8-3.9,2.9-4.3c-0.2-0.2-0.4-0.5-0.5-0.7c0.2-0.8,0.8-1.4,0.9-2.2
					c0.2,0,0.5,0.1,0.7,0.2c0.1,0.8-0.1,1.6,0.3,2.4c0.2,0,0.6,0,0.8,0c0.2-0.2,0.4-0.5,0.5-0.7c0.7,0,0.7,0,2.7-1.5l0.4-0.4
					l-0.2-0.5c-0.3-0.3-0.9-1.1-1.9-3.4c0.3-0.3,0.9-0.6,1.3-0.7c0.1-0.5,0.2-0.9,0.3-1.2l0.1-0.1c0,0,0.1-0.2,0-0.3
					c0.1-0.5,0.1-0.6,0-0.9c-0.2-0.1-0.5-0.3-0.7-0.4c0-0.4-0.2-1-0.4-1.4c-0.2,0.1-0.5,0.2-0.7,0.3c0.7-1.2,0.6-1.3,0.1-2.1
					c0.2-0.2,0.5-0.4,0.7-0.5c-0.1-0.2-0.1-0.6-0.2-0.8c-0.4-0.2-1-0.3-1.5-0.2c-0.6-0.5-0.6-0.5-2.2-0.2c0.2-0.1,0.4-0.2,0.5-0.3
					l-0.1-0.3c-1.7-0.3-3.8,0.4-6.2,2.2c0,0.2,0,0.5,0,0.8c0.1,0.1,0.3,0.3,0.4,0.4l-0.6-0.2c-0.2,0-0.5,0-0.8,0
					c-0.2,0.4-0.4,1-0.3,1.5c0.2,0.1,0.5,0.2,0.7,0.3c-1.2,0.9-1.3,1.1-4,2.5l0.1-0.1c0,0,0,0,0-0.1s0,0-0.1,0
					c-0.2,0.1-0.6,0.3-0.6,0.5c-0.3,0.2-0.6,0.3-1,0.5c0-0.2,0.1-0.6,0.1-0.8c1.4-0.9,1.4-0.9,2.1-1.6c-0.2-0.1-0.4-0.3-0.6-0.4
					c2.4-3.2,2.4-3.2,8.1-5.8c-0.1-0.2-0.2-0.5-0.2-0.8c-0.9-0.4-2.7,0.3-4.5,1.2c0.1,0,0.1-0.1,0.2-0.1c0.1-0.1,0.3-0.2,0.4-0.3
					l0,0l0,0l0,0c0.2-0.2,0.5-0.4,0.7-0.6c0.1-0.1,0.3-0.1,0.4-0.2c0,0,0.7-0.7,0.4-0.8c0,0-1.3-0.1-1.9,0c-0.8,0.1-0.8,0.3-0.9,0.4
					c-0.2,0.5-0.9,0.8-1,0.6c0,0-0.1-0.1,0-0.2c0.3-0.3-0.1-0.3-0.3-0.2c-0.1,0-0.2,0-0.3,0.1c-0.3,0.1-0.5,0.4-0.5,0.5
					c-0.2,0.4-0.2,0.9-0.5,1.2c-0.5,0.6-0.5,0.6-0.5,0.6c0.1,0.1,1.6,0.1,2.1-0.1c-2.1,1.2-3.9,2.5-3.9,2.5
					c-0.1-0.2-0.3-0.4-0.5-0.6c-6.7,1-6.7,1-6.8,0.6c0.2-0.1,0.5-0.2,0.7-0.4c0-0.2,0.1-0.5,0.2-0.8c-0.1-0.1-0.3-0.3-0.5-0.4
					l0.5-0.2c0.5,0.9,1.5,2.5,3,0.7c0.9,0.1,1.9,0.3,2-1.9c3-2,3-2,5.2-2.8c-0.1-0.2-0.3-0.4-0.4-0.6c-0.2,0.1-0.4,0.3-0.6,0.5
					c-0.2-0.1-0.5-0.2-0.7-0.4c-1,0.4-1,0.4-2.2,1.2c0.3-0.3,0.7-0.8,1-1.2c-0.2,0-0.5,0.1-0.8,0.1c0-0.2,0-0.2,0.8-2.8
					c-0.3-0.3-0.8-0.8-1.1-1.1c-1.5,0.1-4.6,0.6-7.5,2.7c0.5,0.1,0.5,0.1,4.2-0.2c-2,0.6-2.2,0.7-3.5,1.7c0.3,0.4,0.9,0.8,1.3,1
					c-3.3,0.1-3.3,0.1-3.8,0.7c0.1,0.2,0.2,0.5,0.4,0.7c-0.2,0.1-0.5,0.3-0.7,0.4c0,0.2,0.1,0.5,0.1,0.8c0.3,0.1,0.3,0.1,2.8,0.6
					h-0.5c-1.2,0.1-1.3,0.1-2.3,0.9c0.1-0.2,0.2-0.5,0.3-0.7c-0.5-0.1-1.2-0.3-1.7-0.4c-0.1-0.2-0.2-0.5-0.4-0.7
					c-0.2,0-0.5-0.1-0.8-0.1c1.7-0.3,1.7-0.3,2.2-1c-0.5-0.9-0.6-1-0.1-2.2c-0.2-0.2-0.4-0.4-0.6-0.6c-0.2,0-0.5,0-0.8,0
					c0.2-0.2,0.4-0.4,0.5-0.5c0,0.1-0.1,0.2-0.1,0.3c0.2-0.1,0.5-0.2,0.7-0.3c-0.5-0.1-1.1,0-1.6,0c0.6-0.5,1.4-0.9,2-1.4
					c-0.5,0.1-1.2,0.2-1.7,0.2c0.2-0.1,0.5-0.3,0.6-0.5c-1.6-0.3-1.6-0.3-2.5-0.4c-0.1-0.2-0.2-0.5-0.3-0.7c-0.5,0-1.1,0.1-1.5,0.1
					c0.2-0.4,0.6-0.9,0.9-1.2c0.2-1.8,2-4.9,2-4.9c-2.2-2.7-2.2-2.7-8.7-0.7c0.2-0.2,0.4-0.4,0.5-0.6c-0.1-0.4-0.4-1-0.7-1.3
					c-1.4,0.7-2.4,2.1-3.9,2.7c-0.3-0.3-0.7-0.8-0.9-1.2c-4.3-1.3-5,6.1-9.4,4c0.2-0.5,0.5-1,0.8-1.4c-0.9,0.6-1.6,1.3-2.4,1.9
					c0.2-0.1,0.5-0.2,0.7-0.3c-0.1,0.2-0.3,0.4-0.4,0.6c0.5,0.4,0.5,0.4,3.3,0.9c-0.3,0.3-0.8,0.7-1.3,0.8c0.2,0.4,0.3,1,0.3,1.5
					c0.3,0,0.6,0.1,0.9,0.1l-0.1-0.1c0.2-0.1,0.5-0.3,0.7-0.4c-1.4,1.6-1.4,1.6-1.5,1.6c-0.1,1.4-0.1,1.4-8,7.6
					c-0.3,0.4-0.3,0.5-0.3,0.5h-0.2c-1.2,0.7-1.2,0.7-1.8,1.5c0.1,0,0.2,0,0.2,0l0,0l0,0c0.3,0,0.7,0,1-0.1l-0.6,0.5
					c-1.4,1.1-7.9,6.6-7.9,6.6c0-0.2-0.1-0.5-0.1-0.7c-0.1,0.1-14.2,11.2-19.9,21.6c-9.2,16.7-11.7,31.8-12.6,37.5
					c1.1-2.3,0.8-4.9,1.7-7.3c0.2-1,0.2-1,2.3-8.7c-0.1,0.2-0.1,0.5-0.2,0.8c2.2-6.1,2.2-6.1,2.3-6.3c-0.9,11.1-5.8,21.4-6.7,32.6
					c-0.2,2.2-0.1,4.5,0.2,6.8h-111c0-49.2,0-108,0-161.8h464.3C679.7,469.5,679.7,528.3,679.7,577.5z M679.7,381.4
					c0,10.3,0,18.4,0,29.3H215.3c0-10.9,0-19,0-29.3c0-127.5-48.3-167.5-48.3-167.5c23.5,19.8,42.1,7.5,42.1,7.5
					c-2.4,9.9-4.5,26.5,5.8,26.5s9.4-20.1,9.4-20.1h2c0,4.3,5.5,7.1,5.5,7.1h11v15.6c0,0,17.7,35.3,78.9,35.3
					c93.8,0,101.6-63.7,101.6-72.3c0-8.7-0.7-20.6-15-20.6c-20.2,0-16,18.5-16,18.5c-13.4-4.4-15.3-13-15.3-18.4s6-18.2,22.2-18.2
					s28.2,10.4,28.2,10.4c-5.8-9.6-20-13.4-20-13.4v-1.6c7.5,0,12.8-4.7,12.8-4.7c4.2,7.6,7.7,7.7,12,7.7s5.9-3.7,5.9-7.2
					s-2.6-6.6-5.9-6.6s-4.4,0.2-4.4,0.2l-1-1.9c15.4-15.4,20.6-30.7,20.6-30.7s5.2,15.2,20.6,30.7l-1,1.9c0,0-1-0.2-4.4-0.2
					s-5.9,3.1-5.9,6.6s1.6,7.2,5.9,7.2s7.7-0.1,12-7.7c0,0,5.3,4.7,12.8,4.7v1.6c0,0-14.3,3.7-20,13.4c0,0,12-10.4,28.2-10.4
					s22.2,12.8,22.2,18.2s-1.9,14-15.3,18.4c0,0,4.2-18.5-16-18.5c-14.4,0-15,11.9-15,20.6c0,8.7,7.8,72.3,101.6,72.3
					c61.3,0,78.9-35.3,78.9-35.3v-15.6h11c0,0,5.5-2.8,5.5-7.1h2c0,0-1,20.1,9.4,20.1s8.2-16.6,5.8-26.5c0,0,18.6,12.3,42.1-7.5
					C727.9,213.9,679.7,253.9,679.7,381.4z"/>
				<path class="st0" d="M458.9,501.4c-0.1,0.2-0.1,0.4-0.2,0.5c-0.1,0.2-0.3,0.2-0.4,0.4c-0.1,0.2,0,0.3,0,0.5
					c-0.1,0.2-0.3,0.3-0.4,0.5c0,0.1,0,0.1,0,0.2c0.4,0.1,0.7-0.1,1-0.1c0.6,0,1.1,0.3,0,0.7c-0.6,0.3-0.7,0.4-0.6,0.7
					c0.1,0.1,0.2,0.1,0.3,0.2c0.1-0.1,0-0.2,0-0.3c0.3-0.2,1,0.1,1.1,0.2s0.7,0.9,0.1,1c-0.4,0.1-0.3,0.5-0.2,0.5
					c0.1,0.1,0.2,0.1,0.2,0.1c0.3,0,0.6-0.1,0.9-0.1c0.6,0,1.1,0.4,1.7,0.4c0.8,0,1.2-0.2,1.3-0.2c0.3-0.2,2.1-1.7,2.5-2.2
					c0.3-0.3,0.6-1.1,0.5-1.5c-0.1-0.7-0.9-0.7-1.2-1.2c0-0.1,0-0.2-0.1-0.2c-0.1-0.1-0.2,0-0.2-0.1c-0.1-0.2,0.1-0.4,0.1-0.6l0,0
					c-0.2,0-0.4,0.2-0.7,0.2c-0.2,0-0.4-0.3-0.6-0.3c-0.4,0.1,0.1,0.7-0.3,0.8h-0.1h-0.1h-0.1h-0.1c-0.1,0-0.1,0-0.2,0s-0.1,0-0.2,0
					s-0.1,0-0.2,0s-0.1,0-0.2,0c-0.7,0.1-0.7,0.1-0.8,0.8l0,0c-0.5-0.7-0.5-0.7-0.6-0.6c-0.4,0.2,0.2,0.6,0,0.9
					c-0.1,0-0.2-0.1-0.3,0c-0.1,0.1,0,0.3-0.1,0.3l0,0c-0.1,0-0.1-0.1-0.2-0.4c-0.1-0.7-1.3-1.3-1.3-1.3
					C459,501.3,459,501.4,458.9,501.4z"/>
				<path class="st0" d="M374.3,482.5c0.1,0,0.2,0,0.8-0.4c0.1-0.1,0.2-0.2,0.3-0.2c0,0,0,0.1-0.2,0.3c-0.1,0.1-0.1,0.1-0.1,0.2l0,0
					c0,0,0.1,0,0.4-0.2c0.3-0.1,0.5-0.3,0.8-0.5l0,0l0,0l0,0l0,0l-0.4-0.1c-0.1,0-0.2,0-0.3,0c0,0,0,0-0.1,0c-0.1-0.1,0.1-0.2,0-0.2
					c0,0-0.1,0-0.2,0c-0.1,0.1-0.1,0-0.2,0c0-0.1,0.1-0.1,0.1-0.2c0-0.3-0.9,0.2-1.4,0.6c-0.1,0.1-0.1,0.1-0.1,0.1v0.2
					C373.9,482.4,374.3,482.5,374.3,482.5z"/>
				<path class="st0" d="M364.3,496.5c0-0.1-0.3,0.3-0.4,0.4l0.2-0.2C364.3,496.6,364.3,496.5,364.3,496.5z"/>
				<path class="st0" d="M480.4,473.4c0.4,0.4,0.1,1,0.5,1.3c0.2,0.2,1.3,1.2,1.3,1.2s0.1,0.1,0.4,0.2c1.5,0.6,1.8,0.9,2.4,1.4h0.4
					c0.2,0,0.3,0,0.3,0s0,0,0.1,0c0.4,0.2,0.7,0.6,1.1,0.9c0.3,0.2,0.7,0.1,1,0.5s1.5,0.9,1.7,0.7c0,0,0,0,0-0.1c0,0,0,0,0.1,0
					c0.2,0.1,0.6,0.3,0.9,0.2c0-0.1,0-0.1-0.3-0.3c0.4,0,0.7,0.4,1.1,0.3s0.9-0.6,0.9-0.8c-0.1-0.1-0.5-0.3-0.5-0.3s0,0,0,0.1
					c0,0,0,0,0,0.1c0,0-1.9-0.1-3.6-0.8c-0.4-0.2-3.8-2.2-4-2.4c-0.3-0.3-0.8-0.5-1.2-0.8c-0.6-0.6-1.1-1.5-1.9-1.9
					c-0.6-0.3-1.2-0.2-1.4-0.1C479.7,473.1,480.1,473.1,480.4,473.4z"/>
				<path class="st0" d="M466.7,480.3l-0.5-0.2c-0.3-0.1-0.3-0.1-0.4-0.1c0.1,0.3,1.4,0.6,1.5,0.7c-0.1-0.2-0.3-0.2-0.5-0.3
					c0.1,0,1.4,0.5,1.8,0.8c0,0,0.3,0.1,0.4,0.2c0.3,0.1,0.7,0.2,1.1,0.3c0.5,0.2,0.7,0.2,0.8,0.2c0,0,0.1-0.1,0-0.2
					c0,0,0-0.1-0.1-0.1c-0.3-0.3-0.6-0.5-0.9-0.8c-0.7-0.9-0.7-0.9-0.7-1c-0.1-0.1-0.3-0.2-0.3-0.4c0.3-0.1,1.4,0.4,1.6,0.5
					c0.3,0.4,0.3,0.4,0.5,0.2c0.3-0.2,0.5,0.3,0.7,0c0.2-0.2-0.4-0.4-0.1-0.6c0-0.1-0.3-0.2-0.3-0.2c-0.2-0.1-0.4,0-0.5,0
					c-0.2-0.1-0.4-0.2-0.7-0.3c-0.1,0-0.1,0-0.1,0c-0.1,0.1-0.1,0.1-0.4,0c-0.1-0.1-1.1-0.4-1.4-0.3v0.1c-0.1,0-0.3-0.2-0.2-0.3
					c0.3-0.3,0.8,0,1.1-0.4c0.2-0.2-0.2-0.4-0.3-0.6c0,0,0,0,0-0.1c0,0,0-0.1-0.1-0.2c-0.7-0.5-1.5-0.2-1.5,0c0,0,0,0,0.1,0.2
					c-0.2,0-0.4-0.4-0.6-0.2c0,0,0,0,0.5,0.4c-0.4,0-0.7-0.2-1.1,0c-0.3,0.1-0.3,0.1-0.1,0.5c0.1,0.2-0.3,0.1-0.4,0.2
					c0,0.2,0.6,0.5,0.8,0.6c0.1,0.1,0.2,0.1,0.2,0.1s0,0-0.1,0c-0.2-0.1-0.4-0.2-0.7-0.3c-0.1,0-0.3,0.1-0.4,0
					c-0.3-0.1-0.8,0.3-0.9,0.4C464.9,479.4,466.2,480,466.7,480.3z"/>
				<path class="st0" d="M478.6,517.8c0,0,0,0,0.1-0.4h0.1c0.6,0.5-1,1-0.5,1.5c0.2-0.1,0.3-0.3,0.4-0.4c0.3,0.2,0.5,0.6,0.8,0.7
					v0.1c-0.3,0.4-0.8,1.3,0,1.3c0.3,0,0.3-0.3,0.4-0.4c0.2,0,0.2,0.1,0.4,0.4h-0.1c-0.1-0.1-0.2-0.2-0.3-0.3
					c-0.1,0.3,0.2,0.7,0.5,0.6c0.2-0.1,0.3-0.2,0.5-0.2c0.4,0.5-0.1,1.7,0.7,1.6c0.1-0.5,1.1-0.6,1.3-0.4l1.3,2
					c0.1,0.6,0.1,0.8-0.8,0.9c-0.9,0.1-0.7,0.4-0.5,0.5c0.1-0.1,0.1-0.1,0.2-0.2c0.1,0.2,0.1,0.2-0.2,1.5l0.4-0.2
					c0.7-0.3,0.8,0.4,0.6,0.8c-0.2,0.5-1.2,0.9-0.7,1.6c0.7,0.8,1.7,0,2.4,0.5c0,0.1,0,0.1-0.1,0.2c-0.4,0.1-0.5,0.2-0.9,0.8
					c-0.2,0.4-0.1,1-0.3,1.4c-0.2,0.3-0.4,0.6-0.6,0.9c0,0.1,0,0.1-0.1,0.2c0.2,0.4,0.6,0.2,0.6,0.2c0.1,0,0.1-0.1,0.2-0.1
					c0.4-0.2,0.5-0.6,0.8-0.8c0.3-0.1,0.7,0,0.9-0.2c0.1-0.1,0.2-0.2,0.2-0.3c0.2-0.5,0.2-0.5,0.3-0.6c0,0,0.1,0,0.1-0.1
					c0.6-0.2,1.2-0.2,1.8-0.4c0.4-0.1,0.7-0.5,1.1-0.7c1.5-0.4,1.9-1.4,2-1.6c0.2-0.5-0.7-0.3-0.9-0.7c-0.3-0.7,0.3-1.3,0.1-2
					c-0.4-1.5-1.8-1.4-2.1-1c-0.1,0.1-0.1,0.2-0.2,0.4c-0.3-1.4-0.3-1.4-1.3-2.6l-0.1-0.1c-0.6-0.5-1.3-0.7-1.8-1.2
					c-0.6-0.6-1-1.4-1.7-1.9c-0.3-0.2-0.6-0.1-0.8-0.3l-0.1-0.1c0,0-0.3-0.4-0.2-1.1c0.1-0.3,0.1-0.3-0.1-1.8
					c-0.1-1.3-2.3,0.6-2.6-0.6c0.5-0.4,0.5-1.2,0.5-1.2c-0.5-0.5,0.2-2-0.6-1.8c-0.2,0.1-0.5,0.2-0.2,0.9c0.1,0.2,0.1,0.3,0,0.4
					c-0.3,0.5-1.1,0-1.3,0.6c-0.3,0.7,0.5,1.7-0.4,2.2c-0.5-0.1-0.5,0.4-0.4,0.7C478.1,517.2,478.4,517.4,478.6,517.8z"/>
				<path class="st0" d="M474.8,508.2c0-0.1-0.1-0.3-0.2-0.4c0,0-0.1-0.1-0.1-0.3c0-0.2,0-0.3,0-0.5c0,0-0.1-0.1-0.1-0.2l0,0
					c0,0,0,0.1,0,0.2s0,0.2,0,0.2l-0.1-0.1c-0.2-0.2-0.3-0.2-0.4-0.2c0,0-0.1,0-0.1,0.1c-0.1,0.1,0,0.4,0.2,0.8c0,0,0.1,0.1,0.1,0
					s0.3,0,0.4,0.3c0.1,0.2,0.1,0.3,0,0.3c0,0.1,0,0.1,0,0.2c0.1,0.2,0.5,0.4,0.6,0.4c0,0,0,0-0.1-0.2
					C474.9,508.7,474.7,508.4,474.8,508.2z"/>
				<path class="st0" d="M470.2,472.2c0.1,0,0.1,0.1,0.2,0.1c0.3,0.2,0.5,0.4,0.8,0.6s0.6,0.3,0.9,0.5l0,0H472
					c0.1,0.1,0.6,0.2,0.7,0.1c-0.2-0.3-0.5-0.3-0.8-0.5c0.2,0,0.3,0.1,0.5,0.1c0.1,0,0.3,0,0.3,0s0,0-0.3-0.1c-0.1,0-0.1,0-0.1-0.1
					c0.1,0,0.3,0,0.6,0.1c0.1,0,0.2,0,0.2,0c0.2-0.1,0-0.3,0.1-0.4h0.1c0.1,0.1,0.3,0.2,0.3,0l-0.1-0.1c-0.2-0.1-0.4-0.1-0.6-0.3
					c0,0,0-0.1-0.1-0.1c0,0-0.1-0.1-0.4-0.2c-0.2-0.1-0.3-0.1-0.4-0.1h-0.1c-0.2,0-0.4-0.1-0.6-0.1c-0.1,0-0.3,0.1-0.4,0.1
					c-0.1,0.1-0.1,0.1-0.7-0.1c-0.2-0.1-0.3-0.1-0.4,0C470,472.1,470.1,472.1,470.2,472.2z"/>
				<path class="st0" d="M473.1,468c0.1,0,0.1,0.1,0.2,0.1s0.3,0.1,0.7,0.1c0,0,1.1,0.1,1.2,0c-0.2-0.1-0.4-0.1-0.6-0.1
					c0.2,0,0.4,0.1,0.6,0.1l0,0c-0.2-0.1-0.4-0.1-0.6-0.1c0.2,0,0.3,0.1,0.5,0c0,0-0.1,0-0.1-0.1c0,0,0-0.1,0.2-0.1s0.3-0.1,0.3-0.1
					s0.9-0.5,0-0.7c-0.2,0-1.7-0.1-1.8-0.1c-0.2,0-0.2,0.3-0.4,0.4c-0.1,0-0.1,0-0.6-0.1s-0.9,0.2-1,0.3c0,0.1,0.8,0.4,0.9,0.4
					C472.8,468,472.9,467.9,473.1,468z"/>
				<path class="st0" d="M476,524.9c0.1,0.2,0.3,0.2,0.4,0.4c0.2,0.3-0.2,0.6,0,1c0.1,0.1,0.3,0.2,0.5,0.2c0.9,0.2,0.7,0.8,0.2,1.7
					c-0.4,0.8-0.4,1.3-0.3,1.6c0,0.3,0.4,0.2,0.5,0.4c0.1,0.1,0,0.3,0,0.4l0,0c0.2,0,0.2-0.2,0.4-0.2c0.1,0,0.1,0.2,0.2,0.2
					c0.1,0.1,0.4,0.1,1.2-0.4c0.1-0.1,0.2-0.1,0.3-0.2c0.5-0.4,0.8-0.9,1.3-1.3c0.3-0.2,0.7-0.3,1-0.5c0,0,0-0.1,0.1-0.1
					c0.1-0.3-0.1-1.7-0.5-2.8c-0.4-1-0.4-1-0.4-1.2c0-0.4,0.4-0.7,0.4-1.1c0,0-0.3-2-2.9-1.6c-1.3,0.3-1,2-1,2
					c0.2,0.1,0.3,0.1,0.3,0.3s-0.5,0.3-0.9,0.3C476.3,524,475.9,524.1,476,524.9L476,524.9z"/>
			</g>
		</g>
	</g>
</g>
<g id="Capa_2_1_">
</g>
</svg>
