<?xml version="1.0" encoding="utf-8"?>
<!-- Generator: Adobe Illustrator 22.1.0, SVG Export Plug-In . SVG Version: 6.00 Build 0)  -->
<svg version="1.1" id="Capa_1" xmlns="http://www.w3.org/2000/svg" xmlns:xlink="http://www.w3.org/1999/xlink" x="0px" y="0px"
	 viewBox="0 0 895 895" style="enable-background:new 0 0 895 895;" xml:space="preserve">
<style type="text/css">
	.st0{fill:#212844;}
</style>
<g id="Capa_1_1_">
	<path class="st0" d="M447.5,0C200.4,0,0,200.4,0,447.5S200.4,895,447.5,895S895,694.6,895,447.5S694.6,0,447.5,0z M754.2,754.2
		c-81.9,81.9-190.9,127.1-306.7,127.1s-224.8-45.1-306.7-127.1c-82-81.9-127.1-190.8-127.1-306.7s45.1-224.8,127.1-306.7
		c81.9-82,190.8-127.1,306.7-127.1s224.8,45.1,306.7,127.1c81.9,81.9,127.1,190.9,127.1,306.7C881.3,563.4,836.2,672.3,754.2,754.2z
		"/>
	<path class="st0" d="M447.5,210.9C317,210.9,210.9,317,210.9,447.5S317,684.1,447.5,684.1S684.1,578,684.1,447.5
		S578,210.9,447.5,210.9z M589.7,354.7l6.6-13.3l6.6,13.3l14.6,2.1l-10.6,10.3l2.5,14.6l-13.1-6.9l-13.1,6.9l2.5-14.6l-10.6-10.3
		L589.7,354.7z M262.7,467.7l2.5-14.6l-10.6-10.3l14.6-2.1l6.6-13.3l6.6,13.3l14.6,2.1l-10.6,10.3l2.5,14.6l-13.1-6.9L262.7,467.7z
		 M311.8,553.6l-13.1-6.9l-13.1,6.9l2.5-14.6l-10.6-10.3l14.6-2.1l6.6-13.3l6.6,13.3l14.6,2.1L309.3,539L311.8,553.6z M309.4,367.2
		l2.5,14.6l-13.1-6.9l-13.1,6.9l2.5-14.6l-10.6-10.3l14.6-2.1l6.6-13.3l6.6,13.3l14.6,2.1L309.4,367.2z M355.1,291.8l6.6-13.3
		l6.6,13.3l14.6,2.1l-10.6,10.3l2.5,14.6l-13.1-6.9l-13.1,6.9l2.5-14.6L340.4,294L355.1,291.8z M374.8,616.3l-13.1-6.9l-13.1,6.9
		l2.5-14.6l-10.6-10.3l14.6-2.1l6.6-13.3l6.6,13.3l14.6,2.1l-10.6,10.3L374.8,616.3z M460.6,639.4l-13.1-6.9l-13.1,6.9l2.5-14.6
		l-10.6-10.3l14.6-2.1l6.6-13.3l6.6,13.3l14.6,2.1l-10.6,10.3L460.6,639.4z M458.4,281.5l2.5,14.6l-13.1-6.9l-13.1,6.9l2.5-14.6
		l-10.6-10.3l14.6-2.1l6.6-13.3l6.6,13.3l14.6,2.1L458.4,281.5z M546.4,616.2l-13.1-6.9l-13.1,6.9l2.5-14.6l-10.6-10.3l14.6-2.1
		l6.6-13.3l6.6,13.3l14.6,2.1l-10.6,10.3L546.4,616.2z M543.9,304.4l2.5,14.6l-13.1-6.9l-13.1,6.9l2.5-14.6L512.2,294l14.6-2.1
		l6.6-13.3l6.6,13.3l14.6,2.1L543.9,304.4z M606.8,538.9l2.5,14.6l-13.1-6.9l-13.1,6.9l2.5-14.6L575,528.6l14.6-2.1l6.6-13.3
		l6.6,13.3l14.6,2.1L606.8,538.9z M619.2,460.8l-13.1,6.9l2.5-14.6L598,442.7l14.6-2.1l6.6-13.3l6.6,13.3l14.6,2.1L629.8,453
		l2.5,14.6L619.2,460.8z"/>
	<g>
		<path class="st0" d="M177.1,276.7c-8.2-4.6-15.3-6.4-21.1-5.4c-4.7,0.8-8.3,3.5-10.8,8.1c-2.4,4.3-2.7,8.6-1,13
			c2.2,5.5,7.1,10.3,14.7,14.6c7.8,4.4,14.8,6.1,20.9,5.1c4.7-0.8,8.2-3.3,10.5-7.5c2.5-4.5,2.8-9.2,1-14.1
			C189.5,285.5,184.7,281,177.1,276.7z"/>
		<path class="st0" d="M456.3,153.5c5.2,0.2,9.5-1.7,13-5.7s5.4-10.2,5.6-18.9c0.3-9.4-1.4-16.5-4.9-21.2c-2.9-3.8-6.9-5.7-12.2-5.9
			c-4.9-0.1-8.9,1.6-12,5.1c-3.8,4.4-5.9,11-6.2,19.8c-0.3,9,1.4,16,5.1,20.9C447.6,151.4,451.5,153.4,456.3,153.5z"/>
		<polygon class="st0" points="520.3,119.2 506,138.8 524.4,143 		"/>
		<path class="st0" d="M695.1,224.9c2.5-2.4,3.8-5.1,3.9-8.1c0.1-3-1.1-5.9-3.5-8.4c-1.1-1.1-2.7-2.5-4.9-4.1L673.9,220
			c0.4,0.4,0.7,0.7,0.9,1s0.5,0.5,0.6,0.7c3.6,3.8,7.1,5.9,10.6,6.3C689.5,228.4,692.6,227.4,695.1,224.9z"/>
		<path class="st0" d="M388.6,132c0.4,0,0.7-0.1,0.9-0.1c5.2-0.8,8.9-2.5,11.2-5.2c2.3-2.7,3.2-5.7,2.6-9.2c-0.5-3.4-2-6-4.5-7.8
			s-5.4-2.4-8.9-1.9c-1.6,0.2-3.6,0.8-6.2,1.7l3.5,22.6C387.7,132.1,388.2,132,388.6,132z"/>
		<polygon class="st0" points="768.2,346.2 744.1,343.6 749.6,361.7 		"/>
		<polygon class="st0" points="761.3,463.7 759.6,482.6 782.6,475.2 		"/>
	</g>
	<g>
		<path class="st0" d="M450.4,742.7c-2.6-1.6-5.6-2.4-9-2.4c-2.1,0-4.7,0.3-7.9,1l-0.6,34c2.1,0.4,4,0.8,5.7,1
			c1.6,0.2,3.1,0.4,4.2,0.4c4.2,0.1,7.8-1.5,10.9-4.7s4.7-7.3,4.8-12.5c0.1-3.5-0.6-6.8-2-9.9C455,746.6,453,744.3,450.4,742.7z"/>
		<path class="st0" d="M744,587.6c-3.2-1.6-6.3-1.9-9.3-0.9s-5.3,3.1-7,6.4c-0.7,1.5-1.5,3.6-2.3,6.3l21.3,10.7
			c0.2-0.5,0.5-0.9,0.6-1.2c0.2-0.3,0.3-0.6,0.5-0.9c2.4-4.9,3.2-9.1,2.4-12.6S747.3,589.3,744,587.6z"/>
		<polygon class="st0" points="556.9,777.6 575.4,770.7 558.2,752.4 		"/>
		<path class="st0" d="M742.2,152.8c-78.7-78.7-183.4-122-294.7-122s-216,43.3-294.7,122.1c-78.7,78.6-122,183.3-122,294.6
			s43.3,216,122.1,294.7c78.7,78.7,183.4,122.1,294.7,122.1s216-43.3,294.7-122.1c78.7-78.7,122.1-183.4,122.1-294.7
			S820.9,231.5,742.2,152.8z M781.1,345.3L743,377.1c-3.1,2.6-4.9,4.6-5.6,6.1c-0.7,1.5-0.8,3.4-0.2,5.6l-0.7,0.2l0.6-0.1l0.2,1.9
			c0.2,2.3,1.1,3.9,2.6,4.7c0.9,0.5,2.9,0.6,6,0.3l38.1-3.9c1.7-1.8,2.8-3.1,3.3-4s0.9-2.1,1.3-3.8c0.2-0.8,0.2-2,0-3.6l1.5-0.2
			l1.5,14.9L753.9,433l31.6-3.3c3.4-0.3,5.4-0.9,6.2-1.8c1-1.1,1.4-2.7,1.2-4.9l-0.2-1.9l1.5-0.2l2,19.1l-1.5,0.2l-0.2-1.9
			c-0.2-2.3-1.1-3.9-2.6-4.7c-0.9-0.5-2.9-0.6-6-0.3l-46.2,4.8l-0.1-1.5l40.4-40.7l-33.7,3.5c-3.4,0.3-5.4,0.9-6.2,1.7
			c-1,1.1-1.4,2.8-1.2,4.9l0.2,1.9l-1.5,0.2l-2-19.1h0.1l-6.3-20.6l1.4-0.4c0.7,2.1,1.5,3.4,2.4,3.9c0.8,0.6,1.7,0.7,2.5,0.4
			c1.1-0.3,2.8-1.4,4.9-3.2l6.6-5.5l-6.3-20.4l-9.4-1c-2.3-0.3-4-0.2-5,0.1c-0.8,0.2-1.4,0.8-1.8,1.8c-0.4,1-0.3,2.7,0.3,5.3
			l-1.4,0.4l-5.1-16.6l1.4-0.4c1.1,2.1,2,3.3,2.8,3.8c1.6,0.9,4.6,1.6,8.9,2.1l49,5.2L781.1,345.3z M747.6,276.8
			c4.3,2.6,7.6,6.2,10,10.7c1.9,3.5,2.8,7.4,2.9,11.8c0,1.3,0.1,2.1,0.3,2.6c0.3,0.6,0.9,1.1,1.6,1.3c1,0.3,2.1,0.2,3.4-0.1l0.7,1.3
			l-16,9.9l-0.6-1.1c4.2-4.1,6.6-8.1,7.3-12s0.1-7.8-2-11.6c-1.7-3.2-4.1-5.7-7.1-7.5c-3-1.7-6.7-2.4-11.1-2
			c-4.4,0.4-9.2,2-14.6,4.8c-4.4,2.3-7.8,5.1-10.3,8.2s-3.8,6.6-4.1,10.3c-0.2,3.7,0.6,7.4,2.6,11.1c1.7,3.2,3.8,5.6,6.5,7.3
			c2.6,1.7,6.7,2.9,12.3,3.7l-0.1,1.5c-5.6-0.2-10.3-1.3-14-3.5s-6.8-5.5-9.1-10c-4.3-8.1-4.6-15.9-0.9-23.5
			c2.7-5.7,7.1-10.1,13.1-13.3c4.9-2.6,9.9-3.8,15.1-3.8C738.6,272.8,743.3,274.2,747.6,276.8z M683,192.8l-1.4-1.5l1.1-1l13.7,14.6
			c4,4.3,6.6,7.7,7.9,10.3c1.3,2.6,1.7,5.4,1.4,8.4s-1.7,5.6-4,7.7c-2.5,2.3-5.4,3.5-8.7,3.6s-6.9-1.2-10.9-3.9l-3.7,19.1
			c-0.9,4.4-1.1,7.7-0.7,9.8c0.4,2.2,1.5,4.5,3.4,6.9l-0.8,0.8l0.7,1c1.3,1.8,2.8,2.8,4.5,2.9c1.1,0,3-0.9,5.7-2.8l28.9-20.7
			c2.3-1.6,3.7-2.8,4.2-3.6c0.4-0.6,0.5-1.4,0.5-2.4c-0.2-1.3-0.6-2.5-1.4-3.6l-1.1-1.6l1.2-0.9l13.7,19.2L736,256l-1.2-1.6
			c-1.3-1.8-2.8-2.8-4.5-2.8c-1.1,0-3,0.9-5.7,2.8L695.8,275c-2.3,1.6-3.7,2.8-4.2,3.6c-0.4,0.6-0.5,1.4-0.4,2.4
			c0.1,1.3,0.6,2.5,1.4,3.6l1.2,1.6l-1.2,0.9l-13.7-19.2l0.9-0.6l-9.6-10.2l6-31.2c-1-1-1.8-1.8-2.4-2.4c-0.2-0.3-0.5-0.5-0.8-0.8
			s-0.5-0.6-0.8-1l-11.7,11c-2.5,2.4-3.8,4.1-3.9,5.3c-0.2,1.6,0.5,3.1,1.9,4.6l1.5,1.6l-1.1,1L642.6,228l1.1-1l1.4,1.5
			c1.6,1.7,3.3,2.4,5.1,2.1c1-0.2,2.6-1.3,4.9-3.5l25.9-24.4c2.5-2.4,3.8-4.1,3.9-5.3C685.1,195.8,684.4,194.3,683,192.8z
			 M691.2,447.5c0,134.4-109.3,243.7-243.7,243.7S203.8,581.9,203.8,447.5s109.3-243.7,243.7-243.7S691.2,313.1,691.2,447.5z
			 M637.3,155.3l33.9,25.5l-6.8,10l-1.3-1c1.3-2.7,2-4.6,2.1-5.9c0.1-1.3-0.2-2.6-1-3.8c-0.6-1-2-2.3-4.2-3.9l-12.1-9.1l-13.1,17.4
			l9.7,7.3c2.5,1.9,4.5,2.8,5.9,2.6c1.9-0.1,3.8-1.4,5.8-3.8l1.2,0.9L646,206.9l-1.2-0.9c1.3-2.4,2-4,2.2-4.8c0.2-1.1,0-2.1-0.6-3.2
			c-0.6-1.1-1.8-2.3-3.6-3.7l-9.7-7.3l-10.9,14.5c-1.5,1.9-2.3,3.2-2.4,3.7c-0.1,0.6-0.1,1.1,0.2,1.7s1,1.3,2.2,2.2l7.5,5.6
			c2.5,1.9,4.4,3.1,5.8,3.6c1.4,0.5,3,0.6,4.8,0.4c2.3-0.3,5.2-1.3,8.7-3l1.3,1l-12.1,8.2l-33.9-25.5l0.9-1.2l1.6,1.2
			c1,0.8,2.2,1.3,3.5,1.5c1,0.2,1.8,0,2.6-0.5s2-1.8,3.6-4l21.5-28.6c2.1-2.8,3.1-4.7,3-5.8c-0.1-1.5-1.1-2.9-2.9-4.2l-1.6-1.2
			L637.3,155.3z M489.3,153.8c1.6-1,3.7-3.2,6.2-6.7l29-39.9l1.4,0.3l8.5,48.9c0.7,3.9,1.5,6.6,2.5,7.9c0.9,1.2,2.2,2.1,4,2.7
			l0.3-0.6l1.8,0.8c2.1,1,3.9,1.1,5.4,0.2c0.9-0.5,2-2.2,3.3-5l15.4-32.5c1-2.2,1.6-3.9,1.5-5.1c0-0.9-0.4-1.8-1-2.7
			c-0.7-0.9-2.1-1.8-4.1-2.8l0.6-1.4l14.1,6.7l-0.4,47.5l36.2-30.5l14.1,6.7l-0.6,1.4l-1.7-0.8c-2.1-1-3.9-1.1-5.4-0.2
			c-0.9,0.5-2,2.2-3.3,5l-15.4,32.5c-1.4,3.1-2,5.1-1.7,6.2c0.4,1.5,1.6,2.6,3.6,3.6l1.7,0.8l-0.6,1.4l-21.1-10l0.6-1.4l1.8,0.8
			c2.1,1,3.9,1.1,5.4,0.2c0.9-0.5,2-2.2,3.3-5l15.8-33.2l-39,32.8l-1.2-0.6l0.6-51L555.1,164c-1.4,3.1-2,5.1-1.7,6.2
			c0.4,1.5,1.6,2.6,3.6,3.6l1.8,0.8l-0.6,1.4l-16.4-7.8l-0.1,0.6l-21.2-4.8l0.3-1.5c2.2,0.4,3.7,0.4,4.6-0.1c0.9-0.4,1.4-1.1,1.6-2
			c0.3-1.2,0.2-3.1-0.3-5.9l-1.5-8.5l-20.8-4.7l-5.6,7.6c-1.4,1.9-2.2,3.3-2.4,4.4c-0.2,0.8,0,1.6,0.7,2.4c0.6,0.8,2.2,1.6,4.8,2.4
			l-0.3,1.5l-16.9-3.9l0.3-1.5C487,154.5,488.5,154.3,489.3,153.8z M430.4,126.6c0.3-8.7,3.5-15.8,9.6-21.1
			c5.3-4.6,11.6-6.8,18.8-6.6c7.1,0.2,13.2,3.1,18.3,8.7c5.1,5.6,7.5,12.4,7.2,20.6c-0.3,8.4-3.1,15.2-8.5,20.6
			c-5.4,5.4-11.9,7.9-19.4,7.7c-7.6-0.2-13.9-3.1-18.8-8.7C432.5,142.2,430.1,135.1,430.4,126.6z M387.5,105.1
			c5.8-0.9,10.1-1.1,13-0.7s5.4,1.6,7.7,3.6c2.3,2,3.6,4.5,4.1,7.6c0.5,3.3-0.1,6.4-1.9,9.2c-1.8,2.8-4.9,5.1-9.3,6.8l13.7,13.9
			c3.1,3.2,5.7,5.2,7.7,6.1c2,0.9,4.6,1.3,7.6,1.1l0.2,1.5l-14.5,2.3l-22.4-22.6c-1.4,0.3-2.5,0.5-3.3,0.6c-0.3,0.1-0.7,0.1-1.1,0.2
			c-0.4,0-0.8,0.1-1.3,0.1l2.5,15.8c0.5,3.4,1.2,5.5,2.1,6.2c1.2,1,2.8,1.4,4.8,1.1l2.1-0.3l0.2,1.5l-23.3,3.6l-0.2-1.5l2-0.3
			c2.3-0.4,3.8-1.4,4.6-3c0.4-0.9,0.4-2.9-0.1-6l-5.5-35.1c-0.5-3.4-1.2-5.5-2.1-6.2c-1.2-1-2.9-1.4-4.9-1l-2,0.3l-0.2-1.5
			L387.5,105.1z M325.3,122l0.5,1.4l-2,0.7c-2.1,0.8-3.4,2-3.9,3.7c-0.3,1.1,0.1,3.2,1.1,6.1l8.1,22.6c0.7,2,1.7,4.3,3,6.7
			c1.3,2.5,2.7,4.3,4.2,5.4c1.5,1.1,3.3,1.8,5.5,2.1s4.6,0,7.2-1c3.4-1.2,6.2-3,8.3-5.5c2.2-2.4,3.3-5,3.5-7.6
			c0.2-2.7-0.7-6.7-2.7-12.2l-7.5-21c-1.2-3.2-2.2-5.1-3.2-5.7c-1.4-0.8-3.1-0.8-5-0.1l-2,0.7l-0.5-1.4l18.4-6.5l0.5,1.4l-2,0.7
			c-2,0.7-3.3,2.1-3.8,4.2c-0.3,1,0.1,2.9,1.2,5.8l7.5,21c1.9,5.2,2.8,9.4,2.8,12.7c0,3.2-1.2,6.4-3.4,9.5c-2.3,3.1-6,5.6-11.2,7.5
			c-5.7,2-10.3,2.6-13.9,1.7c-3.6-0.9-6.7-2.8-9.1-5.7c-1.6-2-3.6-6.1-5.8-12.3l-7.2-20.3c-1.1-3.2-2.3-5.1-3.6-5.8
			c-1.2-0.7-2.8-0.7-4.8,0l-2,0.7l-0.5-1.4L325.3,122z M273.8,118.3l9.9,14.2l-1.9,1.2c-2.9-3.1-5.1-5-6.8-5.8
			c-1.7-0.8-3.5-1-5.6-0.7c-1.6,0.3-4.1,1.5-7.4,3.6l-18.3,11.4l16.5,26.4l14.7-9.2c3.8-2.4,6-4.5,6.6-6.5c0.8-2.6,0.1-5.8-2.1-9.8
			l1.8-1.1l14.5,23.2l-1.8,1.1c-2.5-3-4.2-4.8-5.3-5.4c-1.3-0.8-2.8-1.1-4.6-0.9c-1.8,0.2-4,1.1-6.8,2.9l-14.7,9.2l13.7,22
			c1.8,3,3.1,4.7,3.8,5.1c0.7,0.5,1.4,0.7,2.3,0.7s2.3-0.6,4.1-1.8l11.3-7.1c3.8-2.4,6.3-4.3,7.7-5.9c1.4-1.6,2.4-3.6,3-6.2
			c0.8-3.3,0.9-7.7,0.5-13.1l2-1.2l4.7,20.3L264.2,217l-1.1-1.8l2.4-1.5c1.6-1,2.8-2.3,3.8-3.9c0.7-1.2,0.9-2.4,0.7-3.7
			c-0.3-1.3-1.4-3.6-3.5-6.8L239.4,156c-2.6-4.2-4.7-6.6-6.2-7c-2-0.6-4.4,0-7.1,1.7l-2.4,1.5l-1.1-1.8L273.8,118.3z M171.9,235.1
			l53.3,1L201,215.6c-2.6-2.2-4.4-3.3-5.6-3.2c-1.5,0-3,0.9-4.4,2.5l-1.2,1.5l-1.1-1l12.4-14.6l1.1,1l-1.3,1.5
			c-1.5,1.8-2,3.5-1.6,5.1c0.3,1,1.6,2.5,3.9,4.5l35.4,30l-0.9,1.1l-57.3-1l25.9,21.9c2.6,2.2,4.4,3.3,5.5,3.3c1.5,0,3-0.9,4.4-2.5
			l1.3-1.5l1.1,1l-12.4,14.6l-1.1-1l1.2-1.5c1.5-1.8,2.1-3.5,1.6-5.2c-0.3-1-1.6-2.5-3.9-4.5l-29.2-24.8c-2.5,0-4.2,0.1-5.2,0.4
			c-1,0.2-2.2,0.8-3.6,1.7c-0.7,0.4-1.6,1.3-2.6,2.5l-1.1-1L171.9,235.1z M143,277.3c3.5-6.2,8.9-10.3,16.2-12.2
			c7.3-1.9,14.5-0.9,21.6,3c7.3,4.1,12.1,9.8,14.3,17.1c2.2,7.3,1.5,14.2-2.1,20.8c-3.7,6.6-9.2,10.9-16.4,12.7
			c-7.2,1.9-14.6,0.7-22-3.4c-7.6-4.3-12.4-10.3-14.3-18.2C138.5,290.1,139.5,283.6,143,277.3z M127.2,311.9l1.4,0.5l-0.7,1.9
			c-0.8,2.1-0.8,3.9,0.1,5.3c0.6,0.9,2.4,2,5.5,3.2l33.2,12.8c2.6,1,4.4,1.5,5.3,1.5c0.7,0,1.5-0.3,2.2-1c1-0.9,1.8-1.9,2.2-3.1
			l0.7-1.9l1.4,0.5l-8.5,22l-1.4-0.5l0.7-1.8c0.8-2.1,0.8-3.9-0.1-5.3c-0.6-0.9-2.4-2-5.5-3.2l-33-12.8c-2.6-1-4.4-1.5-5.3-1.5
			c-0.7,0-1.5,0.3-2.2,0.9c-1,0.9-1.8,1.9-2.2,3.1l-0.7,1.8l-1.4-0.5L127.2,311.9z M105,385.9l47.7-23.7l-31-7.1
			c-3.3-0.8-5.4-0.9-6.4-0.3c-1.3,0.7-2.2,2.1-2.7,4.3l-0.4,1.9l-1.5-0.3L115,342l1.5,0.3l-0.4,1.9c-0.5,2.3-0.2,4,1,5.3
			c0.7,0.8,2.6,1.5,5.6,2.2L168,362l-0.3,1.4L116.2,389l33.1,7.5c3.3,0.8,5.4,0.9,6.4,0.3c1.3-0.7,2.2-2.2,2.7-4.3l0.4-1.9l1.5,0.3
			l-4.3,18.7l-1.5-0.3l0.4-1.9c0.5-2.3,0.2-4.1-1-5.3c-0.7-0.8-2.6-1.5-5.6-2.2l-37.3-8.5c-2.2,1.1-3.6,2.1-4.4,2.7
			c-0.8,0.7-1.6,1.7-2.4,3.2c-0.4,0.7-0.8,1.8-1.1,3.4l-1.5-0.3L105,385.9z M80.6,483.2c-1.5,1.3-2.3,3.5-2.3,6.5v3h-2.1l0.1-34h2.1
			v3c0,3.2,1,5.6,3,7c1.4,1,4.3,1.5,8.7,1.5l34.3,0.1c3.1,0,6.6-0.3,10.5-0.8s7-1.5,9.2-3s4-3.6,5.5-6.3c1.4-2.8,2.2-6.1,2.2-10.2
			c0-5.1-1.1-9.8-3.3-13.8c-2.2-4.1-5.1-6.9-8.6-8.4s-9.4-2.3-17.8-2.3l-31.8-0.1c-4.9,0-8,0.5-9.2,1.6c-1.7,1.5-2.6,3.7-2.6,6.7v3
			h-2.1l0.1-27.8h2.1v3c0,3.1,1.3,5.5,3.9,7.2c1.2,0.8,4,1.2,8.3,1.3l31.9,0.1c7.9,0,14,0.8,18.4,2.4c4.3,1.6,8.1,4.7,11.2,9.3
			c3.1,4.6,4.6,10.8,4.6,18.7c0,8.6-1.6,15.1-4.5,19.5c-3,4.4-7,7.6-12,9.4c-3.4,1.2-9.9,1.8-19.4,1.8l-30.7-0.1
			C85.3,481.3,82.2,481.9,80.6,483.2z M161.9,611.3l-8.7-15.8l-23.6,13c-3.2,1.7-5,2.9-5.6,3.6c-0.5,0.7-0.8,1.5-0.8,2.4
			s0.5,2.4,1.6,4.4l6.7,12.2c2.2,4.1,4.1,6.8,5.7,8.4c1.6,1.5,3.7,2.7,6.2,3.5c3.4,1,7.9,1.4,13.6,1.3l1.2,2.1l-21.4,3.7l-30.4-55.3
			l2-1.1l1.4,2.5c0.9,1.7,2.2,3.1,3.9,4.1c1.2,0.8,2.5,1.1,3.8,0.9c1.4-0.2,3.8-1.3,7.3-3.2l46.6-25.6c4.5-2.5,7.1-4.5,7.7-6
			c0.7-2,0.3-4.5-1.4-7.5l-1.4-2.5l2-1.1l30.4,55.3l-15.3,9.4l-1.1-2.1c3.4-2.8,5.5-5.1,6.4-6.7c0.9-1.7,1.3-3.6,1-5.8
			c-0.2-1.7-1.4-4.3-3.3-7.9l-10.8-19.7l-28.3,15.6l8.7,15.8c2.3,4.1,4.4,6.5,6.4,7.2c2.6,0.9,6,0.4,10.3-1.7l1.1,2l-25,13.7l-1.1-2
			c3.2-2.4,5.2-4.1,5.9-5.2c0.9-1.3,1.3-2.9,1.2-4.7C164.4,616.7,163.6,614.3,161.9,611.3z M168.5,692.2l23-48.7
			c1.2-2.5,1.8-4.1,2-4.8c0.2-1.1,0.1-2.2-0.2-3.3s-1-2.4-2-3.8l1.2-1l15.4,17.6l-1.2,1c-1.9-1.8-3.4-2.8-4.4-3s-1.9,0.1-2.7,0.8
			c-1.1,0.9-2.3,2.9-3.7,5.8l-15.7,33.1l33.9-11.7c3.3-1.2,5.5-2.2,6.4-3c0.6-0.5,0.9-1.4,1-2.5c0-1.1-0.5-2.5-1.5-4.2
			c-0.1-0.1-0.2-0.3-0.4-0.6l1.2-1l11.6,13.3l-1.2,1c-1.6-1.3-3.1-2-4.5-2.2c-2-0.2-4.5,0.2-7.4,1.2l-49.8,17.1L168.5,692.2z
			 M233.2,749.6l-34.6-27.4l1-1.2l1.6,1.3c1.1,0.8,2.3,1.4,3.6,1.6c1,0.2,1.9,0.1,2.7-0.4s2.1-1.8,3.8-4l23.1-29.2
			c2.3-2.8,3.4-4.8,3.3-5.9c-0.1-1.5-1.1-3-2.9-4.5l-1.6-1.3l1-1.2l34.6,27.4l-7.3,10.2l-1.3-1c1.4-2.7,2.2-4.8,2.3-6.1
			c0.1-1.3-0.2-2.7-0.9-4c-0.6-1-2-2.4-4.3-4.2l-12.3-9.8l-14,17.7l9.9,7.8c2.6,2,4.6,3,6.1,2.9c2-0.1,4-1.4,6.2-3.8l1.2,1
			L242,731.1l-1.2-1c1.4-2.4,2.2-4.1,2.4-4.9c0.2-1.1,0-2.2-0.5-3.4c-0.6-1.2-1.8-2.5-3.6-4l-9.9-7.8l-11.7,14.8
			c-1.6,2-2.4,3.3-2.6,3.8c-0.2,0.6-0.1,1.2,0.1,1.8c0.2,0.6,1,1.4,2.2,2.4l7.6,6c2.5,2,4.5,3.3,5.9,3.9c1.4,0.6,3.1,0.7,5,0.5
			c2.5-0.3,5.5-1.2,9.1-2.9l1.3,1.1L233.2,749.6z M319.4,737.7c-1,0.5-2.2,2.2-3.7,5l-22.6,42.7l-1.3-0.7L280,726.1l-16.5,31.2
			c-1.7,3.1-2.3,5.2-2.1,6.4c0.4,1.5,1.6,2.8,3.5,3.9l1.8,1L266,770l-17.6-9.4l0.7-1.4l1.8,0.9c2.2,1.1,4,1.3,5.6,0.5
			c1-0.5,2.2-2.2,3.7-5l18.7-35.2c-0.6-2.5-1.1-4.2-1.5-5.2c-0.5-1-1.3-2.1-2.5-3.3c-0.6-0.6-1.6-1.3-3.1-2.1l0.7-1.4l13.7,7.3
			l10.8,54.4l15.5-29.2c1.7-3.1,2.3-5.2,2-6.4c-0.4-1.5-1.5-2.8-3.5-3.9l-1.8-0.9l0.7-1.4l17.6,9.4l-0.7,1.4l-1.8-1
			C322.9,737,321,736.8,319.4,737.7z M372.4,765.6l-1.5-0.5c0.4-2.3,0.5-4.1,0.3-5.2c-0.3-1.8-1.1-3.3-2.2-4.5
			c-1.2-1.2-2.9-2.1-5.1-2.8l-7.7-2.4L343,791.9c-1.1,3.4-1.4,5.6-0.9,6.6c0.7,1.4,2.1,2.5,4.2,3.2l1.9,0.6l-0.5,1.5l-23.2-7.3
			l0.5-1.5l1.9,0.6c2.3,0.7,4.2,0.5,5.6-0.5c0.9-0.7,1.8-2.5,2.7-5.6l13.1-41.8l-6.6-2.1c-2.6-0.8-4.4-1.2-5.6-1.1
			c-1.6,0.1-3.1,0.7-4.5,1.8c-1.5,1.1-2.7,2.9-3.6,5.3l-1.5-0.5l4.7-12.6l44.6,14L372.4,765.6z M465.3,774.8
			c-4.5,4.1-10.7,6.1-18.8,5.9c-2,0-4.1-0.2-6.4-0.5s-4.7-0.8-7.3-1.4l-0.4,23.8c-0.1,5.2,0.4,8.4,1.5,9.6c1.5,1.8,3.8,2.7,6.9,2.8
			l3.1,0.1v2.2l-35.1-0.7v-2.2l3.1,0.1c3.5,0.1,6-1,7.5-3.2c0.8-1.2,1.3-4.2,1.4-8.8l1-52.9c0.1-5.1-0.4-8.4-1.5-9.6
			c-1.5-1.8-3.9-2.7-7-2.8l-3.1-0.1v-2.2l30,0.6c7.3,0.1,13.1,1,17.3,2.6c4.2,1.6,7.7,4.2,10.5,7.8s4.2,7.9,4.1,12.8
			C472.1,765.3,469.8,770.7,465.3,774.8z M531,808.4l-43.7,7.7l-0.3-1.5l2.1-0.4c2.4-0.4,4-1.5,4.7-3.2c0.4-1,0.4-3.1-0.2-6.3
			l-6.4-36.4c-0.6-3.5-1.4-5.7-2.3-6.4c-1.3-1-3-1.4-5.1-1l-2.1,0.4l-0.3-1.5l25.6-4.5l0.3,1.5c-3,0.5-5.1,1.1-6.2,1.9
			c-1.1,0.8-1.8,1.7-2.1,2.6c-0.3,1-0.1,3.1,0.5,6.5l6.2,35.5c0.4,2.3,0.9,3.8,1.5,4.6c0.4,0.5,1,0.9,1.8,1c0.7,0.2,2.9-0.1,6.6-0.7
			l4.1-0.7c4.3-0.8,7.3-1.6,8.9-2.6c1.6-0.9,3-2.4,4.2-4.2c1.2-1.9,2.2-4.7,3-8.4l1.4,0.1L531,808.4z M583.6,791.5l-0.5-1.5
			c2.1-0.9,3.4-1.8,3.9-2.7s0.6-1.8,0.3-2.6c-0.4-1.2-1.6-2.8-3.6-4.9l-6.1-6.5l-20.8,7.8l-0.5,9.8c-0.1,2.4,0,4.1,0.4,5.2
			c0.3,0.8,1,1.4,2,1.7s2.8,0.1,5.5-0.7l0.5,1.5l-16.9,6.3l-0.5-1.5c2.1-1.2,3.4-2.3,3.8-3.2c0.9-1.8,1.4-4.9,1.6-9.4l2.4-51.2
			l1.4-0.5l35.3,37.7c2.8,3,5.1,4.8,6.7,5.5c1.6,0.6,3.6,0.6,5.8-0.1l0.5,1.5L583.6,791.5z M715,705l-59.1-8.1l24,25.8
			c2.4,2.6,4.2,3.9,5.3,4.1c1.6,0.1,3.2-0.6,4.8-2.1l1.5-1.4l1.1,1.1L678,738l-1.1-1.1l1.5-1.4c1.8-1.7,2.6-3.4,2.3-5.1
			c-0.2-1.1-1.3-2.8-3.5-5.1l-27.1-29.2c-2.5-0.3-4.3-0.4-5.4-0.2c-1.1,0.1-2.4,0.6-4,1.3c-0.8,0.4-1.8,1.1-3,2.3l-0.2-0.2l-1.4,0.9
			c-2.1,1.3-3.1,2.8-3.2,4.6c-0.1,1.1,0.8,3,2.5,5.7l25.4,41.1l-1.3,0.8L603.1,733l18.5,30c1.9,3,3.3,4.7,4.4,5
			c1.5,0.4,3.2,0.1,5.1-1.1l1.7-1.1l0.8,1.3l-17,10.5l-0.8-1.3l1.7-1c2.1-1.3,3.2-2.8,3.3-4.6c0.1-1.1-0.8-3-2.5-5.7l-20.9-33.9
			c-2.4-0.8-4.2-1.2-5.2-1.3c-1.1-0.1-2.4,0.1-4.1,0.5c-0.8,0.2-1.9,0.8-3.4,1.6l-0.8-1.3l13.2-8.2l52.4,18.1l-17.4-28.1
			c-1.9-3-3.3-4.7-4.5-5c-1.5-0.5-3.2-0.1-5.1,1.1l-1.7,1l-0.8-1.3l17-10.5l0.1,0.1l10.9-10.1l54.9,7.6l-22.5-24.2
			c-2.4-2.6-4.2-3.9-5.4-4c-1.6-0.2-3.2,0.5-4.8,2.1l-1.5,1.4l-1.1-1.1l14.6-13.6l1.1,1.1l-1.5,1.4c-1.8,1.6-2.5,3.4-2.3,5.1
			c0.2,1.1,1.3,2.8,3.5,5.2l32.9,35.4L715,705z M729.5,688l-1.3-0.9l1.2-1.6c0.8-1.1,1.3-2.3,1.5-3.7c0.2-1,0-1.9-0.5-2.7
			s-1.9-2-4.1-3.7l-29.8-22.2c-2.9-2.2-4.9-3.2-6-3.1c-1.5,0.1-3,1.2-4.4,3.1l-1.2,1.6l-1.3-0.9l26.4-35.4l10.4,7l-1,1.3
			c-2.8-1.3-4.8-2-6.2-2.1c-1.3-0.1-2.7,0.2-4,1c-1,0.7-2.4,2.1-4.1,4.4l-9.4,12.6l18.2,13.5l7.5-10.1c2-2.6,2.9-4.7,2.7-6.1
			c-0.2-1.9-1.5-4-4-6.1l0.9-1.3l16,11.9l-0.9,1.3c-2.5-1.4-4.1-2.1-5-2.3c-1.1-0.2-2.2,0-3.4,0.6c-1.1,0.6-2.4,1.8-3.9,3.8
			l-7.5,10.1l15.1,11.3c2,1.5,3.3,2.3,3.9,2.5c0.6,0.1,1.2,0.1,1.8-0.2s1.4-1,2.3-2.3l5.8-7.8c1.9-2.6,3.2-4.6,3.7-6.1
			c0.5-1.4,0.6-3.1,0.4-5c-0.4-2.4-1.4-5.5-3.1-9l1-1.4l8.6,12.5L729.5,688z M784.5,600.6l-32.6,5.3c-0.6,1.3-1.1,2.4-1.5,3.2
			c-0.2,0.3-0.3,0.7-0.5,1c-0.2,0.4-0.4,0.8-0.6,1.1l14.9,7.5c3.2,1.6,5.4,2.3,6.5,2c1.6-0.4,2.9-1.6,3.8-3.5l1-2l1.4,0.7l-11,21.9
			l-1.4-0.7l1-1.9c1.1-2.2,1.2-4.1,0.2-5.7c-0.5-0.9-2.2-2.1-5.2-3.6l-33.1-16.6c-3.2-1.6-5.4-2.3-6.5-2c-1.6,0.4-2.9,1.6-3.9,3.5
			l-1,1.9l-1.4-0.7l9.4-18.7c2.7-5.4,5.1-9.2,7.2-11.4c2.1-2.2,4.6-3.6,7.7-4.4c3-0.7,6-0.4,9,1.1c3.1,1.6,5.4,4,6.6,7.2
			c1.3,3.2,1.3,7.2,0.1,12l20-3.2c4.6-0.7,7.9-1.7,9.8-2.9c2-1.2,3.8-3.1,5.5-5.7l1.4,0.7L784.5,600.6z M794.9,479.3l-47.3,15
			c-3.8,1.2-6.3,2.4-7.5,3.6s-2,2.8-2.3,5.1l-1.5-0.1l1.9-21.6l1.5,0.1c-0.1,2.2,0.1,3.7,0.7,4.5c0.6,0.8,1.3,1.3,2.2,1.4
			c1.2,0.1,3.1-0.3,5.8-1.1l8.2-2.6l1.9-21.2l-8.3-4.5c-2-1.1-3.6-1.7-4.6-1.8c-0.8-0.1-1.6,0.3-2.3,1s-1.3,2.4-1.7,5l-1.5-0.1
			l1.5-17.3l1.5,0.1c0.2,2.3,0.6,3.9,1.2,4.6c1.2,1.5,3.7,3.2,7.5,5.3l43.4,23.3L794.9,479.3z"/>
	</g>
</g>
<g id="Capa_2_1_">
</g>
</svg>
